<?xml version="1.0" encoding="UTF-8"?>
<svg version="1.1" viewBox="0 0 1600 1600" width="1280" height="1280" xmlns="http://www.w3.org/2000/svg">
<path transform="translate(622,342)" d="m0 0h27l17 5 16 8 14 11 9 9 12 17 8 16 6 15 4 14 4 20 2 22 50 3 6-20 6-15 9-17 11-16 13-14 13-10 14-8 17-6 12-2h18l16 3 15 6 13 8 14 12 9 11 9 14 8 16 6 18 4 18 2 22v9h7l21 5 16 8 11 9 8 10 8 13 8 18 5 13 12 37 7 24 3 22-1 11-3 9-7 8 2 2 8 4 11 8 7 7 9 14 7 15 8 20 4 11 3 8 30 90 10 31 10 30 5 16 12 36 4 14 3 7 8 25 13 40 10 32 9 29 7 27 3 13 1 8v15l-2 9-6 9-7 7-14 8-18 5-55 6-28 3-39 4-8 10-10 7-12 5-22 4-293 33-91 10-33 4-37 4-34 4-26 2-16-1-17-5-11-6-10-9-4-5h-10l-20 2h-25l-15-3-11-5-8-5-7-6-6-9-3-8-22-1-15-4-9-4-11-7-7-8-3-5-3-9-2-22v-21l3-45 5-57 3-29 6-61 4-39 10-100 7-66 5-36 5-26 5-16 8-16 6-7 13-9 9-4h2l-1-2-11-6-9-8-6-10-4-9-3-13-1-13v-16l2-28 4-40 5-30 5-15 8-16 9-11 10-7 16-6 19-2h15l27 2 29 3h5l7-24 6-15 8-16 10-15 9-11 8-8 13-10 17-9 13-4zm10 89-8 8-9 16-3 10 1 1 30 4h6v-7l-4-14-6-14-4-4zm266 25-9 6-8 10-7 14v3l20 2 26 1-2-11-5-12-8-11-4-2z" fill="#68C2FE"/>
<path transform="translate(622,342)" d="m0 0h27l17 5 16 8 14 11 9 9 12 17 8 16 6 15 4 14 4 20 2 22 50 3 6-20 6-15 9-17 11-16 13-14 13-10 14-8 17-6 12-2h18l16 3 15 6 13 8 14 12 9 11 9 14 8 16 6 18 4 18 1 7 1 26-1 20-4 23-8 26-9 18h-3v-3h-2l-2-3-9 1v-2h-7l-5-5-2-7h-2v-9l6-16 6-24 2-12 2-33v-11l-1-21v-5l4 1 5 21 3 22 3 40 3 9 4-1 4-9 2-16v-26l-4-25-8-16-6-6-9-2-5-7-5-12-8-12-7-8-10-6-11-4h-7l-7 3-2 2v6l8 16 6 10 7 15 6 18 4 21 1 27-2 18-4 20-3 10-2 2-2 1 2 4-1 2h-2v7h-2l1 3-3 11-1 9 1 11 4 5v2h2v2l5 2v2l12 5 10 1 8-2 4-2h4l2-4 5-5-2 10-4 10-8 10-4 1h-10l-8-2-14-7-11-9-9-11-8-14-5-14-1-4v-33l-8-26-4-14-2-10-32-2-77-6-29-3v16l-4 26-5 20-4 9-2-1v-2l-2-1-3-1-2 4-7 6h-2v2l-5 3-7 2h-7l-5-2-3 1-1-5v-6l8-18 6-20 5-24 5-48 1-2 4 1 3 10 3 43 3 14 1 2 3-1 4-9 3-17v-26l-3-17-5-15-6-8-8-7-4-7-9-19-8-13-10-12-10-7-11-4-13-1-6 3-2 3v10l6 13 8 16 6 15 4 13 4 19 1 9v21l-6 26-3 12-1 5-1 7h-2l-1 11-4 14-2 11v11l4 13 6 8v4l4 2 8 5v2l5 1 6 2h10l10-3 9-6 6-9h1l-1 10-6 14-5 7-5 4-8 2h-8l-12-3-16-8-12-11-8-9-9-16-4-13-1-5v-13l2-10 4-12-1-11-11-40v-3l-37-4-49-5-18-1h-18l-14 2-11 4-6 4-8 8-5 9-2 10v21l8 36 11 42 7 24 8 16 6 10 5 6 6 5 4 5 11 7 12 5-14 14-6 12-1 7v19l4 26 7 32 14 57 15 58 10 39 5 18 1 9 1 21 3 32 1 15 4 27 2 7 6 3 11 1 6 23v4l-13 2-5 3h-2v38l3 39 1 21 2 13 2 19 3 9 3 3 3 1 17 1 24-2h8l11 16 9 8 14 8 14 5 11 2h22l244-26 104-11 45-5 4 1-4 7-11 9-11 5-12 3-22 3-239 27-125 14-37 4-61 7-29 3-22 1-16-3-13-5-10-6-10-10-1-2h-10l-20 2h-25l-15-3-11-5-8-5-7-6-6-9-3-8-22-1-15-4-9-4-11-7-7-8-3-5-3-9-2-22v-21l3-45 5-57 3-29 6-61 4-39 10-100 7-66 5-36 5-26 5-16 8-16 6-7 13-9 9-4h2l-1-2-11-6-9-8-6-10-4-9-3-13-1-13v-16l2-28 4-40 5-30 5-15 8-16 9-11 10-7 16-6 19-2h15l27 2 29 3h5l7-24 6-15 8-16 10-15 9-11 8-8 13-10 17-9 13-4zm10 89-8 8-9 16-3 10 1 1 30 4h6v-7l-4-14-6-14-4-4zm266 25-9 6-8 10-7 14v3l20 2 26 1-2-11-5-12-8-11-4-2z" fill="#77839C"/>
<path transform="translate(643,356)" d="m0 0 13 1 12 5 11 8 9 11 8 13 8 17 5 9 8 7 6 8 5 15 3 17v26l-3 17-4 9-4 2-3-6-2-11-3-43-2-10-4-1-5 50-6 28-7 21-6 13v10l5-1 1 2h11l4-1 1-2h2l3-1v-2l5-3 6-7 4-1 2 5 3-5 5-18 3-17 2-14 1-16 18 1 61 5 43 3 13 1 3 1 4 13 4 15 7 22v33l5 16 7 13 7 9 6 7 13 9 11 5 6 1h14l2-4 6-8 4-10 1-7-6 8-10 4-12 1-12-4-5-3-4-4v-2h-2l-5-7-1-12 3-16 2-10 1-3h2l-1-6 2-3 1-3h2l-1-3h2l1-8 4-22 1-21-1-18-4-21-6-18-10-21-8-13-3-7v-6l4-4 9-2 8 1 14 7 8 7 7 10 6 10 4 9 3 5 9 2 7 7 8 16 4 25v26l-2 16-4 9-2 2-4-1-3-9-4-49-4-22-3-12-3-1 1 7 1 28-1 24-2 17-6 26-6 18-1 2v8l2 1 2 7 1 3 15 3 4-1 2 4h2v3h3l2-6 7-15 7-23 4-23 1-31h1v9h7l21 5 16 8 11 9 8 10 8 13 8 18 5 13 12 37 7 24 3 22-1 11-3 9-7 8-4 1-10-4-27-2-74-3-65-3-26-2h-14l-10-2-26-1-26-2-30-1-9-1-51-1h-15l-52-3-5-1-61-3-46-2-11 2h-7l8 4-3 2-15 7-12-5-11-7-8-9-6-5-7-11-8-16-4-11-4-15-11-42-8-36v-21l3-12 6-9 9-9 11-5 9-2 9-1h18l28 2 57 6 16 2 3 1 7 24 6 24-1 10-4 11-1 7v13l4 15 8 16 8 10 9 9 11 7 12 5 9 2h8l10-2 1-3 4-4 6-12 3-9v-4l-7 9-10 6-8 2h-10l-11-4v-2l-5-2-7-5-2-5-6-9-3-11v-11l8-36h2l-1-4 1-5h2l-1-4 4-16 5-21v-21l-3-19-5-19-6-16-14-28-1-3v-10l4-5z" fill="#4EB1D4"/>
<path transform="translate(468,469)" d="m0 0h8l-16 8-9 9-5 9-2 10v21l8 36 11 42 7 24 8 16 6 10 5 6 6 5 4 5 11 7 12 5-14 14-6 12-1 7v19l4 26 7 32 14 57 15 58 10 39 5 18 1 9 1 21 3 32 1 15 4 27 2 7 6 3 11 1 6 23v4l-13 2-5 3h-2v38l3 39 1 21 2 13 2 19 3 9 3 3 3 1 17 1 24-2h8l11 16 9 8 14 8 14 5 11 2h22l244-26 104-11 45-5 4 1-4 7-11 9-11 5-12 3-22 3-239 27-125 14-37 4-61 7-29 3-22 1-16-3-13-5-10-6-10-10-1-2h-10l-9 1h-10v-1l27-3-6-16-4-16-4-25-3-26-5-53-2-27-7-90-3-38-2-30-5-64-5-67-3-54v-41l3-22 5-12 6-8 7-7 10-6v-2l-13-7-10-9-7-8-7-15-5-16-3-16-3-22-3-38-1-18v-20l2-18 3-12 6-12 9-10 10-6 12-4z" fill="#690119"/>
<path transform="translate(458,461)" d="m0 0h31l43 4 112 12 7 2v2h-12l-64-7-49-5-18-1h-18l-28 3-12 4-10 6-8 9-6 12-4 18-1 12v20l2 28 3 37 4 26 5 16 5 12 6 10 10 10 14 8 3 2-1 3-11 7-8 8-7 14-3 16-1 9v41l4 67 5 65 4 53 6 83 6 75 3 38 2 18 2 24 4 33 4 23 6 20 3 7-1 1-27 3-1 1h-25l-15-3-11-5-8-5-7-6-6-9-2-5-4-27-1-11-1-42 1-64 4-145 2-74 3-90 2-40 4-36 4-17 8-16 5-6 8-6 8-5 8-3-9-4-11-8-8-9-5-9-5-14-3-16-1-10v-47l1-27 3-33 5-19 8-16 8-9 9-6 6-3 12-3z" fill="#0E8A04"/>
<path transform="translate(572,423)" d="m0 0 4 3-1 5-4 18-2 10-2 1 6 2v1h-6v3l1 2 30 2 21 1 4-2-11-2 1-2 36 5v-5h1l1 13-17-1-56-6-55-6-34-3h-31l-13 2-10 3-9 5-8 7-7 11-5 12-4 16-3 33-1 30v44l3 21 3 12 5 11 7 10 8 7 6 4 10 4-1 2-10 4-10 7-5 4-7 11-5 13-4 20-3 29-2 40-3 90-2 74-4 145-1 71 1 35 3 27 1 8-23-1-15-4-9-4-11-7-7-8-3-5-3-9-2-22v-21l3-45 5-57 3-29 6-61 4-39 10-100 7-66 5-36 5-26 5-16 8-16 6-7 13-9 9-4h2l-1-2-11-6-9-8-6-10-4-9-3-13-1-13v-16l2-28 4-40 5-30 5-15 8-16 9-11 10-7 16-6 19-2h15l27 2 29 3h6v2l15 1h11v-7l4-13 7-9 4-2v-2z" fill="#CD541F"/>
<path transform="translate(506,698)" d="m0 0 1 2-1 3 1 3 2 21 5 28 13 56 18 69 9 35 15 57 14 55 22 84 13 47 8 27 11 33 8 17 8 12 9 9 14 9 11 5 16 4 5 1h16l34-3 125-13 40-4 36-4 77-8 79-8 40-4 25-3 58-6 15-2 11-4 9-6 6-8 3-10 2-4v11l-1 10-6 9-7 7-14 8-18 5-55 6-28 3-39 4-13 1-280 30-105 11h-22l-14-3-13-5-12-7-10-9-10-15h-9l-23 2-17-1-6-3-3-7-2-11-2-22-1-3-2-32-2-28v-32l1-6 7-4 13-1-6-23v-4h-11l-7-4-3-13-3-21-3-39-1-8-1-21-2-13-8-29-27-106-6-24-8-36-4-23-1-8v-19l2-10z" fill="#0285F9"/>
<path transform="translate(892,374)" d="m0 0h18l16 3 15 6 13 8 14 12 9 11 9 14 8 16 6 18 4 18 1 7 1 26-1 20-4 23-8 26-9 18h-3v-3h-2l-2-3-9 1v-2h-7l-5-5-2-7h-2v-9l6-16 6-24 2-12 2-33v-11l-1-21v-5l4 1 5 21 3 22 3 40 3 9 4-1 4-9 2-16v-26l-4-25-8-16-6-6-9-2-5-7-5-12-8-12-7-8-10-6-11-4h-7l-7 3-2 2v6l8 16 6 10 7 15 6 18 4 21 1 27-2 18-4 20-3 10-2 2-2 1 2 4-1 2h-2v7h-2l1 3-3 11-1 9 1 11 4 5v2h2v2l5 2v2l12 5 10 1 8-2 4-2h4l2-4 5-5-2 10-4 10-8 10-4 1h-10l-8-2-14-7-11-9-9-11-8-14-5-14-1-4v-33l-8-26-4-14-2-10h12l32 3-3-16-5-16-6-10-5-5-5-1-9 6-8 11-8 15h-14l-38-3-29-2 3-16 6-17 10-19 7-11 7-9 11-12 13-10 14-8 17-6z" fill="#504742"/>
<path transform="translate(433,657)" d="m0 0 2 2 5 12 6 10 10 10 14 8 3 2-1 3-11 7-8 8-7 14-3 16-1 9v41l4 67 5 65 4 53 6 83 6 75 3 38 2 18 2 24 4 33 4 23 6 20 3 7-1 1-27 3-1 1h-25l-15-3-11-5-8-5-7-6-6-9v-7l5 3 6 7 7 5 3 1h8l5-4 3-9v-18l-4-23-1-8-2-43v-53l3-88 2-36 1-29 3-52 3-58 2-32 1-30 1-9 3-37 1-18 2-9 1-5 2-9 6-16 5-9v-2l-7-2-9-6-5-8-3-14v-6z" fill="#037301"/>
<path transform="translate(766,1054)" d="m0 0h39l6 3 5 8 11 35 10 35 10 38 2 9-1 10-4 3-8 2-38 4-29 2h-27l-6-2-7-1-3-4-8-25-9-32-11-42-5-22v-7l2-4 8-5 26-3z" fill="#EEEEF2"/>
<path transform="translate(689,888)" d="m0 0h59l11 1 6 3 6 12 14 46 12 45 4 16v11l-7 5-2 3-13 2-27 1h-21v2h-35l-8-2v-2l-4-2-5-7-11-36-7-25-12-48-1-6v-10l5-4 5-3 8-1z" fill="#EEEEF2"/>
<path transform="translate(1111,1250)" d="m0 0 4 1-4 7-11 9-11 5-12 3-22 3-239 27-125 14-37 4-61 7-29 3-22 1-16-3-13-5-10-6-10-10v-4h6l13 7 16 2 14-1 10-4 9-6 7-3 7-6 5-2 3-6 3-3 3-1 1-6-1-10-3-12h19l24-2h8l11 16 9 8 14 8 14 5 11 2h22l244-26 104-11z" fill="#43070F"/>
<path transform="translate(616,727)" d="m0 0h40l31 1 26 2 6 3 5 7 7 21 14 49 9 35 1 4v9l-8 7-9 2-16 1h-66l-10-1-8-5-4-8-5-16-6-19-11-42-8-34 1-10z" fill="#FEAD5A"/>
<path transform="translate(930,1047)" d="m0 0 13 1 5 3 5 10 14 44 15 52 3 13v10l-7 5-19 2-43 4-39 1-3-1-4-7-8-25-7-23-7-25-7-27-4-17 1-9 10-6 16-2 30-2z" fill="#FEB071"/>
<path transform="translate(827,887)" d="m0 0h59l9 1 6 4 5 10 10 30 14 48 7 27v9l-5 4-4 4-29 3-20 1h-44l-8-3-4-8-8-24-12-41-10-38-2-8v-11l9-6 4-1z" fill="#EEEEF3"/>
<path transform="translate(756,731)" d="m0 0h50l27 1 16 2 6 3 6 12 15 48 12 43 2 9v9l-5 4-4 4-7 1-22 1h-41l-19-1-9-3-1-4h-2l-4-8-10-31-9-31-9-34-2-9v-9l8-6z" fill="#EEEEF2"/>
<path transform="translate(421,685)" d="m0 0 5 2 4 3 10 4-1 2-10 4-10 7-5 4-7 11-5 13-4 20-3 29-2 40-3 90-2 74-4 145-1 71 1 35 3 27 1 8-23-1-15-4-9-4-11-7-7-8-3-5-2-11v-8l4 4 7 13 5 1h3l1-8v-19l1-22 4-51 3-30 4-39 3-26 8-65 2-17 1-5 1-17 6-44 5-43 7-51 4-25 4-23 4-18 10-28 8-16 7-11z" fill="#A2380B"/>
<path transform="translate(1024,1041)" d="m0 0h46l5 3 5 9 12 36 13 42 8 28v10l-6 4-23 3-33 3h-31l-7-4h-5l-4-6-12-36-14-47-7-27v-7l7-6 8-2z" fill="#EEEEF2"/>
<path transform="translate(963,886)" d="m0 0h47l12 1 5 3 5 9 12 36 12 39 8 28v9l-9 7-9 2-25 2-44 1-10-1-6-3-6-12-8-24-9-30-8-28-6-23v-7l4-4 5-3 8-1z" fill="#FEAD5A"/>
<path transform="translate(889,735)" d="m0 0h50l23 1 11 1 8 4 4 6 12 35 14 46 6 22-1 9-4 3h-2l-1 3-23 2h-46l-15-1-10-3-1-3-2-1-9-25-13-42-11-40v-11l7-5z" fill="#EEEEF2"/>
<path transform="translate(1149,1035)" d="m0 0h40l6 4 5 10 17 50 12 39 3 11v10l-3 3-18 3-31 3-16 1h-17l-9-5-6-1-6-15-12-36-11-36-6-21v-11l8-5 12-2z" fill="#EEEEF2"/>
<path transform="translate(1071,885)" d="m0 0h66l7 2 6 8 11 31 16 50 6 22v8l-7 5-6 1v2l-18 2-17 1h-41l-7-3-2-2-4-10-6-16-14-44-11-38-1-4v-8l7-5 3-1z" fill="#EEEEF2"/>
<path transform="translate(1019,738)" d="m0 0h22l30 1 23 2 6 4 5 10 16 47 12 39 2 8v9l-8 7-21 2h-42l-16-1-8-3-2-2-3-7-7-19-14-43-8-27-3-12v-9l8-5z" fill="#EEEEF2"/>
<path transform="translate(475,703)" d="m0 0h5l1 1-1 9-6 20-3 18-2 15-1 14v52l2 42 4 56 1 20 3 39 6 87 4 57 5 61 3 30 2 21 3 21 2 13v13l-4 1-7-14-7-28-6-36-3-17-2-15-2-16-4-35-3-1-6-79-3-38-2-30-5-64-5-67-3-54v-41l3-22 5-12 6-8 7-7 8-5z" fill="#8C0912"/>
<path transform="translate(438,698)" d="m0 0h6l-1 5-6 9-7 15-7 28-4 26-3 29-3 46-3 87-3 101-1 28-3 91v22l-1 75-2 4-4-1-4-11-4-22-2-15-1-5-1-23v-7l-1-3v-44l4-145 2-74 3-90 2-40 4-36 4-17 8-16 5-6 8-6 6-3z" fill="#49BD01"/>
<path transform="translate(400,684)" d="m0 0 2 1-1 1h9l2 2-6 11-7 11-7 14-7 24-6 29-5 34-4 31-5 41-6 59-9 81-9 85-6 57-3 36-2 11h-4l-2-10v-40l1-19v-29l1-19-1-1-2 4 1-14 4-42 5-51 5-49 10-100 5-46 5-36 5-26 5-16 8-16 6-7 13-9z" fill="#E16421"/>
<path transform="translate(468,469)" d="m0 0h8l-16 8-9 9-5 9-2 10v21l8 36 11 42 7 24 8 16 6 10 5 6 6 5 4 5 11 7 12 5-14 14-6 12-1 7-1 1-1 14h-1l-1-5v-16l-1-7-1-3-10 1-10 4-3-1v-2l-13-7-10-9-7-8-7-15-5-16-3-16-3-22-3-38-1-18v-20l2-18 3-12 6-12 9-10 10-6 12-4z" fill="#650512"/>
<path transform="translate(892,374)" d="m0 0h18l16 3 15 6 13 8 14 12 9 11 9 14 8 16 6 18 4 18 1 7 1 26-1 20-4 23-8 26-9 18h-3v-3h-2l-2-3-9 1v-2h-7l-5-5-2-7h-2v-9l6-16 6-24 2-12 2-33v-11l-1-21v-5l4 1 5 21 3 22 3 40 3 9 4-1 4-9 2-16v-26l-4-25-8-16-6-6-9-2-5-7-5-12-8-12-7-8-10-6-11-4h-7l-7 3-2 2v6l8 16 6 10 7 15 6 18 4 21 1 27-2 18-4 20-3 10-2 2-2 1 2 4-1 2h-2v7h-2l1 3-3 11-1 9 1 7-2 2-3-7-1-8 2-17 3-12 3-9 5-19 2-16v-10l-1-9-1-7-1-18-1-12-5-16-8-16-9-12-16-16-6-7-4-10-1-6h-5l2-2 12-3z" fill="#77839C"/>
<path transform="translate(915,392)" d="m0 0h7l13 5 9 6 8 9 7 11 6 13 3 5 9 2 7 7 8 16 4 25v26l-2 16-4 9-2 2-4-1-3-9-4-49-4-22-3-12-3-1 1 7 1 28-1 24-2 17-6 26-6 18-7 13-8 8h-2l-1 3-11 7h-5l-2-4 3-16 2-10 1-3h2l-1-6 2-3 1-3h2l-1-3h2l1-8 4-22 1-21-1-18-4-21-6-18-10-21-8-13-3-7v-6l4-4z" fill="#8497B8"/>
<path transform="translate(586,367)" d="m0 0h13l15 9 13 11 1 3h2l7 9 9 17 2 7v6l-3 7v9l-3-1-5-10-2-2-4 1-8 9-8 16-3 9h8l4 2-5 3-21-1-25-2-8-2 3-5-6-1v-1l7-1 2-16 3-12 1-5-3-2-5 1v2l-6 5-4 6-4 13v8h-12l-15-2 1-10 7-21 5-12 7-14 10-15 5-6 7-4 7-3z" fill="#52576E"/>
<path transform="translate(388,894)" d="m0 0h1l1 8-1 57-3 100-2 74-1 71 1 35 3 27 1 8-23-1-15-4-9-4-11-7-4-4v-4l5 2 7 5 3 1h8l5-2v-2l3-2 1-6 1-3v-21l-1-6-1-16v-37l2-34 7-73 3-21 3-28 5-36 4-31 4-28 2-8z" fill="#923106"/>
<path transform="translate(933,888)" d="m0 0h6l-4 4-1 2 1 11 14 48 11 37h2l-2-14-10-39-3-15 1-5 6-1h6l8 3 13 5 14 10 14 14 4 2 18 22 2 2 4 5 6 9 8 7 3 6-2 6h-2l-2 4-1 1-36 2-36 1-11-5v-2h-2l-6-13-2-3-6-13-8-23v-3h-2l-8-28-6-23v-7l4-4z" fill="#FDAF70"/>
<path transform="translate(930,1047)" d="m0 0 13 1 5 3 5 10 14 44 15 52 3 13v10l-7 5-19 2-43 4-39 1-3-1-4-7-8-25-7-23-7-25-7-27-4-17 1-9 10-6 16-2 30-2zm-54 21-16 2-2 4 1 10 4 16 11 39 7 30 2 8 4 6 2 2h12l69-6 6-3 3-7-2-9-3-6-2-1-1-6-4-9-6-17-5-10-5-15-3-8h-2l-2-6-5-8-3-2-7-1-1 1-11-2-13-1z" fill="#FEAD5A"/>
<path transform="translate(628,1253)" d="m0 0h9l11 16 9 8 14 8v6h2l1 8-3 5-9 2-5 3-21 6-24 5-25 3-28 5-1 2 8 1-2 2-22 1-16-3-13-5-10-6-10-10v-4h6l13 7 16 2 14-1 10-4 9-6 7-3 7-6 5-2 3-6 3-3 3-1 1-6-1-10-3-12h19z" fill="#51030F"/>
<path transform="translate(653,370)" d="m0 0h7l6 3 9 7v2h2l7 10 7 14 4 13 2 12 1 8v49l-4 27-5 19-7 16-7 11-7 9h-2v2l-6 4h-4l-2-5 1-11 5-19 4-17 3-21 1-11v-21l-3-29-6-26-10-30-1-4v-8z" fill="#B5C1DC"/>
<path transform="translate(585,1106)" d="m0 0h7l4 16 12 45 10 34 12 36 6 13v2h2l-1 2h-9l-23 2-17-1-6-3-3-7-2-11-2-22-1-3-2-32-2-28v-32l1-6 7-4z" fill="#8497B8"/>
<path transform="translate(643,356)" d="m0 0 13 1 12 5 11 8 9 11 8 13 8 17 5 9 8 7 6 8 5 15 3 17v26l-3 17-4 9-4 2-3-6-2-11-3-43-2-10-4-1-5 50-6 28-7 21-8 17-3 1-2 4-13 14-4 4-7 2-4-2-4-13v-11l8-36h2l-1-4 1-5h2l-1-4 4-16 5-21v-21l-3-19-5-19-6-16-14-28-1-3v-10l4-5zm10 14-5 4v8l5 17 7 21 5 22 3 29v21l-3 25-2 13-5 17-4 18 1 9 1 2 6-1 4-3v-2l4-2 10-14 9-20 5-19 4-27v-49l-2-14-4-16-6-14-7-10-2-3h-2l-1-3-9-7-5-2z" fill="#8497B8"/>
<path transform="translate(442,695)" d="m0 0h10l-1 5-7 11-6 15-7 27-3 21-3 38-5 99-4 93-3 66-1 37-1 23-1 38v52l1 17 1 34-2 9-4 3-5-2-6-7-6-8-3-1-3-26-1-42 1-20 2 3v13l1 19 2 10 3 21 5 20h4l1-5 1-92 2-70 1-34 1-18 3-104 3-84 4-58 4-32 6-28 5-16 9-17 3-4 1-3-15 3v-2l6-2z" fill="#209802"/>
<path transform="translate(699,373)" d="m0 0 6 2 12 17 8 16 6 15 4 14 4 20 2 22 50 3 2-2v3l37 3 29 2h15l20 2 27 2 1 13h-10l-50-4-43-3-61-5-18-2v16l-4 26-5 20-4 9-2-1v-2l-2-1-3-1-2 4-7 6h-2v2l-5 3-7 2h-7l-4-2-1-3 3-9 8-21 8-25 2-3 4 1 4 16 3 5h4l5-8 5-18 2-14v-28l-4-23-5-17-10-23-9-19-6-7z" fill="#535970"/>
<path transform="translate(458,461)" d="m0 0h31l43 4 112 12 7 2v2h-12l-64-7-49-5-18-1h-18l-28 3-12 4-10 6-8 9-6 12-4 18-2 25-2 11-2 50v24l2 23 1 6v10l-4 1-5-6-4-7-4-8v-3h-2l-3-21v-47l1-27 3-33 5-19 8-16 8-9 9-6 6-3 12-3z" fill="#49BD01"/>
<path transform="translate(922,498)" d="m0 0 3 4 4 12 1 5-2 16-7 27-3 9-2 9-1 13 2 11 7 10v2h2v2l5 2v2l12 5 10 1 8-2 4-2h4l2-4 5-5-2 10-4 10-8 10-4 1h-10l-8-2-14-7-11-9-9-11-8-14-5-14-1-4v-33l-8-26-4-14-2-10h12l32 3z" fill="#1A4C71"/>
<path transform="translate(1267,1223)" d="m0 0h2l-2 4-14 7-15 4-55 6-28 3-39 4-13 1-280 30-105 11h-22l-14-3-13-5-12-7-10-9-3-4 1-2 16 4 12 6 11 5 17 5 8 1h21l106-11 64-7 349-37 15-4z" fill="#1253C8"/>
<path transform="translate(609,477)" d="m0 0 22 2 8 1h13l1 8v11l-3 19-4 16-5 21-1 8v17l3 10 11 9v2l4 2 8 5v2l5 1 6 2h10l10-3 9-6 6-9h1l-1 10-6 14-5 7-5 4-8 2h-8l-12-3-16-8-12-11-8-9-9-16-4-13-1-5v-13l2-10 4-12-1-11-11-40v-3z" fill="#1B4C71"/>
<path transform="translate(468,712)" d="m0 0h3l-1 5-4 11-3 15-2 21v42l3 56 15 209 9 121 5 54v12h-2l-3-13-5-38-6-63-19-238-5-68-2-34v-57l3-16 4-10 6-7z" fill="#E36D56"/>
<path transform="translate(572,423)" d="m0 0 4 3-1 5-4 18-2 10-2 1 6 2v1h-6v3l1 2 30 2 21 1 4-2-11-2 1-2 36 5v-5h1l1 13-17-1-56-6-55-6-34-3h-31l-13 2-10 3-9 5-8 7-7 11-2 2-3 4-7 12-5 16-4 25-5 49-2 22-2 2-1-3v-27l3-37 5-50v-11l-1-2 8-16 9-11 10-7 16-6 19-2h15l27 2 29 3h6v2l15 1h11v-7l4-13 7-9 4-2v-2z" fill="#FEAC5B"/>
<path transform="translate(923,405)" d="m0 0 6 1 9 6 7 7 7 11 5 11 4 14 3 22v33l-3 24-6 21-7 16-7 9-6 5h-3l-1-6 4-19 3-14 2-13 1-13v-19l-2-21-6-27-7-20-6-14-2-10 2-3z" fill="#CBD7E9"/>
<path transform="translate(468,469)" d="m0 0h8l-16 8-9 9-5 9-2 10-1 19-2 5v36l5 56 3 21 5 21 3 9v5l-5-1-7-8-7-13-4-8-2-3-2 2-3-16-3-22-3-38-1-18v-20l2-18 3-12 6-12 9-10 10-6 12-4z" fill="#8D0A11"/>
<path transform="translate(682,818)" d="m0 0 12 1 10 2h7l20 9 4 2 7 8 5 3 3 9-1 7-22 1h-27l-1 2h-7l-1-1-25-1-7-1-6-7-2-6 2-8h2l2-6 5-5h2l1-3 10-5z" fill="#FEAF70"/>
<path transform="translate(622,342)" d="m0 0h27l17 5 16 8 14 11 7 7-2 1-2-1 4 7 3 3 11 23 10 25 5 21 2 13v28l-3 19-5 15-6 8-4-2-3-5-4-16h-3l-4 11-8 24-3 7h-2l3-10 8-28 5-24 2-4 4 1 4 29 3 9h4l5-10 3-13 2-19v-12l-2-17-5-21-6-14-13-22-8-14-10-14-11-11-12-8-7-3-12-3-13 1-10 4-3 1-1 4 2 11 7 11 11 15 9 16 7 19 3 12 1 11v7l-4 8-1 10-1 12h-1l-1-8-1-5-1-10-6-20h2l-1-9 3-7-1-10-8-17-6-8-2-4h-2l-5-6-15-11-9-5h-13l-14 7-8 3-2 1 2-4 9-9 13-10 17-9 13-4z" fill="#73737D"/>
<path transform="translate(664,385)" d="m0 0 5 1 8 7 8 14 5 17 2 12 1 11v40l-2 17-4 17-6 15-5 5-5-1v-13l1-16v-46l-3-29-8-40v-8z" fill="#EEEEF3"/>
<path transform="translate(953,393)" d="m0 0 5 1 10 9 9 11 9 14 8 16 6 18 4 18 1 7 1 26-1 20-4 23-8 26-9 18h-3v-3h-2l-2-3-9 1v-2h-7l-5-5-1-2v-9l10-28 5-18 3-2 3 2 4 20 2 6 5-3 5-8 3-9 2-17h2v-26l-3-22-4-16-9-21-12-19-2-5-4-1-1-4h-2l-7-8v-2h-2z" fill="#555B71"/>
<path transform="translate(1283,1188)" d="m0 0h1v11l-1 10-4 1-4 5-10 6-7 3-19 3-32 3-64 7-134 14-78 8-36 4-162 17h-26l-15-3-15-6-11-7-10-9-8-10-8-15 1-3 6 11 7 10 8 8 14 9 11 5 16 4 5 1h16l34-3 125-13 40-4 36-4 77-8 79-8 40-4 25-3 58-6 15-2 11-4 9-6 6-8 3-10z" fill="#049CF5"/>
<path transform="translate(601,407)" d="m0 0 10 1 7 2v2l5 2 2 1v2l4 2 7 10-5 4-8 9-8 16-3 9h8l4 2-5 3-21-1-25-2-8-2 2-4 6-1 1-5v-10l3-11 6-11 1-2h2l2-4 4-4 6-5z" fill="#4F4641"/>
<path transform="translate(723,556)" d="m0 0 2 3 1 2 3-2-2 8h-2l-1 6-7 14-1 18-5 12-7 8-4 3-2-1 5-5 6-12 3-9v-4l-7 9-10 6-8 2h-10l-11-4v-2l-5-2-7-5-2-5-4-6 8-1 5-2 2-4 13-14 4-5 2 1v7l5-1 1 2h11l4-1 1-2h2l3-1v-2l5-3 6-7z" fill="#0E50CB"/>
<path transform="translate(390,689)" d="m0 0 2 1-2 4 6-1 7-1-3 7-9 13-5 11-5 15h-2l-1 9-2 9-2 20-5 36-6 50-10 92-3 26-3 18-2-4 1-18 3-32 11-120 7-69 1-14v-16l-2 1 1-6 8-16 7-9z" fill="#E47157"/>
<path transform="translate(875,379)" d="m0 0 2 1 2 8 4 10 7 7v2l4 2 12 12 9 13 7 15 4 14 1 12v8l1 10 1 12 1 10-2-1-4-12-3-1-2-12-5-16-2-5 2-1-3-17-1-8-6-11-2-1v-3h-2l-4-4v-2l-5-2-14-7-11-3h-20l-10 4-13 10h-2l-2 4-5 5h-2l2-5 10-14 12-13 13-10 14-8 5-2z" fill="#53586F"/>
<path transform="translate(408,491)" d="m0 0 1 3-5 16-2 8-3 31h-2l-2 10-1 12-4 42v41h-4l-5-7-7-19v11h-1l-2-18v-16l2-28 4-40 5-30 4-13 3-1v14l-5 48-3 37v27l1 1 5-53 4-32 4-18 5-13z" fill="#E16728"/>
<path transform="translate(578,1107)" d="m0 0h11l-1 3h-2l-2 9 1 20 3 32 2 21 1 13 2 27-2 17-6-1-6-3-2-11-2-22-1-3-2-32-2-28v-32l1-6z" fill="#CAD5E6"/>
<path transform="translate(951,574)" d="m0 0h1l1 6 2 1 2 7 1 3 15 3 4-1 2 4h2v3l3 1-4 7-1 15-4 11-6 7-5 3-2-1 7-8 5-12 1-7-6 8-10 4-12 1-12-4-5-3-4-4v-2h-2l-5-7v-9h6l11-7 5-5 7-8z" fill="#0E50CB"/>
<path transform="translate(458,589)" d="m0 0 2 4 10 35 8 16 6 10 5 6 6 5 4 5 11 7 12 5-14 14-6 12-1 7-1 1-1 14h-1l-1-5v-16l-1-7-1-3-10 1-10 4-3-1v-2l-8-4 1-3 12-1 1-1-1-8-8-25-6-25-6-36v-7z" fill="#500310"/>
<path transform="translate(643,527)" d="m0 0 2 1-5 15-8 15-1 3v13l2 8 8 16 6 7 11 6 14 5 4 1h12l9-3 9-10 6-9h1l-1 10-6 14-5 7-5 4-8 2h-8l-12-3-16-8-12-11-8-9-9-16-4-13-1-5v-13l5-12 7-8 5-4z" fill="#1A1831"/>
<path transform="translate(647,363)" d="m0 0h10l10 4 10 8 10 13 8 16 4 15 2 13v48l-3 26-3 14-4 14-6 15-8 14-4 6h-2v2h-2l-2 4-6 7-4 2h-6l-3-4v-15l5-18 6-21 5-21 1-11v-36l-4-24-6-21-8-20-6-16v-9l4-4zm6 7-5 4v8l5 17 7 21 5 22 3 29v21l-3 25-2 13-5 17-4 18 1 9 1 2 6-1 4-3v-2l4-2 10-14 9-20 5-19 4-27v-49l-2-14-4-16-6-14-7-10-2-3h-2l-1-3-9-7-5-2z" fill="#A5ABC4"/>
<path transform="translate(892,374)" d="m0 0h18l16 3 15 6 13 8 1 2h-2v3h2l2 5 4 2 1 3h2l1 4 4 1 10 16 8 14 6 15 5 21 2 17v16l-1 10h-1l-1-34-4-20-6-16-7-12-14-20-9-11v-2h-2l-7-8-11-8-5-3-10-3-14-1-9 4-4 4-1 6 3 8 10 13 10 14 9 19 5 16 2 11v25l-2 12h-1l-2-9-1-12-1-18-1-12-5-16-8-16-9-12-16-16-6-7-4-10-1-6h-5l2-2 12-3z" fill="#73737D"/>
<path transform="translate(862,500)" d="m0 0 13 1 3 1 4 13 4 15 7 22v33l5 16-1 2-8-14-6-11-6-8-6-11-6-12-5-18-2-14 2-11v-3z" fill="#1F9ECF"/>
<path transform="translate(585,1106)" d="m0 0h7l3 11v5h-1v11l4 27 8 52 1 12v14l-3 6-6 7-9 2-9-6 3-1 8 3 1-22-2-26-1-11-6-64v-7l3-9 1-2z" fill="#A4AAC3"/>
<path transform="translate(482,1275)" d="m0 0 4 2 7 10 5 9 5 6 2 1h8l2-2 3-8 1-7h4l2-6 5 3 4 1 1 5h3l3-7v-2l4 1 2 1v2l10 1 1 3 3 1 5 5v3h-3v3l-2 1 4 1v2l-7 3-12 7-11 2-19-1-10-4-7-4-6-1-1 2h-10l-9 1h-10v-1l27-3-6-16-2-8z" fill="#670512"/>
<path transform="translate(468,712)" d="m0 0h3l-1 5-4 11-3 15-2 21v42l3 56 15 209 9 121 5 54v12h-2l-3-13-5-38-6-63-19-238-1-15v-12h1l8 100 13 162 4 42 2 14-3-47-9-129-11-152-3-48-1-20v-43l2-19 4-16 2-6-5 5-4 8-3 14-1 6v49l2 37v15h-1l-3-47v-57l3-16 4-10 6-7z" fill="#CD531D"/>
<path transform="translate(468,469)" d="m0 0h8l-16 8-9 9-5 9h-2l-2 6-3 8-3 17v34l4 52 4 28 6 23v5l-5-5-5-10-4-15-3-17-3-30-3-42v-26l3-21 1-4h-3l-1 2 1-5 7-10 8-7 10-5 9-3z" fill="#E26B52"/>
<path transform="translate(449,450)" d="m0 0h15l27 2 8 1v1h-11l-18-1-2 2-10 2-18 2-17 6-9 7-7 10-7 17-3 11-5 25-4 32-5 53-2 2-1-3v-27l3-37 5-50v-11l-1-2 8-16 9-11 10-7 16-6z" fill="#FDB172"/>
<path transform="translate(934,422)" d="m0 0 5 1 5 5 6 10 5 13 3 15 1 8v41l-4 22-4 10-5 2-1-1v-51l-3-25-5-23-5-19 1-7z" fill="#EEEEF3"/>
<path transform="translate(915,545)" d="m0 0h1l-1 8-8 17-1 17 3 17 4 8 6 7 13 8 9 4 5 1h8l9-3 4-5h2l2-4 5-5-2 10-4 10-8 10-4 1h-10l-8-2-14-7-11-9-9-11-8-14-5-14v-21l7-14 8-6z" fill="#1A1831"/>
<path transform="translate(616,727)" d="m0 0h40l31 1 26 2v1h-12l-22-1-56-1v3l-5 5-1 9 5 21 14 53 6 22 2 13-1 1h-7l-3-5-6-19-8-28-10-39-5-22 1-10z" fill="#FDAF70"/>
<path transform="translate(506,698)" d="m0 0 1 2-1 3 1 3 2 21 5 28 13 56 18 69 9 35 15 57 14 55 21 80-1 4-8-29-17-64-17-62-7-25-10-38-9-31-5-19-9-30-5-20-11-40v-3l-3-1-2-15v-19l2-10z" fill="#049AF4"/>
<path transform="translate(740,479)" d="m0 0 51 3 2-2v3l37 3 29 2h15l20 2 27 2v9l-65-4-108-8-8-1z" fill="#C14C18"/>
<path transform="translate(589,475)" d="m0 0 20 2 3 1 7 24 6 24-1 10-4 11-1 7v13l2 12-2-2-10-34-7-17-4-14-3-17-1-16-2-2z" fill="#1F9ED0"/>
<path transform="translate(657,376)" d="m0 0 7 1 7 4 7 7 8 13 5 14 3 13 2 18v41l-3 23-4 17-8 18-7 9-4 4-5-1-1-9 5-37 1-14v-25l-3-29-6-29-6-21-1-13 1-3zm7 9-3 3v8l8 40 3 29v46l-1 16v13l5 1 6-7 6-16 4-20 1-11v-40l-2-17-4-17-5-12-7-10-6-5z" fill="#CBD7E9"/>
<path transform="translate(746,738)" d="m0 0 1 3 4 2 10 36 14 48 8 24 5 6 10 2 28 2h25l17-1h19l-4 5-9 2-22 1h-41l-19-1-9-3-1-4h-2l-4-8-10-31-9-31-9-34-2-9z" fill="#DCE4F7"/>
<path transform="translate(1111,1250)" d="m0 0 4 1-4 7-11 9-11 5-12 3-22 3-10 1h-10v-1h9l-7-12v-6l3-2z" fill="#550B16"/>
<path transform="translate(649,910)" d="m0 0 3 1 4 8 8 28 5 19 10 33 6 17 3 5v2l4 2 7 2 23 1h15l57-4 5-3 2-3-1 5-6 4-2 3-13 2-27 1h-21v2h-35l-8-2v-2l-4-2-5-7-11-36-7-25-12-48z" fill="#E0E5F7"/>
<path transform="translate(989,588)" d="m0 0 2 2 2 20v7l-3 13-8 16-5 5h-2l-2 4-10 4h-9l-8-2-3-1v-2l-4-1-5-3-10-10-11-9-8-10-2-7 3 1 6 8 6 7 13 9 11 5 6 1h10l8-3 7-6 4-9 1-4 1-15 8-16z" fill="#1E9DD1"/>
<path transform="translate(1049,892)" d="m0 0 5 3 7 22 6 21 9 29 10 29 4 8 5 5 13 1h29l37-3 9-3-1 3-6 4-6 1v2l-18 2-17 1h-41l-7-3-2-2-4-10-6-16-14-44-11-38-1-4z" fill="#E0E5F7"/>
<path transform="translate(622,342)" d="m0 0h27l17 5 16 8 14 11 7 7-2 1-2-1 4 7 3 3 11 23 10 25 5 21 2 13v28l-3 19-5 15-6 8-4-2-3-5-4-16h-3l-4 11-8 24-3 7h-2l3-10 8-28 5-24 2-4 4 1 4 29 3 9h4l5-10 3-13 2-19v-12l-2-17-5-21-6-14-13-22-8-14-10-14-11-11-12-8-7-3-11-3v-2h-31v-1z" fill="#787984"/>
<path transform="translate(967,450)" d="m0 0 4 1 5 21 3 22 3 40 3 9 4-1 3-3h2l1-7h1l-1 8-5 12-5 5h-3l-4-9-3-17-3-1-17 51h-3v-9l6-16 6-24 2-12 2-33v-11l-1-21z" fill="#77839C"/>
<path transform="translate(444,520)" d="m0 0h1l4 18 10 40 5 16 12 31 9 17 4 5v2l3 1 5 5 5 3 16 6 19 8 3 3-14 6-4 2-12-5-11-7-8-9-6-5-7-11-8-16-4-11-4-15-11-42-6-27-1-7z" fill="#0185FB"/>
<path transform="translate(397,545)" d="m0 0 2 4-1 32v44l3 21 1 9h-2l2 10 3 5v2l4 2 1 3h2v2l-2 1v2h-4l-1-2-11-6-9-8-6-10-4-9-2-15v-7l2 3 7 19 5 7h2v-41l4-44 2-17z" fill="#CD5520"/>
<path transform="translate(419,545)" d="m0 0h1l1 7 2 28 1 12v26l1 8v17l4 28 4 11 7 8v1l-8-1-9-4-8-7-8-11-6-17v-5l2 3 4 8 7 11 4 1v-10l-2-15-1-18v-27l2-43z" fill="#219901"/>
<path transform="translate(693,1068)" d="m0 0h1l2 6 5 7 4 15 9 34 8 29 11 33 3 4v3l12 1 60-5 32-3 8-2-1 3-7 3-14 2-28 3-29 2h-27l-6-2-7-1-3-4-8-25-9-32-11-42-5-22z" fill="#E0E5F7"/>
<path transform="translate(930,1047)" d="m0 0 13 1v1l-47 1-40 3h-5l-3 6v9l17 63 11 38 1 10-3-3-5-12-4-5-7-20-5-11-7-25-7-26-2-10 1-9 10-6 16-2 30-2z" fill="#FDAD70"/>
<path transform="translate(442,524)" d="m0 0 3 4 1 12h-1v18l4 40 5 35 4 19 7 21 2 4v8l-4 1-10-5-5-3h-2l-1 3-6-10-6-14-2-7v-7l5 5 3 7 7 13 7 8 4 1-4-14-5-21-3-21-3-31-2-25v-36z" fill="#68021A"/>
<path transform="translate(915,399)" d="m0 0h10l12 6 10 10 7 11 7 18 4 19 1 7v42l-4 27-7 21-8 16-6 9-8 6-5 1-2-6 3-12 4-14 4-20 2-18v-20l-1-16-5-25-7-21-11-23-4-9v-6zm8 6-4 2-1 3 2 9 10 25 6 21 3 15 2 21v19l-2 21-3 15-4 17-1 9 1 3 5-1 7-7 8-14 7-21 3-14 2-18v-33l-3-22-5-17-8-15-11-12-10-6z" fill="#A5ABC4"/>
<path transform="translate(1006,742)" d="m0 0 2 1v3l8 29 9 30 14 41 5 8 1 3 20 4 9 1 6 3h10l3-2h13l3-1 21-4 5-1-5 6-3 2-21 2h-42l-16-1-8-3-2-2-3-7-7-19-14-43-8-27-3-12v-9z" fill="#E0E5F7"/>
<path transform="translate(971,1052)" d="m0 0 6 4 15 53 12 38 7 19v5l10 5 21-1 60-5 10-2v-9h1v10l-6 4-23 3-33 3h-31l-7-4h-5l-4-6-12-36-14-47-7-27z" fill="#DFE5F7"/>
<path transform="translate(491,698)" d="m0 0 4 1 2 3 1 10v13l1-9h1l2 26 5 27v7l-2-3v-2l-4 1-3 3-3-3-4-8-1 4-3-1-1-2-1-11 1-3h-2l-1-4v-8l3-30v-7l-1-3z" fill="#660310"/>
<path transform="translate(556,967)" d="m0 0 2 4 4 18 2 6 4 17 4 14 4 18 4 15 4 16v4h-10l-7-4-3-13-3-21-3-39-1-8z" fill="#C7D2E4"/>
<path transform="translate(585,403)" d="m0 0h14l4 2v2l-5 4-5 5h-3l-2 4-2 3h-2l-2 5-5 10-2 10v9l-1 5-12-1v-1l7-1 2-16 3-12 1-5-3-2-5 1v2l-6 5-4 6-4 13v8h-12l4-1 1-11 6-17 5-8 6-8 11-7 7-3z" fill="#717079"/>
<path transform="translate(923,405)" d="m0 0 6 1 9 6 7 7 7 11 5 11 4 14 3 22v33l-3 24-6 21-7 16-7 9-6 5h-3l-1-6 4-19 3-14 2-13 1-13v-19l-2-21-6-27-7-20-6-14-2-10 2-3zm3 7-1 1v9l10 31 5 22 2 15 1 15v12l-1 20-4 29 2 3 4-1 4-5 7-15 5-19 2-17v-35l-3-22-6-18-7-12-9-10-6-3z" fill="#B5C1DC"/>
<path transform="translate(1097,1046)" d="m0 0 4 1 4 11 8 27 16 50 8 21 4 7 5 2h12l50-4 19-2 5-2-2 4-5 2-23 3-38 3h-17l-9-5-6-1-6-15-12-36-11-36-6-21z" fill="#E0E5F7"/>
<path transform="translate(939,953)" d="m0 0 2 3 8 23 6 12 2 3 4 10 1 4h2v2l6 2 5 2 36-1 48-3 3-1 2-4v6l-9 7-9 2-25 2-44 1-10-1-6-3-6-12-8-24-8-26z" fill="#E06E59"/>
<path transform="translate(572,423)" d="m0 0 4 3-1 5-4 18-2 10-2 1 6 2v1h-6v3l1 2 30 2 21 1 4-2-11-2 1-2 36 5v-5h1l1 13-17-1-75-8-6-2 3-2 6-2-7-2-9-1v-1l6-1v-7l4-13 7-9 4-2v-2z" fill="#E46E57"/>
<path transform="translate(1076,560)" d="m0 0 3 3 5 8 6 16 12 37 7 24 3 22-1 11-3 9-7 8-4 1-10-4 3-3 4-1 2-5 3-5h2l2-14-1-12-3-16-4-15v-3l-2-1-3-13-3-9-1-5-7-24z" fill="#2FA4D2"/>
<path transform="translate(663,451)" d="m0 0h2l1 7v39l-3 16-6 24-6 20-2 8v15l2 3h6l6-4 6-8h2v-2h2l2-5 5-8 8-16 3-7 2-1-2 9-7 17-5 9h-2l-2 4-13 14-4 4-7 2-4-2-4-13v-11l8-36h2l-1-4 1-5h2l-1-4 4-16 5-21z" fill="#8197B8"/>
<path transform="translate(635,855)" d="m0 0h9l1 2 21 2 25 1 2 1h6l1-1 51-2 2 2-8 6-23 2h-66l-10-1-8-5-3-5z" fill="#E26E58"/>
<path transform="translate(578,1107)" d="m0 0h11l-1 3h-2l-2 9 1 20 3 32 2 21 1 13 2 27-2 17-6-1-6-3-2-11v-8l2-1v5h2l2 7 4 2-6-75-2-26v-28l-3-2z" fill="#B5BFDA"/>
<path transform="translate(1e3 533)" d="m0 0h1v13h1l-1 10-8 26-9 18h-3v-3h-2l-2-3-9 1v-2h-7l-3-2 1-6 3-1 4-5 7-3 12-6 8-16 4-12z" fill="#1B4C71"/>
<path transform="translate(862,431)" d="m0 0 7 1 4 4-2 4-4 4-9 6-5 5-6 9-8 16-4 5 2 2h-7l-4-2 5-3h2l3-10v-6l1-2-1-8-2-1h-2l-3 4h-2v2l-3 1 2-4 8-11 8-8 14-7z" fill="#913105"/>
<path transform="translate(725,567)" d="m0 0h1l2 6v19l-3 14-6 11-6 9-5 5-8 5-9 2h-7l-13-4-12-6-13-10 1-2 10 7 11 5 12 3h8l10-3 6-4 6-7 5-12 1-18 7-14z" fill="#1E9DD2"/>
<path transform="translate(855,1132)" d="m0 0 2 3 7 17 3 9 4 5 5 12 2 4 9 4h13l78-7 5-2 1-5h1v8l-7 5-19 2-43 4-39 1-3-1-4-7-8-25-7-23z" fill="#E36D56"/>
<path transform="translate(396,695)" d="m0 0h3l-2 6-7 10-5 11-5 16-5 25-7 43-4 34-2 6h-2l2-26 5-46 4-25 5-25 5-14 6-8h2l2-4z" fill="#FEAF6C"/>
<path transform="translate(641,538)" d="m0 0 3 1-2 10-2 14v17l3 10 11 9v2l4 2 8 5v2l5 1 6 2h10l10-3 7-4-2 4-7 6-7 2h-12l-13-4-9-4-9-6-8-11-6-13-1-6v-13l8-16z" fill="#4C546C"/>
<path transform="translate(934,1016)" d="m0 0 2 1-8 7-29 3-20 1h-44l-8-3-2-3v-3h8l2 1h42l51-3z" fill="#C5D3E6"/>
<path transform="translate(951,574)" d="m0 0h1l1 6 1 4-1 11v6l-1 2h-2l3 6h3l5 1-1 4-6-1h-3l-8 1-18-1-5-3-1-5v-5h6l11-7 5-5 7-8z" fill="#0185FB"/>
<path transform="translate(468,469)" d="m0 0h8l-16 8-9 9-5 9h-2l-2 6-3 8-3 17v34l4 52 4 28 6 23v5l-5-5-2-3 1-3 1 2-1-8-4-21-3-25-3-40v-44l3-17 7-19-5 4-6 13-3 13-1 13v36h-1l-1-15v-26l3-21 1-4h-3l-1 2 1-5 7-10 8-7 10-5 9-3z" fill="#CF551D"/>
<path transform="translate(601,407)" d="m0 0 4 1 1 1v5l-4 5-8 7-5 4-1 2h-2l-2 5-4 9-2 16 42 5 4 2-5 3-21-1-25-2-8-2 2-4 6-1 1-5v-10l3-11 6-11 1-2h2l2-4 4-4 6-5z" fill="#923105"/>
<path transform="translate(791,899)" d="m0 0 4 4 5 12 7 27 6 21 9 29 5 15 4 9 4 4-11-1-7-20-13-43-11-42-2-8z" fill="#E0E5F7"/>
<path transform="translate(740,488)" d="m0 0h10l67 5 39 3 64 4 2 1v4h-10l-50-4-43-3-61-5-18-2z" fill="#4ABE01"/>
<path transform="translate(740,479)" d="m0 0 51 3 2-2v3l28 2 6 2-2 2-13 4-25-1-39-3-8-1z" fill="#FDAD60"/>
<path transform="translate(917,857)" d="m0 0 6 1 27 1h35l31-1-4 4h-2l-1 3-23 2h-46l-15-1-10-3-1-3-2-2z" fill="#C6D3E6"/>
<path transform="translate(983,463)" d="m0 0 4 2 5 12 3 19v14l-2 14-3 8h-4l-2-6-3-47v-14z" fill="#CBD7E9"/>
<path transform="translate(938,502)" d="m0 0h2v20l-2 20-5 23-4 11-2 11 1 4 5-1 8-6 8-13 8-18 2-1-1 7-5 13-6 11-8 8h-2l-1 3-11 7h-5l-2-4 3-16 2-10 1-3h2l-1-6 2-3 1-3h2l-1-3h2l1-8 4-22 1-20z" fill="#8197B8"/>
<path transform="translate(879,745)" d="m0 0 4 2 5 13 8 30 5 16 12 36 4 10 3 3v2l2 1h-10l-6-15-13-41-14-50z" fill="#E0E5F7"/>
<path transform="translate(481,653)" d="m0 0 4 2 4 5 6 5 4 5 11 7 12 5-16 16-10-8-8-13-6-16z" fill="#3E040D"/>
<path transform="translate(680,564)" d="m0 0 2 1v7l2 2-2 10 2 6-2 1-2 6-17 3h-8l-7-9 3-1 7-2 3-1 2-4 13-14z" fill="#209ECF"/>
<path transform="translate(879,448)" d="m0 0 5 2 1 3-5 4-8 10-9 15-4 3-7-1-3-3 1-9 1-4h2v-2h2l1-4 3-3h2v-2h3v-2l6-4z" fill="#1A162E"/>
<path transform="translate(1111,1250)" d="m0 0 4 1-4 7-11 9-8 4-2-1v-2l-9-3-9-2-7-3-1-4 10-2z" fill="#6C0C18"/>
<path transform="translate(1130,1163)" d="m0 0 5 5 5 3h30l34-3 19-3 4-1-1 5-3 3-6 2h-7l-6 1-27 2-17 1h-12l-11-3-5-6z" fill="#0185F9"/>
<path transform="translate(718,444)" d="m0 0h3l4 8 3 15v28l-3 11h-4l-2-5-1-9-1-23v-22z" fill="#B5C1DC"/>
<path transform="translate(454,503)" d="m0 0h1l6 39 13 52 9 29 3 9-1 3-8-16-8-24-13-52-3-14-1-8v-16z" fill="#B4C1DC"/>
<path transform="translate(361,865)" d="m0 0h1l-1 15-9 81-2 19-3 18-2-4 1-18 3-32 7-76 2-1v2h2z" fill="#E46E57"/>
<path transform="translate(730,452)" d="m0 0h2l2 13v28l-3 19-5 15-6 8-4-2-3-5-4-16h-3l-4 11-8 24-3 7h-2l3-10 8-28 5-24 2-4 4 1 4 29 3 9h4l5-10 3-13 2-19v-12z" fill="#717079"/>
<path transform="translate(545,417)" d="m0 0 3 1-2 14-3 16-1 10h-11l-5-1 1-10 7-21 5-5z" fill="#534B47"/>
<path transform="translate(841,1197)" d="m0 0 2 1-5 5-6 2-12 2-15 1-2 1-30 2-12 1h-21l-7-2-5-5-1-5 6 5 3 1h33l33-3 27-3z" fill="#028AF9"/>
<path transform="translate(1e3 1172)" d="m0 0 4 5 4 4 4 1h27l34-3 22-3 8-1-1 4-5 3-22 3-27 2-18 1h-15l-10-4-4-6z" fill="#018DFA"/>
<path transform="translate(974,1184)" d="m0 0h4l-1 3-12 3-1 1-16 2-31 2-3 1-17 1h-15l-6-3-1-3 41-1 43-4z" fill="#697896"/>
<path transform="translate(913,861)" d="m0 0 7 3 5 1 15 1h46l23-2 3-1v5l-5 3-4 1h-59l-21-2-8-5z" fill="#0388F9"/>
<path transform="translate(1035,853)" d="m0 0 8 2 10 4 12 2 9 1 6 3h10l3-2h13l3-1 21-4 5-1-5 6-3 2-21 2h-42l-16-1-8-3-2-2z" fill="#BED4EA"/>
<path transform="translate(628,1253)" d="m0 0h9l11 16 2 3h-5l-2-4-5 1-13-4-17-2-12-5-4-2 25-2z" fill="#41020A"/>
<path transform="translate(833,453)" d="m0 0 3 2 2 5v6l-1 5-2 8-4 4-5 3-9-1-1-5 7-17 4-2v-2h2l2-4z" fill="#717079"/>
<path transform="translate(861,1155)" d="m0 0 2 4 9 27 5 8 5 2h15l17-1 3-1 31-2 16-2 5-2 8-2 4-2-3 5-6 4-12 2-21 2-40 3h-12l-9-2-7-6-9-27z" fill="#0789F4"/>
<path transform="translate(1e3 1156)" d="m0 0 3 1v2h2l6 9v3l10 5 21-1 60-5 10-2v-9h1v10l-6 4-23 3-33 3h-31l-7-4h-5l-4-6-4-11z" fill="#C2CEE4"/>
<path transform="translate(717,434)" d="m0 0 5 4 5 13 3 17v23l-2 14-4 9-4 1-3-10-2-28-2-36 2-5zm1 10-1 3v22l1 23 2 12 2 3 3-1 3-11v-28l-3-15-4-8z" fill="#A5ABC4"/>
<path transform="translate(951,998)" d="m0 0h2l6 16 2 5 6 2 15 1 39-1 25-2 9-2 5-2-2 6h-3v2l-16 2h-20l-8 1h-16l-5 1-18-1-8-2-5-4-4-8-4-12z" fill="#028EF9"/>
<path transform="translate(1035,857)" d="m0 0 7 6 6 2 16 1h42l21-2 4-2-1 6-3 3-18 1h-16l-14-1-14 1-12-1-1-1-9-2-7-7z" fill="#049CF6"/>
<path transform="translate(467,619)" d="m0 0 2 2 7 14 6 9 5 4 1 4 4 2 12 11 8 7 8 4 9 2-4 4-3 1-12-5-11-7-8-9-6-5-7-11-8-16-3-8z" fill="#0F50C4"/>
<path transform="translate(637,861)" d="m0 0 9 5 10 1h66l23-2 3-2h3l-1 5-5 3-10 1h-69l-4-1h-9l-13-4-3-4z" fill="#0184FA"/>
<path transform="translate(846,1190)" d="m0 0h2l-1 3-7 3-14 2-28 3-29 2h-27l-6-2-7-1-2-4 8 1 4 2 9 1 60-5 32-3z" fill="#C3CFE4"/>
<path transform="translate(973,504)" d="m0 0 3 1 2 11 2 23 3 11 2 1 5-5 4-10 2-4-1 8-5 12-5 5h-3l-4-9-3-17-3-1-12 36-2-2 6-20 5-25 2-13z" fill="#717079"/>
<path transform="translate(1082,1008)" d="m0 0 5 5 7 3h41l30-2 13-3 1 3-1 3-8 3-62 2-16-2-7-5-3-5z" fill="#049CF6"/>
<path transform="translate(979,454)" d="m0 0 5 1 6 10 4 14 2 12v26l-3 15-5 8-4-3-2-11-2-31-2-21v-19zm4 9-2 2v14l3 47 2 6h4l3-8 2-14v-14l-3-19-5-12z" fill="#A5ABC4"/>
<path transform="translate(874,502)" d="m0 0h4l4 13 4 15 7 22v12l-1 15h-1l-4-22-7-23-5-20z" fill="#0186FC"/>
<path transform="translate(634,581)" d="m0 0 2 2 5 10 3 3 8 3h2v2l4 2 8 5v2l5 1 6 2h10l10-3 7-4-2 4-7 6-7 2h-12l-13-4-9-4-9-6-8-11-3-6z" fill="#1B4B70"/>
<path transform="translate(388,493)" d="m0 0 1 3v11l-5 48-3 37v27l1 1 2-22h1v16l-1 21h-2l-2-5-1-6v-41l3-41 1-28-2 3 1-10 4-13z" fill="#E46E57"/>
<path transform="translate(824,1020)" d="m0 0 3 3v2l8 2h44l31-2 18-2 4-2-2 5-7 3h-9l-7 1-20 1-38 1-16-1-6-4-3-4z" fill="#028BF9"/>
<path transform="translate(1127,1150)" d="m0 0h2l7 8 1 3 4 2 5 2h12l50-4 19-2 5-2-2 4-5 2-23 3-38 3h-17l-9-5-6-1z" fill="#C4D0E5"/>
<path transform="translate(795,1027)" d="m0 0v3l-2 3-9 2h-7l-5 1h-10l-35 2h-30l-11-3-3-3 1-2 6 3 6 1 35 1v-2l48-2 13-2z" fill="#028FF9"/>
<path transform="translate(781,863)" d="m0 0 11 3 19 1h41l22-1 9-2 3-1-2 6-3 2h-67l-9 1-5-1-13-2-6-4z" fill="#0292F8"/>
<path transform="translate(374,763)" d="m0 0h1l-1 13-5 36-6 50-3 7h-2l-1-2v-11l7-71 1-10 2-1v9l-5 46-1 15-1 2h2l3-22 3-24z" fill="#E46E57"/>
<path transform="translate(710,574)" d="m0 0h3l1 3-6 11h-2l-2 4-5 5-5 3h-7l-2-3 2-5-2-1v-3l7-2v-2l13-7z" fill="#0186FC"/>
<path transform="translate(414,458)" d="m0 0h6l-5 4-4 5-5 5-8 14-7 23-3 16h-1v-11l1-14v-6l-1-2 8-16 9-11z" fill="#FEAE5E"/>
<path transform="translate(983,463)" d="m0 0 4 2 5 12 3 19v14l-2 14-3 8h-4l-2-6-3-47v-14zm1 11v19l1 22 2 7h4l2-7v-25l-3-12-2-4z" fill="#B5C1DC"/>
<path transform="translate(733,520)" d="m0 0 3 2v11l-5 20-4 9-2-1v-2l-2-1-3-1-2 4-6 5-2-1 6-9 7-7 2-10 3-6 3-11z" fill="#1B4C71"/>
<path transform="translate(605,477)" d="m0 0 7 1 7 24 6 24-1 10-3 8h-1l-1-15-5-21-7-26z" fill="#0186FC"/>
<path transform="translate(451,482)" d="m0 0h2l-2 4-5 9h-2l-2 6-3 8-3 17v34l4 52 4 28 6 23v5l-5-5-2-3 1-3 1 2-1-8-4-21-3-25-3-40v-44l3-17 4-11 3-3z" fill="#CD531D"/>
<path transform="translate(567,463)" d="m0 0h18l35 4 4 2-5 3-21-1-25-2-8-2z" fill="#C44D19"/>
<path transform="translate(951,574)" d="m0 0h1v10l-7 12-3 1v2l-8 3-8 7h-7v-9h6l11-7 5-5 7-8z" fill="#209ECF"/>
<path transform="translate(681,575)" d="m0 0h2v5l-1 4 2 6-2 1-2 6-17 3h-8l-1-3 6-2 3-3 11-9 2-3h2v-2z" fill="#0186FB"/>
<path transform="translate(443,505)" d="m0 0h2l4 18 6 29 9 34 7 23-1 3-8-21-4-14-7-27-5-20-1-5-2 1z" fill="#219ACA"/>
<path transform="translate(853,496)" d="m0 0 67 4 2 1v4h-10l-63-5z" fill="#45B901"/>
<path transform="translate(886,490)" d="m0 0 26 1 9 1v9l-32-2-4-2 4-3v-2z" fill="#FDAE60"/>
<path transform="translate(619,433)" d="m0 0h5l1 6-9 16-1 3h-2l-1 2-4-1-1-5 3-10 5-8z" fill="#93350B"/>
<path transform="translate(1182 1e3)" d="m0 0v3l-6 4-6 1v2l-18 2-17 1h-41l-7-3-2-4 3 1v2l7 2h33l3-2h14l12-2 14-3 10-3z" fill="#B4D2ED"/>
<path transform="translate(612,465)" d="m0 0 37 5v-5h1l1 13-17-1-15-2 1-2 7-1 1-3-16-2z" fill="#FAAE66"/>
<path transform="translate(1226,1164)" d="m0 0 1 4-4 4-6 2h-7l-6 1-27 2-17 1h-12l-5-1v-1l41-3h9l12-2 15-2 4-1z" fill="#049CF6"/>
<path transform="translate(889,457)" d="m0 0h5l-2 4-5 5-6 8-5 10h-5l1-9 5-10 8-7z" fill="#933C16"/>
<path transform="translate(576,1046)" d="m0 0h1l5 22 2 7v4h-10l-7-4-1-4 8 1 1-1v-21z" fill="#A4A5BC"/>
<path transform="translate(1133,857)" d="m0 0 2 1-8 7-21 2h-42v-1l26-1 3-2h13l3-1 21-4z" fill="#A7CEEC"/>
<path transform="translate(1165,1008)" d="m0 0h6l-3 2-15 3-16 1h-6l-2 2h-11l-2-2-19-3v-1h40z" fill="#E0E5F7"/>
<path transform="translate(720,458)" d="m0 0 4 1 2 6 1 10v10l-1 7-4 2-1-1-1-8z" fill="#CBD7E9"/>
<path transform="translate(951,998)" d="m0 0h2l6 16 2 5 6 2 15 1h26v1h-8v2l-10 2-18-1-8-2-5-4-4-8-4-12z" fill="#047EF0"/>
<path transform="translate(1053,858)" d="m0 0 26 2h39l-4 2-7 1-5 1h-10l-1 2h-11l-6-3-9-1-12-2z" fill="#E1E6F8"/>
<path transform="translate(594,473)" d="m0 0h11l39 4 7 2v2h-12l-46-5z" fill="#43B801"/>
<path transform="translate(571,1026)" d="m0 0h1l4 18v27l-3 2-7-2-2-12 4 2 3 5h1v-14l-1-14z" fill="#B1BFDA"/>
<path transform="translate(1082,1008)" d="m0 0 5 5 7 3h41l30-2 12-2-1 3-21 3-29 1h-32l-6-2-5-5z" fill="#0187FB"/>
<path transform="translate(1109,676)" d="m0 0h1v9l-4 8-7 6-11-3v-3l10-5 6-4 4-5z" fill="#049AF6"/>
<path transform="translate(1079,996)" d="m0 0h2l5 8 6 3 5 3 24 4-3 2h-23l-7-3-6-8z" fill="#CBD7E9"/>
<path transform="translate(468,469)" d="m0 0h8l-16 8-7 6-4 2-4 5-3 3 1-5 1-3-2-1 7-8 1-2 12-4z" fill="#DF6220"/>
<path transform="translate(388,493)" d="m0 0 1 3v11l-4 37-3-1 1-29-2 3 1-10 4-13z" fill="#E5765C"/>
<path transform="translate(497,656)" d="m0 0 9 3 26 11 8 4-3 2-4 1-12-7-10-2-2-1v-2l-5-2-7-6z" fill="#049CF6"/>
<path transform="translate(425,687)" d="m0 0 8 4 7 3-1 2-10 4-8 5h-3l2-10 3-6h2z" fill="#913105"/>
<path transform="translate(573,1079)" d="m0 0h12l5 20-6-2-10-13z" fill="#510410"/>
<path transform="translate(795,1027)" d="m0 0v3l-2 3-9 2h-7l-5 1-23-1-18-1v-1l48-2 13-2z" fill="#219BFA"/>
<path transform="translate(1011,863)" d="m0 0h1v5l-5 3-4 1h-59l-21-2-1-2 17 1h46l19-1 7-2z" fill="#049CF6"/>
<path transform="translate(799,469)" d="m0 0h5l1 1v12l1 2h-14l2-12z" fill="#231F34"/>
<path transform="translate(686,1025)" d="m0 0 13 4 9 2 1 2 22 1v1h-35l-8-2v-2l-4-2-2-3z" fill="#AED0EB"/>
<path transform="translate(1035,857)" d="m0 0 7 6 6 2 16 1h42l21-2 4-2v3l-5 3-51 1-24-1-10-2-6-7z" fill="#0186FB"/>
<path transform="translate(580,1247)" d="m0 0 8 4 5 2 21-1 19-2h3v2h2l-1 2h-9l-23 2-17-1-6-3z" fill="#6E7484"/>
<path transform="translate(993,474)" d="m0 0 3 1 2 11v34l-3 16-1 3h-2l2-10 1-12v-26l-2-12z" fill="#7C8BA7"/>
<path transform="translate(875,489)" d="m0 0h7l8 2-1 5-4 2h-14l-14-2v-1l13-1 8-3z" fill="#DD684E"/>
<path transform="translate(879,448)" d="m0 0 5 2 1 3-5 4-7 9h-2v-10h-2v-2l-2-1 8-4z" fill="#3F020A"/>
<path transform="translate(750,863)" d="m0 0 1 3-3 4-11 2h-71l-2-2 73-1 10-2z" fill="#049CF6"/>
<path transform="translate(853,496)" d="m0 0 36 2-1 4h-13l-26-2z" fill="#0F8B03"/>
<path transform="translate(572,468)" d="m0 0 41 3 9-1 2-2 5 1-2 4-7 1-4 1-38-4-6-1z" fill="#DA664A"/>
<path transform="translate(400,655)" d="m0 0h3l5 13 8 11 3 4-6 1h-6l-1-2h4v-2l-2-1h4v-2h-2l-7-8-3-7z" fill="#A0360A"/>
<path transform="translate(715,590)" d="m0 0h1v15l-5 12-7 8-4 3-2-1 5-5 6-12 3-9v-7z" fill="#1B4C71"/>
<path transform="translate(408,491)" d="m0 0 1 3-4 9-6 12-4 13-3 16-2 15h-1v-10l4-25 6-18z" fill="#E46F56"/>
<path transform="translate(823,486)" d="m0 0h7l6 2 2 5 4 2-25-1-5-1 3-2 10-3z" fill="#E1621D"/>
<path transform="translate(978,610)" d="m0 0h1v13l-4 11-6 7-5 3-2-1 7-8 5-12 1-9z" fill="#1B4C71"/>
<path transform="translate(1e3 510)" d="m0 0h3l1 3-1 20-2 13h-2l-1 2v-21l1-8z" fill="#454749"/>
<path transform="translate(467,619)" d="m0 0 2 2 7 14 6 9 5 4v6l2 1h-5l-6-9-8-16-3-8z" fill="#1E4B7A"/>
<path transform="translate(1e3 1156)" d="m0 0 3 1v2h2l6 9v3l10 5 7 1v1h-11l-4-3h-5l-4-6-4-11z" fill="#CBD7E9"/>
<path transform="translate(1182 1e3)" d="m0 0v3l-6 4-6 1v2l-5 1h-11l1-3 16-4 10-3z" fill="#BAD3EA"/>
<path transform="translate(628,1323)" d="m0 0h11l-4 2-42 5-16 1v-1l7-2 17-1 8-2 17-1z" fill="#74484D"/>
<path transform="translate(451,482)" d="m0 0h2l-2 4-5 9h-2l-2 6-3 8-1 4h-2l1-9 4-11 3-3z" fill="#CE5521"/>
<path transform="translate(570,1113)" d="m0 0 1 4v42h-1l-2-10-1-12v-16l2-7z" fill="#AF352C"/>
<path transform="translate(1058,1015)" d="m0 0 2 1-2 5-21 2h-11l-5-1v-1l25-2 9-2z" fill="#0986F2"/>
<path transform="translate(594,473)" d="m0 0h11l15 2 2 2-1 1-20-1-8-1z" fill="#259A02"/>
<path transform="translate(800,1018)" d="m0 0 1 4-7 5-2 3-13 2h-10v-1l9-2 4-1 3-2 11-3 3-2z" fill="#B0D1EE"/>
<path transform="translate(458,485)" d="m0 0h1v7l-1 1-1 14-2 3-1-6-2 1v-8l4-11z" fill="#69C2FE"/>
<path transform="translate(884,860)" d="m0 0 3 1-6 5-7 1h-15v-1h8v-2l10-3z" fill="#A9CFEE"/>
<path transform="translate(398,692)" d="m0 0h5l-3 7-9 13-5 11-5 15-1-4 6-17 6-11 6-9 1-2-3-1z" fill="#E46E57"/>
<path transform="translate(473,613)" d="m0 0 3 1 6 14-1 7-3-4-6-13z" fill="#45AFD7"/>
<path transform="translate(525,459)" d="m0 0h21l15 2v2l-24-1-12-2z" fill="#FEB071"/>
<path transform="translate(431,502)" d="m0 0h1l-1 8-2 18v36h-1l-1-15v-26l2-17z" fill="#CD531D"/>
<path transform="translate(876,1193)" d="m0 0 7 1h34l-3 2-17 1h-15l-6-3z" fill="#1E4F9E"/>
<path transform="translate(951,998)" d="m0 0h2l6 16 2 5 6 2 10 1v1l-9 1-2 1-6-4-4-7-5-14z" fill="#1685E7"/>
<path transform="translate(564,461)" d="m0 0 9 1v1h-6v3l1 2h4l-1 2-12-1-6-2 3-2 8-2z" fill="#E57256"/>
<path transform="translate(782,860)" d="m0 0h7l6 2 1 4h9v1h-13l-9-3z" fill="#ABD0F0"/>
<path transform="translate(1035,857)" d="m0 0 7 6 6 2 27 2v1h-24l-10-2-6-7z" fill="#0189FA"/>
<path transform="translate(359,852)" d="m0 0 4 4-1 9-2 4h-2l-1-2v-10z" fill="#EB7F57"/>
<path transform="translate(1051,1021)" d="m0 0h4v2l-16 2h-19l4-2z" fill="#049CF6"/>
<path transform="translate(675,859)" d="m0 0h52v1h-27l-1 2h-7l-1-1-16-1z" fill="#FFAD5A"/>
<path transform="translate(823,486)" d="m0 0h7l2 2-4 3h-3v3h-8l-5-1 3-2 10-3z" fill="#E46F56"/>
<path transform="translate(615,467)" d="m0 0 9 1-2 3-9 1-15-1v-1l14-2z" fill="#E1621E"/>
<path transform="translate(1085,1010)" d="m0 0 3 1v2l7 2 40 1v1h-41l-7-3z" fill="#64C0F9"/>
<path transform="translate(798,1304)" d="m0 0h18v1l-35 4h-8v-1l23-3z" fill="#73626B"/>
<path transform="translate(581,1068)" d="m0 0 2 3 1 8h-10l-2-2 6-2z" fill="#8A8CA4"/>
<path transform="translate(1108,682)" d="m0 0 2 1-2 7-7 8-4 1-2-1 1-3 6-3 5-6z" fill="#238CEB"/>
<path transform="translate(567,463)" d="m0 0h7l4 2 1 2 4 2h-10l-8-2z" fill="#E1621D"/>
<path transform="translate(683,1030)" d="m0 0 7 3 6 1v2h16v2h-15l-11-3-3-3z" fill="#0294F8"/>
<path transform="translate(875,489)" d="m0 0h7l6 2-4 4h-9l-2-2 5-2z" fill="#E26F32"/>
<path transform="translate(748,863)" d="m0 0h2l-2 4-3 2-10 1v-2h-13v-1l23-2z" fill="#2581DD"/>
<path transform="translate(410,674)" d="m0 0 3 1 6 8-6 1h-6l-1-2h4v-2l-2-1h4v-2h-2z" fill="#931A0F"/>
<path transform="translate(795,1027)" d="m0 0v3l-2 3-9 2h-6l-1-2h7v-2l9-3z" fill="#0394F7"/>
<path transform="translate(631,558)" d="m0 0h1l2 26-3-4-1-6v-13z" fill="#4F4641"/>
<path transform="translate(727,1196)" d="m0 0 8 1 4 2 8 1 1 2h-10l-9-2z" fill="#CBD7E9"/>
<path transform="translate(444,733)" d="m0 0 1 3-3 20h-2v-12l2-9z" fill="#057601"/>
<path transform="translate(572,468)" d="m0 0 26 2 3 2h-15l-14-2z" fill="#E06A4C"/>
<path transform="translate(1066,1255)" d="m0 0h7v4 3l-9-2v-4z" fill="#680118"/>
<path transform="translate(963,997)" d="m0 0 3 4 6 12-6-2-2-1z" fill="#FEAD5A"/>
<path transform="translate(637,861)" d="m0 0 9 5 6 2 10 2v1h-9l-13-4-3-4z" fill="#028EF9"/>
<path transform="translate(841,396)" d="m0 0 2 1-17 17-2-1 12-13z" fill="#828BA2"/>
<path transform="translate(473,698)" d="m0 0 9 1v2l-7 3-3-1v-2l-2-2z" fill="#3F0610"/>
<path transform="translate(326,1083)" d="m0 0 2 3-1 7-2 1-2 4 1-14z" fill="#DD7645"/>
<path transform="translate(1036,1020)" d="m0 0h6l-1 2-4 1h-11l-5-1v-1z" fill="#0574EC"/>
<path transform="translate(1112,1159)" d="m0 0h1v10l-6 4h-6l2-3 9-2z" fill="#C9D5E8"/>
<path transform="translate(467,1127)" d="m0 0h1l1 5v10h-3v-10z" fill="#6A0718"/>
<path transform="translate(423,602)" d="m0 0h1l2 15v5l-2-1-1-9z" fill="#108C03"/>
<path transform="translate(913,588)" d="m0 0h2l1 18-2-2-1-3z" fill="#51566D"/>
<path transform="translate(853,496)" d="m0 0 7 1v2l2 2-13-1z" fill="#219902"/>
<path transform="translate(624,468)" d="m0 0 5 1-2 4-7 1v-3z" fill="#E46E57"/>
<path transform="translate(580,1247)" d="m0 0 8 4 5 2v1h-8l-5-5z" fill="#DD6C55"/>
<path transform="translate(473,613)" d="m0 0 3 1v10l2 1-2 2-4-9z" fill="#2EA5D1"/>
<path transform="translate(879,498)" d="m0 0h10l-1 4-7-1v-2z" fill="#279F01"/>
<path transform="translate(468,469)" d="m0 0h8l-4 2-10 4v-4-1z" fill="#E46B36"/>
<path transform="translate(409,461)" d="m0 0 2 1-12 12-2-1 7-8z" fill="#F8BA82"/>
<path transform="translate(434,692)" d="m0 0 6 2-1 2-8 1v-4z" fill="#5D0F19"/>
<path transform="translate(330,1022)" d="m0 0h3l-1 13h-2z" fill="#DA6E41"/>
<path transform="translate(387,691)" d="m0 0 2 1-12 12v-3l5-6z" fill="#ECA282"/>
<path transform="translate(577,1080)" d="m0 0h8l2 7h-2l-4-4z" fill="#3D030C"/>
</svg>
