<?xml version="1.0" encoding="UTF-8"?>
<svg version="1.1" viewBox="0 0 1606 2000" width="1280" height="1280" xmlns="http://www.w3.org/2000/svg">
<path transform="translate(354,250)" d="m0 0h24l10 3 6 5 34 1 16 3 15 5 16 8 11 8 12 11 11 13 8 13 6 14 5 18 1 9 1 206 12 16 9 11 29 38 11 14 12 15 10 13 12 15 7 11 4 8 1 7v35l-1 17-1 5-1 35-3 22-4 9-4 6-9 10-7 7-11 6-14 1-3 4-24 7-15 4-11 3h-4l2 34 1 8 4 78 1 17 2 77v48l-2 43-4 49-4 55-2 25-3 41-2 11-1 21-1 6-2 36-2 25v37l3 10 6 10 21 21 11 9 9 8 13 10 14 11 13 8 10 6 9 5 2 2v10l-7 8-5 4-13 5-15 2-16-1-15-4-13-6-13-8-6-5v-2l-4-2-10-7-14-7-16-6-14-7-9-7-3-5v-20l1-10 4-15 2-12 4-2-3-28-5-32-4-28-2-11-2-10-1-11-4-12-9-39-4-23-2-13-2-14v-34l2-11 3-16 8-30-1-13-6-28-5-27-2-8-6-30-2-9-6-31-4 21-4 28-2 13-5 30-4 32-2 12-4 31-8 48-4 21-7 40-2 8-6 32-5 24-8 40-4 24-2 9-6 32-4 20-3 23v21l2 13 4 40 3 24 3 19v24l-5 19-6 12-8 7-2 1h-14l-9-4-8-6-8-9-8-16-3-15v-19l5-34 1-11 2-38 1-4 1-17-1-21-7-81-1-22-1-1-2-34-1-9-1-28v-63l1-17 3-23 5-21 3-10 3-9 6-16 2-6v-12l-4-42-1-6-2-33-1-6-2-33-1-9-3-66v-36l3-39 2-10 3-16 6-23 3-10v-2l-3-1 3-10 8-20 5-10 12-28 5-11 2-6 2-30h-32v-106l-5-2-14-12-13-10-16-13-10-8-16-13-14-11-15-13-11-9-15-13-17-16-6-5-9-11-7-10-4-9v-13l5-9 5-6h2l2-4 15-15 8-7 14-13 8-7 10-9 12-12 8-7 9-9 8-7 14-13h2l1-3 10-8 1-2h2l2-4 9-11 11-18 8-7 13-6 21-7 30-8zm-66 106-8 9-9 13-12 16-8 10-28 38-3 4 2 4 11 9 20 15 13 10 18 14 4 3h2v-145zm234 330-2 5v76l1 11 1 25 1 15 1 5 2-1 7-20 6-20 8-24 4-5 9-4 9-3 1-2-3-9-7-8-12-13-10-10-8-10-7-8z" fill="#80F1E4"/>
<path transform="translate(1218,325)" d="m0 0h15l16 9 6 5 3 5v643l-6 8-13 8-11 6-17 10-11 6-24 14-14 8-19 11-15 9-11 6-21 12-24 14-21 12-19 11-15 9-11 6-19 11-14 8-19 11-22 13-10 6-11 6-21 12-20 12-27 15-15 9-2 1h-14l-17-10-6-6-3-9v-375l-41 4-22 1-13-7-15-9-8-5-3-5 2-7 8-8 2-3h2v-2h2l2-4 11-11 7-8 15-16 2-3h2l2-4 12-12 7-8 9-9 7-8 8-9h2v-125l2-6 6-7 15-9 11-6 21-12 6-4 11-6 21-12 10-6 24-14 10-6 11-6 21-12 10-6 11-6 17-10 14-8 24-14 21-12 20-12 11-6 42-24 17-10 21-12 20-12 11-6zm-173 249-10 5-5 4-7 8-7 11-4 8-3 14 1 9 2 8 4 4 5 2h9l9-4 9-7 8-9 6-11 5-17v-10l-3-9-6-5-2-1zm18 68-10 3-10 6-11 6-9 6-12 11-7 9-6 9-8 16-4 13-2 9v18l6 2h19l14-4 17-8 13-9 13-11 12-12 13-17 4-5v-16l-2-9-5-9-7-6-6-2zm88 166-26 15-24 14-21 12-19 11-13 8-11 6-14 8-15 9-11 6-21 12-11 7-11 6-21 12-9 6-5 6-2 4v23l4 4 6-1 14-8 19-11 17-10 23-13 24-14 22-13 6-3 22-13 17-10 11-6 14-8 13-8 11-6 12-7 7-8 2-6v-19l-3-5z" fill="#2D4751"/>
<path transform="translate(616,734)" d="m0 0 5 1 6 5-1 9-16 45-6 8-8 6-11 5-23 7-11 7-8 9-5 10v9l7 4 13 4 24 4-3 5-24 7-15 4-11 3h-4l2 34 1 8 4 78 1 17 2 77v48l-2 43-4 49-4 55-2 25-3 41-2 11-1 21-1 6-2 36-2 25v37l3 10 6 10 21 21 11 9 9 8 13 10 14 11 13 8 10 6 9 5 2 2v10l-7 8-5 4-13 5-15 2-16-1-15-4-13-6-13-8-6-5v-2l-4-2-10-7-14-7-16-6-14-7-9-7-3-5v-20l1-10 4-15 2-12 4-2-3-28-5-32-4-28-2-11-2-10-1-11-4-12-9-39-4-23-2-13-2-14v-34l2-11 3-16 8-30-1-13-6-28-5-27-2-8-6-30-2-9-6-31-4 21-4 28-2 13-5 30-4 32-2 12-4 31-8 48-4 21-7 40-2 8-6 32-5 24-8 40-4 24-2 9-6 32-4 20-3 23v21l2 13 4 40 3 24 3 19v24l-5 19-6 12-8 7-2 1h-14l-9-4-8-6-8-9-8-16-3-15v-19l5-34 1-11 2-38 1-4 1-17-1-21-7-81-1-22-1-1-2-34-1-9-1-28v-63l1-17 3-23 5-21 3-10 3-9 6-16 2-6v-12l-4-42-1-6-2-33-1-6-2-33-1-9-3-66v-36l3-39 2-10 3-16 6-23 3-9 4-1 23 11 21 8 26 7 25 4 12 1h34l30-3 26-5 21-7 8-5 7-20 2-3 3-12 5-16 3-2 3-12 7-20 4-6 5-4 19-6z" fill="#3A5D67"/>
<path transform="translate(354,250)" d="m0 0h24l10 3 6 5 34 1 16 3 15 5 16 8 11 8 12 11 11 13 8 13 6 14 5 18 1 9v205l-5-5-18-21-12-9-13-6-15-3h-30v-32l13 1 11 1h14l10-3 10-9 8-16 4-13 4-27 7-8 4-8 1-4v-8l-4-8-7-4-2-10-2-17-4-18-8-16-6-5-2-1-2 6-6 8-8 7-14 8-23 9-22 8-14 7-6 8-5 15-1 1h-9l-27-3h-13l-7 4-4 5-3 8v14l4 9 6 8 10 6 3 1h12l5-2v80l-39 4 7 8 7 14 5 15 3 14 1 10v9l-2 14-5 14-7 9-9 6-7 2h-7l1 9 11 59v5l-1 1h-32v-106l-5-2-14-12-13-10-16-13-10-8-16-13-14-11-15-13-11-9-15-13-17-16-6-5-9-11-7-10-4-9v-13l5-9 5-6h2l2-4 15-15 8-7 14-13 8-7 10-9 12-12 8-7 9-9 8-7 14-13h2l1-3 10-8 1-2h2l2-4 9-11 11-18 8-7 13-6 21-7 30-8zm-66 106-8 9-9 13-12 16-8 10-28 38-3 4 2 4 11 9 20 15 13 10 18 14 4 3h2v-145z" fill="#FDA9A8"/>
<path transform="translate(1400,1016)" d="m0 0h17l14 4 6 3 8 6 5 6 3 9v10l-2 10-4 13-11 22-10 17-7 11-13 21-9 16-2 3v3l6-7h2v-2l11-9 10-8 17-9 10-3h14l8 2 11 7 7 8 2 6v10l-2 9-8 15-10 11-8 7-3 1-1 3-8 7-7 7h-2v2h-2l-1 3-5 5-3 1v2h-2l-2 4-7 8h-2l-2 4-8 10-14 19-9 15-6 12-6 13-7 18-4 15-3 14-4 2-9-6-2-3 1-14 2-18 3-15 6-21 9-22 6-12 8-15 9-14 14-19 12-14 1-2h2l2-4 26-26 11-9 6-5 1-2-10 5-13 11-5 5-10 9-7 7-7 8-8 10h-2l-2 4-10 14-7 10-12 20-7 13-4 11-4 10-5 14-5 21-2 15-1 23-4 1-18-11-4-2-1-2v-50l3-33 6-36 4-17 4-16 6-20 6-17 8-20 6-13 8-16 10-18 10-15 10-14 8-10 3-4-1-2-8 7-10 13-14 21-7 12-10 19-11 25-8 20-6 18-8 30-6 31-3 22-2 18-1 62-7-1-10-6-2-11-3-42-1-46 1-35 3-29 3-16 4-15 7-23 4-9 4-11 8-16 8-14 11-16 7-8 13-13 11-8 9-5z" fill="#08BFA6"/>
<path transform="translate(394,260)" d="m0 0h29l21 2 15 5 16 8 11 8 12 11 11 13 8 13 6 14 5 18 1 9v205l-5-5-18-21-12-9-13-6-15-3h-30v-32l13 1 11 1h14l10-3 10-9 8-16 4-13 4-27 7-8 4-8 1-4v-8l-4-8-7-4-2-10-2-17-4-18-8-16-6-5-2-1-2 6-6 8-8 7-14 8-23 9-22 8-14 7-6 8-5 15-1 1h-9l-27-3h-13l-7 4-4 5-3 8v14l4 9 6 8 10 6 3 1h12l5-2v80l-30 3h-11l-8-7-19-14-5-4v-138l1-9 13-8 7-7 9-12 9-10 10-10 16-12 15-9 15-10 6-5 2-3z" fill="#1D3138"/>
<path transform="translate(487,317)" d="m0 0 5 2 6 7 6 13 4 18 3 27 5 2 5 5 2 5v8l-4 11-7 7-2 9-3 20-5 16-7 13-8 8-8 4-5 1h-14l-24-3 1 34 9 12 6 10 3 10-1 9-4 5-6 3-4 1h-14l-15-4-11-6-13-10-12-11-8-8-4-7-1-83-4 2h-12l-12-6-7-8-4-8-1-3v-14l4-10 8-7 3-1h13l27 3h9l5-15 6-8 10-6 24-9 21-8 16-8 10-8 6-8z" fill="#FEA7A6"/>
<path transform="translate(517,1368)" d="m0 0 1 4-1 21-1 6-2 36-2 25v37l3 10 6 10 21 21 11 9 9 8 13 10 14 11 13 8 10 6 9 5 2 2v10l-7 8-5 4-13 5-15 2-16-1-15-4-13-6-13-8-6-5v-2l-4-2-10-7-14-7-16-6-14-7-9-7-3-5v-20l1-10 4-15 2-12 4-2-3-28-5-32-4-28-2-11-2-10-1-12 15 2h27l16-4 13-7z" fill="#FDA9A8"/>
<path transform="translate(1067,521)" d="m0 0h21l12 4 11 8 8 11 5 11 3 13 1 21-2 19-5 21-7 19-10 21-8 13h-1l-2-21-6-11-6-5-6-2h-12l-10 3-10 6-11 6-9 6-11 10-7 9-6 9-8 16-4 13-2 9-1 18-6-2-9-6-7-7-6-10-5-16-1-6v-29l4-22 8-24 12-25 10-16 9-12 11-13 11-11 17-13 19-10zm-22 53-10 5-5 4-7 8-7 11-4 8-3 14 1 9 2 8 4 4 5 2h9l9-4 9-7 8-9 6-11 5-17v-10l-3-9-6-5-2-1z" fill="#05DEBE"/>
<path transform="translate(1218,325)" d="m0 0h15l16 9 6 5 3 5v631h-1l-1-629-4-1-10 5-24 14-14 8-24 14-28 16-43 25-28 16-24 14-23 13-24 14-26 15-24 14-23 13-24 14-78 45-10 6-3 4-5-2-24-14-4-2 2-4 5-4 13-8 11-6 21-12 6-4 11-6 21-12 10-6 24-14 10-6 11-6 21-12 10-6 11-6 17-10 14-8 24-14 21-12 20-12 11-6 42-24 17-10 21-12 20-12 11-6z" fill="#3B636B"/>
<path transform="translate(267,1413)" d="m0 0 16 6 12 3 18 1 13-2 12-5 5-2v8l-4 24-2 9-6 32-4 20-3 23v21l2 13 4 40 3 24 3 19v24l-5 19-6 12-8 7-2 1h-14l-9-4-8-6-8-9-8-16-3-15v-19l5-34 1-11 2-38 1-4 1-17-1-21-7-81z" fill="#FDA8A7"/>
<path transform="translate(453,521)" d="m0 0h13l15 3 16 8 13 11 11 13 8 10 10 13 11 14 21 27 16 21 13 16 9 12 13 16 9 13 5 10 1 7v35l-1 17-1 5-1 35-3 22-4 9-4 6-9 10-7 7-11 6h-19l-19-3-16-5-5-4v-9l5-10 9-10 11-7 26-8 13-7 7-8 16-44 2-6v-6l-7-5-11 2-40 11-12 4-6 5-5 12-6 18-2 7-2 1 2-9 3-11 3-9 4-10 7-6 15-5-2-9-9-10-11-12-10-10-8-10-6-7 1-4 8-9 6-12 3-11v-22l-4-14-9-16-10-15-11-15-8-10-12-14-7-7-13-10-11-5z" fill="#FDAAA9"/>
<path transform="translate(1451,1132)" d="m0 0h14l8 2 11 7 7 8 2 6v10l-2 9-8 15-10 11-8 7-3 1-1 3-8 7-7 7h-2v2h-2l-1 3-5 5-3 1v2h-2l-2 4-7 8h-2l-2 4-8 10-14 19-9 15-6 12-6 13-7 18-4 15-3 14-4 2-9-6-2-3 1-14 2-18 3-15 6-21 9-22 6-12 8-15 9-14 14-19 12-14 1-2h2l2-4 26-26 11-9 6-5 1-2-10 5-13 11-5 5-10 9-7 7-7 8-8 10h-2l-2 4-10 14-7 10-12 20-7 13-4 11-4 10-5 14-5 21-2 15-1 23-4 1-10-6 2-1-1-3v-13l2-26 5-29 7-27 10-28 8-16 8-14 12-16 7-9 3-7 2 3 6-7h2v-2l11-9 10-8 17-9z" fill="#0BDFC0"/>
<path transform="translate(812,838)" d="m0 0h7l1 399 1 3h-8l-6-2-13-8-5-5-2-4v-67l1-314z" fill="#1C3037"/>
<path transform="translate(487,317)" d="m0 0 5 2 6 7 6 13 4 18 3 27 5 2 5 5 2 5v8l-4 11-9 9-7 2h-13l-10-5-8-11-3-10h-10l-2 1-2 9-5 8-6 5-7 3h-13l-10-5-7-8-3-10v-3h-10l-9-1-3 10-6 7-4 1-3-3-6-15-8-6-2-2 24 2h9l5-15 6-8 10-6 24-9 21-8 16-8 10-8 6-8z" fill="#FEA6A5"/>
<path transform="translate(1095,953)" d="m0 0h7l2 3v42l-5 10-13 8-28 16-24 14-28 16-24 14h-7l-1-2v-45l4-7 5-4 52-30 24-14 28-16z" fill="#02DDBD"/>
<path transform="translate(460,1501)" d="m0 0h1l2 13 6 10 10 9 17 12 19 14 21 14 19 10 17 3 13-1 7-3h6l14 8 9 5 2 2v10l-7 8-5 4-13 5-15 2-16-1-15-4-13-6-13-8-6-5v-2l-4-2-10-7-14-7-16-6-14-7-9-7-3-5v-20l1-10 4-15 2-12z" fill="#22363D"/>
<path transform="translate(618,739)" d="m0 0h8l1 1-1 9-16 45-6 8-8 6-11 5-23 7-11 7-8 9-5 10v9l7 4 13 4 24 4-3 5-24 7-15 4-11 3h-4v11h-1v-10l-4 1h-7l-1-7 21-61 15-43 6-15 7-7 24-7z" fill="#03DDBE"/>
<path transform="translate(573,151)" d="m0 0h18l17 5 12 6 10 8 7 9 5 11v20l-3 9-5 9-5 6-14 9-9 5-12 7-7 8-3 5-2 1h-7l-16-4-3-3v-7l6-12 5-5 9-8 8-5 16-8 7-5 3-5v-11l-4-6v-2l-5-2-8-4-6-1h-11l-7 3-7 5-7 8-4 1-21-5-3-3 1-9 8-11 7-6 11-7 10-4z" fill="#0DDFC1"/>
<path transform="translate(788,577)" d="m0 0 1 2v128l25 14 5 5-10 10-7 8-7 7-7 8-16 17-42 45-11 12-1 6 4 4-1 2-11-6-15-9-8-5-3-5 2-7 8-8 2-3h2v-2h2l2-4 11-11 7-8 15-16 2-3h2l2-4 12-12 7-8 9-9 7-8 8-9h2v-125z" fill="#40626C"/>
<path transform="translate(618,771)" d="m0 0 10 2 5 4v27l-2 25-4 9-4 6-9 10-7 7-11 6h-19l-19-3-16-5-5-4v-9l5-10 9-10 11-7 26-8 13-7 7-8 9-24z" fill="#FD908F"/>
<path transform="translate(510,381)" d="m0 0 1 3 5 2 5 5 2 5v8l-4 11-9 9-7 2h-13l-10-5-8-11-3-10h-10l-2 1-2 9-5 8-6 5-7 3h-13l-10-5-7-8-3-10v-3h-10l-9-1-3 10-6 7-4 1-3-3-6-15-8-6-2-2 44 4 8 1 1-5 5-5 7-3h25l8 4 4 4 1 5 2-1h13l2-5 4-4 7-3h25z" fill="#385B65"/>
<path transform="translate(746,262)" d="m0 0h18l12 3 10 6 10 9 5 6 5 9 2 8v12l-3 10-6 8-8 7-11 4-21 3-11 2-8 5-7-2-9-7-3-5 3-5 7-6 8-4 7-2 22-2 10-3 4-6v-8l-3-7-8-7-6-3h-13l-9 4h-5l-14-10-1-1 1-7 8-6 10-4z" fill="#84F1E4"/>
<path transform="translate(789,577)" d="m0 0 4 1 24 14 5 4-2 5-1 123-5-2-25-14-1-1v-128z" fill="#1C3037"/>
<path transform="translate(275,1550)" d="m0 0h1l2 71 2 24 3 10 6 8 10 5h12l8-4 4-4 1-3v-91l2 2 2 13 2 23 3 24 3 19v24l-5 19-6 12-8 7-2 1h-14l-9-4-8-6-8-9-8-16-3-15v-19l5-34 1-11 2-38z" fill="#293E44"/>
<path transform="translate(614,340)" d="m0 0h21l11 4 9 7 5 8 1 3v17l-6 12-9 10-5 8-2 9-5 2-12 2-4-3-1-7 3-11 9-13 9-10 1-9-3-5-7-3h-10l-7 3-3 3h-2l-3 9-2 4-11 3h-8l-2-3v-8l4-10 6-8 8-7 9-5z" fill="#10C2A9"/>
<path transform="translate(499,897)" d="m0 0v3l-9 10-7 7-10 7-16 8-18 5h-4l-1 12-15 86v12l13 93v7l-2-3-4-19-3-7-5-26-3-12-3-17-3-24-1-7 11-99 1-6 13-3 27-7 20-8 14-8z" fill="#1F333A"/>
<path transform="translate(290,613)" d="m0 0 7 6 6 10 6 13 12 63 1 11-1 1h-32v-101z" fill="#1F353C"/>
<path transform="translate(616,734)" d="m0 0 5 1 4 4-14 3-48 13-8 7-6 15-23 67-13 37-1 5-4-2-1-2v-7l16-47 3-5 3-12 5-16 3-2 3-12 7-20 4-6 5-4 19-6z" fill="#304D56"/>
<path transform="translate(420,387)" d="m0 0h21l7 3 4 5v11l-4 8-7 6-6 2h-9l-7-3-7-6-3-7v-11l5-6z" fill="#FEA6A5"/>
<path transform="translate(553,277)" d="m0 0 11 1 6 2 9 2 2 2v12l-3 14-5 5-12-2-13-3-3-3v-10l4-15 2-4z" fill="#13E0C2"/>
<path transform="translate(486,387)" d="m0 0h21l3 1 1 10v9l-1 11-9 4h-9l-9-4-6-7-2-5v-11l4-5z" fill="#FEA6A5"/>
<path transform="translate(1148,732)" d="m0 0 5 1 3 5v21l-4 10-8 7-7 4h-3v-40l11-7z" fill="#FDFDFD"/>
<path transform="translate(1091,764)" d="m0 0h6l3 4 1 4v15l-3 12-7 8-4 2-6-1-3-7v-16l2-9 6-9z" fill="#FDFDFD"/>
<path transform="translate(713,351)" d="m0 0 4 1 14 10 1 2v6l-11 15-5 1-9-6-7-5-1-6 4-7z" fill="#87F1E5"/>
<path transform="translate(1120,748)" d="m0 0h5l3 4v9l-4 11 4 9-1 5-4 1-3-5-2-6-4 2-1 15-4 3h-2v-40l9-6z" fill="#FDFDFD"/>
<path transform="translate(459,399)" d="m0 0h10l2 3 2 8 8 11 2 2 4 10-21 7h-5l-1-38z" fill="#FE8F8E"/>
<path transform="translate(1071,776)" d="m0 0h3l-3 26-2 16-3 3h-3l-3-12-3 15-3 4h-3l-2-9-3-21v-7l2-2h3l3 19 3-15 5-2 2 5 1 5 3-22z" fill="#FDFDFD"/>
<path transform="translate(955,843)" d="m0 0h5l3 4v10l-4 10-10 7h-2v15l-2 2h-3v-40z" fill="#FDFDFD"/>
<path transform="translate(979,829)" d="m0 0h2l10 33-3 4h-3l-1-5-10 5-2 2-3 9-4 1 1-10 8-35z" fill="#FDFDFD"/>
<path transform="translate(632,428)" d="m0 0h9l3 7 1 4v10l-2 2-16 3-5-4-2-10v-8l6-3z" fill="#17C4AC"/>
<path transform="translate(1006,813)" d="m0 0h6l3 4-1 5-5 1-3-1-4 1-2 9 11-2 3 1 2 5-1 8-3 6-8 7-7 1-3-3-1-4 4-4h2l1 2 5-1 4-5 1-4-13 1-3-5 1-10 6-9z" fill="#FDFDFD"/>
<path transform="translate(375,465)" d="m0 0 9 6 16 8 18 6 21 4-3 1v11l-11-3-22-8-15-8-6-5v-2h-2l-5-8z" fill="#FE8F8E"/>
<path transform="translate(1032,798)" d="m0 0h6l3 4-1 5-5 1v-2l-5 2-3 4v4l11-1 3 2 1 8-3 9-4 5-7 4h-5l-3-3v-6l5-2 4 2 5-2 1-8-5 1h-7l-2-2v-12l3-6z" fill="#FDFDFD"/>
<path transform="translate(616,734)" d="m0 0 5 1 4 4-14 3-48 13-5 3v-2l-5-2 3-3 19-6z" fill="#395C66"/>
<path transform="translate(217,449)" d="m0 0 6 1 4 5v2l-12 9-12 6-10 3h-12l2-2 16-8 12-9z" fill="#FD908F"/>
<path transform="translate(362,397)" d="m0 0 19 1 4 1-3 10-6 7-4 1-3-3-6-15z" fill="#1D3139"/>
<path transform="translate(1090,772)" d="m0 0 4 1 1 1v19l-4 6-1 1h-5l-1-1v-19l3-5z" fill="#2C4751"/>
<path transform="translate(1145,741)" d="m0 0 5 1 1 3v12l-3 8-8 5v-26z" fill="#2D4953"/>
<path transform="translate(429,398)" d="m0 0h7l4 3 1 8-4 5h-8l-4-4v-8z" fill="#1D3239"/>
<path transform="translate(445,450)" d="m0 0 6 2 3 4-1 7-3 3-5 1-5-3-2-2v-7l4-4z" fill="#FE8F8E"/>
<path transform="translate(492,399)" d="m0 0 6 1 3 3 1 5-3 5-6 2-5-3-1-1v-8z" fill="#1E333A"/>
<path transform="translate(425,363)" d="m0 0h6l5 3 1 3-15 9h-3l-1-7 3-5z" fill="#1F343C"/>
<path transform="translate(493,366)" d="m0 0h6l5 3 2 4v7l-10-3-9-3 1-4z" fill="#1E343B"/>
<path transform="translate(511,389)" d="m0 0 5 3 2 4v9l-5 10-2 1z" fill="#1C3037"/>
<path transform="translate(955,851)" d="m0 0 3 3-2 7-5 4-4 1v-10z" fill="#2F4C56"/>
<path transform="translate(569,745)" d="m0 0 1 2-16 6-5 6-6 16-4 12-2 7-2 1 2-9 3-11 3-9 4-10 7-6z" fill="#FDFDFD"/>
<path transform="translate(1119,756)" d="m0 0h3v8l-4 4-5 2v-10z" fill="#2D4852"/>
<path transform="translate(977,841)" d="m0 0 2 2 2 7-1 5-6 3 1-8z" fill="#2C535A"/>
<path transform="translate(1409,1156)" d="m0 0 2 1-15 15h-4l1-5 2 3 6-7h2v-2z" fill="#64ECDA"/>
<path transform="translate(1257,983)" d="m0 0 1 4-6 8-8 4 1-3 6-4z" fill="#869FA4"/>
<path transform="translate(541,775)" d="m0 0 1 3-3 9-2 7-2 1 2-9 3-10z" fill="#D6E1E2"/>
<path transform="translate(323,1552)" d="m0 0 2 2 1 14-1-2h-2z" fill="#688C8F"/>
</svg>
