<?xml version="1.0" encoding="UTF-8"?>
<svg version="1.1" viewBox="0 0 2000 2000" width="1280" height="1280" xmlns="http://www.w3.org/2000/svg">
<path transform="translate(984,582)" d="m0 0h467l14 1 14 4 8 4 9 7 9 9 8 16 3 10v23l-4 44-6 69-3 32-4 49-3 32-7 80-7 79-2 28-2 20-3 36-5 52-2 26-9 100-4 50-4 40-2 29-3 32-6 68-4 46-3 16-5 13-7 10-9 10-10 8-8 5-13 5-11 2h-483l-14-3-14-7-9-7-9-12-5-10-2-5-2-12v-12l2-27 1-5 6-70 1-15 1-5 2-28 2-22 2-20 2-26 3-29 1-6h-149-4l-3 21-5 46-4 30-4 32-3 25-2 13-6 45-2 13-3 23-1 11 4 2-1 15-2 3-6 1-6-1-1 18v11l15 8 19 5 20 3 4 2v7l-4 4-3 1h-87l-2-1 1-13 4-15h2l1-29-8-1-2-7v-8l4-3v-68l-1-35-1-158h-25l-6-1-3 7-11 35-8 26-18 54-4 13-3 8-12 35-18 54-4 10-4 14 1 8-4 10-5 5-8-2h-4l-8 25 2 5 4 5 14 10 11 5 2 2-1 7-5 3h-7l-30-7-32-6-2-3 1-5 7-15 3-5 3-2 3-10 2-5 2-7v-4l-6-2 1-8 3-7 3-5 5-18 6-23 4-15 5-22 4-15 4-17 4-16 9-39 4-20 2-7 8-40 6-32 3-19 2-11 4-35 2-15 6-53 4-31 7-52 2-10 2-13 2-14 2-9 6-31 3-17 1-9 1-25 1-11-5-2-11-7-12-8-8-7-6-9-4-12-1-14 5-30v-4l-6-4 2-13 4-21 3-11 5-12 7-11 8-6 5-2 25-4 13-1 1-9 6-2 9-2 2-6 1-7v-12l-1-4-7 2-7-1-2-3-1-8h-11l-1-1v-8l1-3-2 1h-7l-3-2v-7l1-5-7-4v-5l3-3v-3l-3-2-1-6 1-2h6l-2-5v-7l6-2-1-11 3-3h11l1-5 2-3 6-1 5 3 5-8 3-1 8 3 1-6 2-2 9 1 2-4 2-2h7l5 1 2-5 3-3 290-1 18-12 11-5 6-2zm-424 287-5 15-2 7v7l6 8 3 2 1-1 1-8v-20l-1-9zm55 326-1 1v10l2-1v-10z" fill="#A4C7FC"/>
<path transform="translate(938,600)" d="m0 0 2 1-3 3 132 1-1 11v18l3 6 6 4 3 1 19 1-16 62-10 38 1 18 5 59 6-5 1-2h2l2-4 13-12 16-11 17-9 21-7 15-3 9-1h19l20 3 18 6 16 8 11 8 10 9 8 8 10 14 9 19 5 18 2 13v25l-3 18-8 24-9 17-10 14-9 11h-2v2h-2v2l-8 7-18 13-16 8-12 5-19 5-15 2h-20l-19-3-16-5-19-9-12-9-10-9-8-9-9-13v-2h-2l-1 8-14 54-1 1h-349l5 89 2 47 1 37v45l-2 33-5 54-5 46-4 30-4 32-3 25-2 13-6 45-2 13-3 23-1 11 4 2-1 15-2 3-6 1-6-1-1 18v11l15 8 19 5 20 3 4 2v7l-4 4-3 1h-87l-2-1 1-13 4-15h2l1-29-8-1-2-7v-8l4-3v-68l-1-35-1-158h-25l-6-1-3 7-11 35-8 26-18 54-4 13-3 8-12 35-18 54-4 10-4 14 1 8-4 10-5 5-8-2h-4l-8 25 2 5 4 5 14 10 11 5 2 2-1 7-5 3h-7l-30-7-32-6-2-3 1-5 7-15 3-5 3-2 3-10 2-5 2-7v-4l-6-2 1-8 3-7 3-5 5-18 6-23 4-15 5-22 4-15 4-17 4-16 9-39 4-20 2-7 8-40 6-32 3-19 2-11 4-35 2-15 6-53 4-31 7-52 2-10 2-13 2-14 2-9 6-31 3-17 1-9 1-25 1-11-5-2-11-7-12-8-8-7-6-9-4-12-1-14 5-30v-4l-6-4 2-13 4-21 3-11 5-12 7-11 8-6 5-2 25-4 13-1 1-9 6-2 9-2 2-6 1-7v-12l-1-4-7 2-7-1-2-3-1-8h-11l-1-1v-8l1-3-2 1h-7l-3-2v-7l1-5-7-4v-5l3-3v-3l-3-2-1-6 1-2h6l-2-5v-7l6-2-1-11 3-3h11l1-5 2-3 6-1 5 3 5-8 3-1 8 3 1-6 2-2 9 1 2-4 2-2h7l5 1 2-5 3-3 290-1zm-378 269-5 15-2 7v7l6 8 3 2 1-1 1-8v-20l-1-9zm55 326-1 1v10l2-1v-10z" fill="#FCFCFD"/>
<path transform="translate(698,1032)" d="m0 0h349l1 3 1 18h275l5 2 5 6 1 2v17l-2 12-3 6h-2v2l-8 4h-266l2 24 261 1 6 3 5 6 1 10-2 19-4 7-5 4-4 2-256 1-26 100-9 34-1 1h-316-4l-2 4 4-50 1-20v-45l-2-62-4-79-1-16z" fill="#BED7FE"/>
<path transform="translate(984,582)" d="m0 0h467l14 1 14 4 8 4 9 7 9 9 8 16 3 10v23l-4 44-6 69-3 32-4 49-3 32-7 80-7 79-2 28-2 20-3 36-5 52-2 26-9 100-4 50-4 40-2 29-3 32-6 68-4 46-3 16-5 13-7 10-9 10-10 8-8 5-13 5-11 2h-483l-14-3-14-7-9-7-9-12-5-10-2-5-2-12v-12l2-27 1-5 6-70 1-15 1-5 2-28 2-22 2-20 2-26 3-29 1-6 167-1 23-88 12-46 1-1h14l1 3 2 28 10-5h134l8 4 6 7 2 5v14l-4 8-4 5-10 6-4 1h-130l-8-3-7-7-3 9-8 30-16 61-3 9h-165l-1 20-17 193v10l3 12 7 11 7 6 10 5 9 2h453l13-4 11-7 8-8 7-12 3-13 19-216 11-126 10-114 8-90 8-94 19-216 5-58v-18l-5-13-7-9-9-6-11-4h-130l-6 4-3 3-8 16-9 10-8 7-16 8-6 2-8 1h-80l-16-4-11-7-5-4v-2h-2l-6-8-6 8-5 4 16 1-4 17-17 66-15 57v10l1 18-2 3h-2l-2 4-5 5-1-2-6-71 1-10 24-92 1-3-18-1-8-4-3-3-2-5v-18l1-9 1-2h-133l4-6 14-9 15-6z" fill="#67A6FD"/>
<path transform="translate(560,990)" d="m0 0h135l4 58 4 73 2 47 1 37v45l-2 33-5 54-5 46-4 30-4 32-3 25-2 13-6 45-2 13-3 23-1 11 4 2-1 15-2 3-6 1-6-1-1 18v11l15 8 19 5 20 3 4 2v7l-4 4-3 1h-87l-2-1 1-13 4-15h2l1-29-8-1-2-7v-8l4-3v-68l-1-35-1-158h-25l-6-1-3 7-11 35-8 26-18 54-4 13-3 8-12 35-18 54-4 10-4 14 1 8-4 10-5 5-8-2h-4l-8 25 2 5 4 5 14 10 11 5 2 2-1 7-5 3h-7l-30-7-32-6-2-3 1-5 7-15 3-5 3-2 3-10 2-5 2-7v-4l-6-2 1-8 3-7 3-5 5-18 6-23 4-15 5-22 4-15 4-17 4-16 9-39 4-20 2-7 8-40 6-32 3-19 2-11 4-35 2-15 6-53 4-31 7-52 2-10 2-13 2-14 2-9 6-31 2-10h2zm55 205-1 1v10l2-1v-10z" fill="#1C3037"/>
<path transform="translate(628,612)" d="m0 0 6 1 3 3 10-1 3 2 1 6 5 2 2 2-1 6-1 2 6 4-1 5-3 2 2 4v5l-2 2 2 1v3h-2l5 9 2 5 1 8 6 7 2 1-2 4-4 2v8l-2 10-6 10-7 7-6 3h-3l-1 18 11 1v7l1 5 13 1 25 5 8 4 10 9 12 14 4 6 10-2h184l1-7 3-3h7l5 1h15l13-4h6l9 3 6 1h10l13-2 5 4 1 11 3 4v34l-2 14-5 13-7 10-7 7-24 1v2l-7 1-7-4-158 1-12 10-10 5-7 2h-13l-13-4-11-8-5-5-12-13-6-5-6 6-3 45-4 39-3 24-1 4h-135v6h-1l1-16 1-25 1-11-5-2-11-7-12-8-8-7-6-9-4-12-1-14 5-30v-4l-6-4 2-13 4-21 3-11 5-12 7-11 8-6 5-2 25-4 13-1 1-9 6-2 9-2 2-6 1-7v-12l-1-4-7 2-7-1-2-3-1-8h-11l-1-1v-8l1-3-2 1h-7l-3-2v-7l1-5-7-4v-5l3-3v-3l-3-2-1-6 1-2h6l-2-5v-7l6-2-1-11 3-3h11l1-5 2-3 6-1 5 3 5-8 3-1 8 3 1-6 2-2 9 1 2-4zm-68 257-5 15-2 7v7l6 8 3 2 1-1 1-8v-20l-1-9z" fill="#A4C7FC"/>
<path transform="translate(1056,1129)" d="m0 0h261l6 3 5 6 1 10-2 19-4 7-5 4-4 2-256 1-26 100-9 34-1 1h-316-4l-2 4 4-50 1-20v-77h354l-1-5-2-25z" fill="#DDEBFD"/>
<path transform="translate(938,600)" d="m0 0 2 1-3 3 132 1-1 11v18l3 6 6 4 3 1 19 1-16 62-10 38-1 2h-429v-10l1-3 10-5 8-9 4-9 1-7v-9l6-3 1-2-4-2-5-6-1-10-6-10v-2h2v-3l-3-1 2-2v-5l-2-4 4-4-1-4-5-3 2-4-1-5-6-3-1-6-6-1-6 1-5-4h-6l1-2h7l5 1 2-5 3-3 290-1z" fill="#DEEBFD"/>
<path transform="translate(712,871)" d="m0 0 7 6 13 13 4 5 10 7 13 4h13l12-4 11-8 6-5 159-1 6 4h7v-2l2-1h109l1-4v11l-2 1v6l-2 3-2 11-3 7-2 10-1 2-2 7v5l-1 1-1 7h-2l-1 10-1 2 2 1-2 2v-2h-2l-1 8-14 54-1 1h-349l-1-1-2-30v-15l5-42 3-32 2-34z" fill="#DDEBFD"/>
<path transform="translate(1144,1298)" d="m0 0h13l14 3 16 8 10 9 7 10 5 11 3 16-1 21-2 16 8 2 6 4 5 6 3 8v9l-3 34v8l10-8 16-10 15-8 13-5v7l-18 10-14 11-10 9-10 10-4 5-4 34-5 10-9 8-8 3h-141l-10-5-6-7-2-5v-18l8-89 3-8 9-10 8-4 6-1 3-34 5-16 7-12 9-10 7-7 13-8 13-5z" fill="#017DFE"/>
<path transform="translate(688,773)" d="m0 0h7l9 5 10 10 11 14 2 3 10-2h184l1-7 3-3h7l5 1h15l13-4h6l9 3 6 1h10l13-2 5 4 1 11 3 4v34l-2 14-5 13-7 10-7 7-24 1v2l-7 1-7-4-158 1-12 10-10 5-7 2h-13l-13-4-11-8-5-5-12-13-6-5-7 7-4-2-8-10-8-15-6-20-1-7v-33l3-11 4-6z" fill="#64A4FD"/>
<path transform="translate(1441,584)" d="m0 0h23l15 3 8 4 9 7 9 9 8 16 3 10v23l-4 44-6 69-3 32-4 49-3 32-7 80-7 79-2 28-2 20-3 36-5 52-2 26-9 100-4 50-4 40-2 29-3 32-6 68-4 46-3 16-5 13-7 10-9 10-10 8-8 5-13 5-5 1h-28l4-2 14-5 13-8 12-11 9-14 5-12 3-16 36-411 37-423 7-80v-18l-3-12-4-10-8-11-9-8-8-5-15-5z" fill="#0880FD"/>
<path transform="translate(643,748)" d="m0 0h429l2 16 10 121v4h-87l6-7 7-10 5-13 2-14v-34l-3-4-1-11-4-3-13 2h-10l-13-3-2-1h-6l-13 4h-15l-5-1h-9l-2 9-184 1-10 2-11-14-11-12-7-5-10-3-20-4-13-2-2-5 1-7-11-1z" fill="#BED7FE"/>
<path transform="translate(1058,1180)" d="m0 0h14l1 3 2 28 10-5h134l8 4 6 7 2 5v14l-4 8-4 5-10 6-4 1h-130l-8-3-7-7-3 9-8 30-16 61-3 9h-165l2-29 1-10 146-1 23-88 12-46z" fill="#84A1D0"/>
<path transform="translate(1049,1053)" d="m0 0h275l5 2 5 6 1 2v17l-2 12-3 6h-2v2l-8 4h-267l-4-40z" fill="#FAFBFC"/>
<path transform="translate(1056,1129)" d="m0 0h261l6 3 5 6 1 10-2 19-4 7-5 4-4 2h-255l-1-3 3-4v-13l-1 5h-1l-3-22z" fill="#FAFBFC"/>
<path transform="translate(628,612)" d="m0 0 6 1 3 3 10-1 3 2 1 6 5 2 2 2-1 6-1 2 6 4-1 5-3 2 2 4v5l-2 2 2 1v3h-2l5 9 2 5 1 8 6 7 2 1-2 4-4 2v8l-2 10-6 10-7 7-6 3h-3l-1 18 11 1v12h-66l-1-9 6-2 9-2 2-6 1-7v-12l-1-4-7 2-7-1-2-3-1-8h-11l-1-1v-8l1-3-2 1h-7l-3-2v-7l1-5-7-4v-5l3-3v-3l-3-2-1-6 1-2h6l-2-5v-7l6-2-1-11 3-3h11l1-5 2-3 6-1 5 3 5-8 3-1 8 3 1-6 2-2 9 1 2-4z" fill="#1F333A"/>
<path transform="translate(737,803)" d="m0 0h184l1 33 4 16 5 10 9 11 6 5v1h-132l2-4 10-10 8-6 7-5 6-10 4-11 6-12-10-2-12-3-9 7-7 22-8 5-32 16-9 5-5-1-13-16-9-12 4-5-2-5-12-18-5-8z" fill="#017DFD"/>
<path transform="translate(688,773)" d="m0 0h7l9 5 10 10 11 14 10 13 11 17 2 5-4 5 11 14 10 13 5 1 33-17 15-8 7-22 10-8 22 6-2 6-5 10-4 11-7 9-9 6-12 11-15 15-17 13-10 4-4 1h-13l-13-4-11-8-5-5-12-13-6-5-7 7-4-2-8-10-8-15-6-20-1-7v-33l3-11 4-6z" fill="#CD5C52"/>
<path transform="translate(1085,1206)" d="m0 0h134l8 4 6 7 2 5v14l-4 8-4 5-10 6-4 1h-130l-8-3-7-7-3-6-1-10 3-10 8-9z" fill="#017DFE"/>
<path transform="translate(1163,894)" d="m0 0h33l14 3 14 7 7 6 5 8 2 7v15l-1 4-2 22h-123v-11l3-27 4-10 9-10 7-5 11-5z" fill="#037EFD"/>
<path transform="translate(1144,1314)" d="m0 0h9l10 2 9 4 6 4 7 6 6 10 4 11v22l-2 19h-101v-12l2-20 3-10 7-13 6-7 11-8 10-5z" fill="#A2C6FD"/>
<path transform="translate(549,772)" d="m0 0h4l6 36 3 29 1 15v17h-3l-6 22v7l9 12v31l-1 2-5-1-11-7-12-8-8-7-6-9-4-12-1-14 5-30v-4l-6-4 2-13 4-21 3-11 5-12 7-11 8-6z" fill="#1F323A"/>
<path transform="translate(688,773)" d="m0 0h7l9 5 10 10 11 14 10 13 11 17 2 5-31 31-8 7-4 4-4-2-8-10-8-15-6-20-1-7v-33l3-11 4-6z" fill="#1B2F36"/>
<path transform="translate(667,1574)" d="m0 0 6 3-1 15-2 3-6 1-6-1-1 18v11l15 8 19 5 20 3 4 2v7l-4 4-3 1h-87l-2-1 1-13 4-15h2l1-29-8-1-2-7v-8l5-3h45z" fill="#263A43"/>
<path transform="translate(1080,645)" d="m0 0h45l-4 17-17 66-15 57v10l1 18-2 3h-2l-2 4-5 5-1-2-6-71 1-10 24-92 1-3-18-1z" fill="#84A1D0"/>
<path transform="translate(453,1563)" d="m0 0h1v5l11 1 33 6 2 1 1-5 2 4 1 4-4 10-5 5-8-2h-4l-8 25 2 5 4 5 14 10 11 5 2 2-1 7-5 3h-7l-30-7-32-6-2-3 1-5 7-15 3-5 3-2 3-10 2-5 2-7v-4l-6-2 1-8 3-7z" fill="#273A43"/>
<path transform="translate(656,658)" d="m0 0h4v3h-2l5 9 2 5 1 8 6 7 2 1-2 4-4 2v8l-2 10-6 10-7 7-6 3h-3l-1 18 11 1v12h-66l-1-9 6-2 9-2 2-6 2-18 6 1 3-3 3-8 6 2h5l3-1 1-8h7l1-1v-14l-5-6-3-7 1-9 4-3h6l7 6 3 7 1-5-2-8v-9l1-4z" fill="#CC5C52"/>
<path transform="translate(520,850)" d="m0 0 6 2 32 15 3 2-5 15-2 7v7l9 12v31l-1 2-5-1-11-7-12-8-8-7-6-9-4-12-1-14 5-30z" fill="#CD6157"/>
<path transform="translate(1084,592)" d="m0 0h24l7 3 6 7 1 7-2 21-4 8-7 6-3 1h-29l-6-4-3-5-1-2v-18l1-9 5-9 5-4z" fill="#037EFE"/>
<path transform="translate(1180,824)" d="m0 0h13l6 4 3 3 3 7v20l-4 12-5 6-7 4-4 1h-9l-8-4-4-5-3-9v-13l3-12 6-9 6-4z" fill="#037DFE"/>
<path transform="translate(616,1187)" d="m0 0h1l2 58 1 46v34h-1v-9h-25l-6-1-2 1 3-12 10-36 8-36 6-34h1l1 7v-9l-1-4z" fill="#DAE8FC"/>
<path transform="translate(1063,969)" d="m0 0h2l8 12 9 11 1 4-12 47-3 10h-19l-2-22z" fill="#85A1D0"/>
<path transform="translate(1281,1432)" d="m0 0h1v7l-18 10-14 11-10 9-10 10-14 19-3 5-3-1-8-11-8-8-11-7-11-5v-10h7l15 4 14 7 4 3 4-1 10-10 15-11 13-8 15-8z" fill="#1B2F36"/>
<path transform="translate(1134,1426)" d="m0 0h10l6 4 4 6v10l-3 6-4 5-3 33-6 7-7 1-5-3-2-3v-14l1-11v-12l-4-7v-8l4-8 5-4z" fill="#A0C5FD"/>
<path transform="translate(1082,1070)" d="m0 0h72l5 2 2 4-1 6-4 4h-79l-3-3v-8l4-4z" fill="#1B2F36"/>
<path transform="translate(813,878)" d="m0 0 1 2h135v2l5 2 5 5h-156l6-7z" fill="#84A1D0"/>
<path transform="translate(959,888)" d="m0 0 7 4h7v-2l2-1h21l-4 5-16 12-7 1-11-8-5-4-3-1h-146l-6-1 3-4z" fill="#BED7FE"/>
<path transform="translate(667,1574)" d="m0 0 6 3-1 15-2 3-6 1-6-1v7h-1v-7l-30 1-8-1-2-7v-8l5-3h45z" fill="#A8C8FA"/>
<path transform="translate(453,1563)" d="m0 0h1v5l11 1 33 6 2 1 1-5 2 4 1 4-4 10-5 5-8-2h-5v-2l-8-1-20-4-1 3-1-3-6-2 1-8 3-7z" fill="#A8C9FB"/>
<path transform="translate(454,1585)" d="m0 0 10 1 18 4-1 8-6 19-1 4-8-3-18-4-5 1-3 3 1-4 4-3 3-10 2-5 2-7z" fill="#CD635A"/>
<path transform="translate(628,1595)" d="m0 0h29v30h-31l1-22z" fill="#CD6157"/>
<path transform="translate(1183,1070)" d="m0 0h43l6 3 1 7-3 5-2 1h-49l-3-3v-8l4-4z" fill="#1B2F36"/>
<path transform="translate(619,753)" d="m0 0h29l6 1v12h-66l-1-9 6-2z" fill="#1D3138"/>
<path transform="translate(857,1316)" d="m0 0h19v10l-2 24-1 5h-19l1-19z" fill="#017DFE"/>
<path transform="translate(1014,807)" d="m0 0 4 4v34l-2 14-5 13-7 10-7 7h-21l4-4 4-3h2v-2l9-7 9-11 6-12 3-14z" fill="#85A1D0"/>
<path transform="translate(1e3 817)" d="m0 0h2v5l-12 7-12 11-9 10-8 13-13-13-10-6-5-2v-7l14 3 12 6 4-2 7-7 14-10z" fill="#1B2F36"/>
<path transform="translate(1292,1136)" d="m0 0h8l4 4v9h2v16l-2 2h-21v-17l3-2 2-8z" fill="#057EFD"/>
<path transform="translate(1295,1078)" d="m0 0h13l6 3 2 3-1 11h-30v-9l4-6z" fill="#037DFE"/>
<path transform="translate(678,825)" d="m0 0h1l3 15 6 16 6 11 9 11 2 1v12l-2 2-8-10-8-14-5-12-4-18z" fill="#85A1D0"/>
<path transform="translate(1085,606)" d="m0 0 4 2 6 5 8-7 4 2v4l-7 6 2 4 4 4-1 4-4 2-6-7-4 1-6 6h-2l-3-5 8-7-2-5-4-4 2-4z" fill="#F5F8FD"/>
<path transform="translate(1414,619)" d="m0 0h6l2 2v11l-2 18-4 3-5-1-2-2 1-18 1-9z" fill="#DEECFE"/>
<path transform="translate(1200,612)" d="m0 0h8l5 5v9l-5 5-2 1h-7l-5-5-1-6 3-6z" fill="#017DFE"/>
<path transform="translate(1054,1104)" d="m0 0h12l2 25h-12l-1-1-1-12z" fill="#85A1D0"/>
<path transform="translate(1394,625)" d="m0 0 5 2 1 1-1 20-5 5-5-1-1-1v-14l2-10z" fill="#DEECFE"/>
<path transform="translate(712,871)" d="m0 0 7 6 8 8 2 4h-24v-11z" fill="#BCD5FC"/>
<path transform="translate(1190,1143)" d="m0 0 6 5 6-5 1 2-3 7 7 1v3l-7 1 1 8h-3l-4-4-6 5-1-2 3-7-7-1v-3l7-1-1-8z" fill="#1B2F36"/>
<path transform="translate(1239,1143)" d="m0 0 2 2-3 7 7 1v3l-7 1 1 8h-3l-4-4-4 4h-3l2-6 1-2-7-1v-3l7-1-1-8h3l4 4z" fill="#1B2F36"/>
<path transform="translate(1152,1143)" d="m0 0 6 5 6-5 1 3-3 6 7 1v3l-7 1 1 8-4-2-3-2-4 4-3-1 3-7-7-1v-3l7-2-1-7z" fill="#1B2F36"/>
<path transform="translate(1114,1143)" d="m0 0 6 5 5-5h2l-2 9 7 1-1 3-7 1 1 8-4-2-3-2-4 4h-2l1-5 1-3-7-2v-2l7-2-1-7z" fill="#1B2F36"/>
<path transform="translate(1076,1143)" d="m0 0 5 4 4-1 4-2-2 8 7 1-1 3-7 1 2 8-4-1-4-3-4 4h-2l1-5 1-3-7-1v-3l8-1-2-8z" fill="#1B2F36"/>
<path transform="translate(1370,632)" d="m0 0 7 1 1 2-1 14-4 4-5-1-2-2v-8l1-7z" fill="#DEECFE"/>
<path transform="translate(1300,1060)" d="m0 0 7 1 1 2v7l-3 4h-6l-2-2v-8z" fill="#0E82FD"/>
<path transform="translate(1294,1138)" d="m0 0h5l3 4v7h-13v-6z" fill="#E7F0FD"/>
<path transform="translate(855,1316)" d="m0 0h2v10l-2 22-3 2 1-21z" fill="#7CB2FE"/>
<path transform="translate(1049,1053)" d="m0 0h1l1 7 5-1v5h-2l-1 8h-3l-1-8z" fill="#E0EDFD"/>
<path transform="translate(1056,1136)" d="m0 0 2 4 2-4v8h2v7l-5 1z" fill="#E0EDFD"/>
<path transform="translate(1086,864)" d="m0 0h1v24h-1v-8h-2v5h-1v-11h2z" fill="#DEECFE"/>
<path transform="translate(1055,1053)" d="m0 0h12l1 3-3 1-10-1z" fill="#E6F0FD"/>
<path transform="translate(855,1316)" d="m0 0h2v10l-3 3z" fill="#76AFFE"/>
<path transform="translate(855,1328)" d="m0 0h1v8l-3 3v-10z" fill="#84B7FD"/>
<path transform="translate(1100,803)" d="m0 0m-1 1m-1 1m-2 1 2 1-6 6-1 6-3-4 6-7z" fill="#E7F0FD"/>
<path transform="translate(1292,1136)" d="m0 0 2 1v2l-4 4-2 4h-1l1-7z" fill="#288DFD"/>
<path transform="translate(1294,1136)" d="m0 0h6l4 4v2h-3l-2-3-6-1z" fill="#1083FE"/>
</svg>
