<?xml version="1.0" encoding="UTF-8"?>
<svg version="1.1" viewBox="0 0 1024 1024" width="1280" height="1280" xmlns="http://www.w3.org/2000/svg">
<path transform="translate(502,252)" d="m0 0h24l25 2 22 4 21 6 24 9 17 8 21 13 13 10 13 11 6 5 5 6 7 6 9 11 14 19 10 16 12 23 7 19 7 24 4 24 2 17v34l-3 24-5 25-8 24-8 19-14 24-12 17-9 11-14 15-8 8-14 11-13 10-13 8-23 12-17 7-32 9-15 3-32 3h-22l-36-4-21-5-24-8-19-8-21-11-13-10-9-6-14-12-12-11-10-11-13-17-9-13-8-13-8-16-8-18-7-25-4-19-2-22v-38l3-25 5-24 5-16 8-20 10-20 10-15 10-14 9-12 21-21 8-7 14-11 18-11 23-12 24-9 15-5 30-6z" fill="#FBFBFC"/>
<path transform="translate(502,252)" d="m0 0h24l25 2 22 4 21 6 24 9 17 8 21 13 13 10 13 11 6 5 5 6 7 6 9 11 14 19 10 16 12 23 7 19 7 24 4 24 2 17v34l-3 24-5 25-8 24-8 19-14 24-12 17-9 11-14 15-8 8-14 11-13 10-13 8-23 12-17 7-32 9-15 3-32 3h-22l-36-4-21-5-24-8-19-8-21-11-13-10-9-6-14-12-12-11-10-11-13-17-9-13-8-13-8-16-8-18-7-25-4-19-2-22v-38l3-25 5-24 5-16 8-20 10-20 10-15 10-14 9-12 21-21 8-7 14-11 18-11 23-12 24-9 15-5 30-6zm-4 24-24 3-26 6-23 8-21 10-16 10-13 9-11 9-14 12-9 10-8 10-2 5-3 1-6 10-5 8-8 15-6 13-7 21-6 33-2 22v25l2 21 6 26 9 26 13 26 15 22 9 11 15 16 8 7 12 10 15 10 16 9 22 10 24 8 25 5 21 2h34l25-3 27-7 19-7 21-10 22-14 13-10 12-11 10-10 9-11 10-13 13-21 9-19 9-25 5-22 2-15 1-13v-27l-2-19-5-23-6-20-8-21-13-23-10-14-13-16-21-21-17-13-11-8-22-12-25-10-21-6-25-4-11-1z" fill="#1B1C37"/>
<path transform="translate(511,417)" d="m0 0h11l18 3 18 7 20 13 19 12 17 11 16 11 15 12 3 1 3-10 7-7 9-4h16l9 4 7 8 3 9v10l-4 10-5 6-10 6-3 1h-13l-9-4-8-9-2-4-2 3-7 1-8-2-26-15-15-9-19-11-3-3-2-14-8-17-8-9-12-5 5 4 8 10 7 14 3 11 8 56v7l-16 10-10 7-11 7-12 8-2 1-11-6-9-6-26-17-6-4v-13l8-51 6-20 5-8 11-11 9-3z" fill="#067398"/>
<path transform="translate(596,521)" d="m0 0h9l10 3 8 7 4 9 1 5v8l-4 11-8 9-14 9-22 12-23 13-20 12-16 10-40 24-11 5-9 1-9-2-8-7-5-10v-12l3-8 8-9 10-7 15-9 15-10 31-19 20-13 16-11 10-7 18-11z" fill="#191934"/>
<path transform="translate(486,422)" d="m0 0 3 1-6 4h-2l-2 4-4 5-3 9-4 20-27 16-13 8-22 13-6 3-4 1h-9l-1-3h-2l-2 4-5 6-10 6-3 1h-12l-10-4-6-5-5-9-1-2v-15l6-10 9-7 5-2h15l10 5 7 8 3 6v3l9-7 15-12 18-12 16-10 12-8 19-12z" fill="#067398"/>
<path transform="translate(546,423)" d="m0 0 10 3 16 10 23 15 19 12 16 11 15 12 3 1 3-10 7-7 9-4h16l9 4 7 8 3 9v10l-4 10-5 6-10 6-3 1h-13l-9-4-8-9-2-4-2 3-7 1-8-2-26-15-15-9-19-11-3-3-2-14-8-17-8-9-4-2z" fill="#067297"/>
<path transform="translate(427,521)" d="m0 0h16l10 4 54 36 1 3-14 8-10 7-16 10-8 6h-2v2l-5-1-26-15-12-9-6-9-3-8v-14l3-8 5-6 9-5z" fill="#191934"/>
<path transform="translate(510,333)" d="m0 0h14l11 4 10 9 6 9 3 12v8l-4 13-7 9-6 5-10 5-5 1h-15l-11-4-6-4-8-9-4-10-1-6v-9l4-13 6-8 7-6 11-5z" fill="#067398"/>
<path transform="translate(574,606)" d="m0 0 5 1 10 7 6 10 1 4v10l-4 9-4 6-5 4-6 2h-13l-9-4-24-15-3-4 9-6 26-16z" fill="#191934"/>
<path transform="translate(356,480)" d="m0 0h5l6 5 3 6-2 7-5 4-3 1h-7l-5-3-3-5v-7l5-6z" fill="#FCFCFD"/>
<path transform="translate(676,480)" d="m0 0 5 1 5 5 1 2v7l-3 5-6 3-7-1-6-5-1-2v-6l4-6 2-2z" fill="#FCFCFD"/>
</svg>
