<?xml version="1.0" encoding="UTF-8"?>
<svg version="1.1" viewBox="0 0 2000 2000" width="1280" height="1280" xmlns="http://www.w3.org/2000/svg">
<path transform="translate(1201,344)" d="m0 0h10l9 2 8 4 13 8 7 7 6 12 1 3v149l15-8 21-13 2-1h9l4 4 2 4 1 411 3 6 10 14 11 16 7 10 4-1 8-7 9-9 8-7 10-9 8-7 13-12 11-9 12-11 8-5 5-1h8l6 2 7 1 1-22-6 1-9-1-4-5-3-8-2-14-4-2 1-9 3-6v-7l-2-10v-8l2-9 7-10 7-7 16-8 8-2h27l12 5 8 6 5 5 5 6 6 12 4 16 2 10 2 25 4 18 7 25 4 14 2 23 9 27 9 28v11l-5 9-10 14-11 15 4 18 1 14v15l-2 27-4 21-3 17-6 31v12l6 11 4 13v14l-2 13-4 28-4 24-7 44-4 22-3 21v10l2 7v11l-5 4h-5l1 4v10l-5 4-2 1h-10l-23-7-22-6-14-7-5-6 1-6 4-3 8-2 17 1 19 2-2-9-7-14-7-16-4-8-4-10-4-9-11-25-5-11-5-12-6-13-5-12-6-14-4-8-4-10-4-9-1-5v-14l4-34 2-13 4-33 4-28 4-33 5-40v-13l-4-25-3-17-1-8-4-2-6 4-14 12-11 9-14 12-16 12-15 11-7 4-9 3h-5v-2l-4-1-2-5 1-8-3-6-2-2-2 11 3-1 1 5-2 7v7l-1 2h-2l-2 10 1 11 9-10 4-4 9-6 12-3 6 1 6 4 2 9-3 14-8 17-5 10-4 11-1 4v10l1 3h16l5 3 1 2v9l-5 12-7 11-8 10-8 9-11 8-11 6-16 9-7 4-16 10-5 1-8-16-2-5-1 13-4 10-6 9-9 7-16 9-17 10-11 6-17 10-23 13-11 7-11 6-16 9-17 10-23 13-10 6-13 8-10 5-17 10-31 18-21 12-26 15-15 9-18 10-15 9-11 4-13 1-9-1 1 2 8 1 2 3-2 1h-8l1 3h-8l-11-6-15-8-11-6-2-5 5-5 8-1 5 1-6-17-2-5-26 2h-24l-29-2-25-6-13-5-12-6-6-4-9-7-5-4v-2l-4-2-8-11-5-10-1-13 2-9 7-10 10-8 4-2 2-4 2-5v-9l-5-10-5-6-2-1v-2l-3-1v-2l-4-2-15-15v-2l-4-2-9-11-6-7-12-17-5-7-5-10-7-15-5-14-5-21-3-16-1-9v-27l2-12 5-14 9-12 10-6 5-2h15l8 7 7 12 15 36 8 7 10 3h11l-1-7-4-13-5-22-3-22v-50l4-23 5-17 9-19 9-12 9-8 11-6 8-2h13l10 3 8 5v2l3 1 6 9 5 13 3 13 2 16 1 20 1 101 3 23 6 18 7 14 8 10 8 6 3 2h3v-565l3-14 6-10 8-7 21-12 20-12 11-6 26-15 14-8 13-8 11-6 35-20 17-10 26-15 17-10 23-13 17-10 26-15 16-9 13-8 11-6 13-8 16-8zm-464 567-3 8-3 26-1 14v68l4 37 4 17 3 1-1-10-3-18-2-21-1-27v-21l1-29 3-31 1-3v-11zm787 53-2 5 1 4 3-5-1-4zm-224 8 1 3zm220 6 1 5h1v-5zm10 5-2 3 3 8 1 10 2 2v-3h2l1-2-1-10-2-7zm-219 27m8 70 1 2zm-1 3m-2 3 1 2zm-680 11-1 3 4 12 4 9 15 31 6 11 6 10 7 10 5 9 7 8 7 9 9 10v-3l-6-9-6-8-7-10-21-35-12-24-8-18-6-15zm852 34-4 11-6 24-3 9-4 17-5 18-1 7 7 8 8 10 6 13 7 30 4 26 2 5h1l-1-26-3-37-2-37-1-7-2-43-2-28zm-158 6m-601 14-1 1v9l1 6 2 25 1 4 1 13 2 9 2 1-1-16-1-6-2-33-2-13zm38 151-2 2 6-1zm-32 2v2l9 1 16-1 1-2zm89 4m11 95v3zm3 4v2h3l2 10 2 2 15-1v-1h-5l1-3-5-5-9-3z" fill="#FCFCFC"/>
<path transform="translate(1201,344)" d="m0 0h10l9 2 8 4 13 8 7 7 6 12 1 3v151l-14 8h-2l-1-40-3-5-7 1-25 14-17 10-156 90-24 14-28 16-24 14-26 15-22 13-3 1-2 4-3 7v604l1 2 5 1 12-6 41-24h1l1 46 3 5 2 1h8l22-12 17-10 26-15 24-14 26-15 28-16 26-15 24-14 28-16 24-14 26-15 11-6 1 18v19l-4 10-6 9-9 7-16 9-17 10-11 6-17 10-23 13-11 7-11 6-16 9-17 10-23 13-10 6-13 8-10 5-17 10-31 18-21 12-26 15-15 9-18 10-15 9-11 4-13 1-9-1 1 2 8 1 2 3-2 1h-8l1 3h-8l-11-6-15-8-11-6-2-5 5-5 8-1 5 1-6-17-2-5-26 2h-24l-29-2-25-6-13-5-12-6-6-4-9-7-5-4v-2l-4-2-8-11-5-10-1-13 2-9 7-10 10-8 4-2 2-4 2-5v-9l-5-10-5-6-2-1v-2l-3-1v-2l-4-2-15-15v-2l-4-2-9-11-6-7-12-17-5-7-5-10-7-15-5-14-5-21-3-16-1-9v-27l2-12 5-14 9-12 10-6 5-2h15l8 7 7 12 15 36 8 7 10 3h11l-1-7-4-13-5-22-3-22v-50l4-23 5-17 9-19 9-12 9-8 11-6 8-2h13l10 3 8 5v2l3 1 6 9 5 13 3 13 2 16 1 20 1 101 3 23 6 18 7 14 8 10 8 6 3 2h3v-565l3-14 6-10 8-7 21-12 20-12 11-6 26-15 14-8 13-8 11-6 35-20 17-10 26-15 17-10 23-13 17-10 26-15 16-9 13-8 11-6 13-8 16-8zm-464 567-3 8-3 26-1 14v68l4 37 4 17 3 1-1-10-3-18-2-21-1-27v-21l1-29 3-31 1-3v-11zm-101 186-1 3 4 12 4 9 15 31 6 11 6 10 7 10 5 9 7 8 7 9 9 10v-3l-6-9-6-8-7-10-21-35-12-24-8-18-6-15zm93 54-1 1v9l1 6 2 25 1 4 1 13 2 9 2 1-1-16-1-6-2-33-2-13zm38 151-2 2 6-1zm-32 2v2l9 1 16-1 1-2zm89 4m11 95v3zm3 4v2h3l2 10 2 2 15-1v-1h-5l1-3-5-5-9-3z" fill="#395B65"/>
<path transform="translate(1307,515)" d="m0 0h1l1 411 3 6 10 14 11 16 7 10 4-1 8-7 9-9 8-7 10-9 8-7 13-12 11-9 12-11 8-5 5-1h8l6 2 7 1 1-22-6 1-9-1-4-5-3-8-2-14-4-2 1-9 3-6v-7l-2-10v-8l2-9 7-10 7-7 16-8 8-2h27l12 5 8 6 5 5 5 6 6 12 4 16 2 10 2 25 4 18 7 25 4 14 2 23 9 27 9 28v11l-5 9-10 14-11 15 4 18 1 14v15l-2 27-4 21-3 17-6 31v12l6 11 4 13v14l-2 13-4 28-4 24-7 44-4 22-3 21v10l2 7v11l-5 4h-5l1 4v10l-5 4-2 1h-10l-23-7-22-6-14-7-5-6 1-6 4-3 8-2 17 1 19 2-2-9-7-14-7-16-4-8-4-10-4-9-11-25-5-11-5-12-6-13-5-12-6-14-4-8-4-10-4-9-1-5v-14l4-34 2-13 4-33 4-28 4-33 5-40v-13l-4-25-3-17-1-8-4-2-6 4-14 12-11 9-14 12-16 12-15 11-7 4-9 3h-5v-2l-4-1-2-5 1-8-3-6-2-2-2 11 3-1 1 5-2 7v7l-1 2h-2l-2 10 1 11v4l-3 3-1-77-13-23-15-27-7-11-8-7-8-6-5-4-8-11v-6l3-4 2-9 4-3h2l-10-16-4-8 1-5 1-1h5l8 8 14 19 8 10h2l5-12 5-4h4l-1 13-2 14v9l6 12 11 16zm217 449-2 5 1 4 3-5-1-4zm-4 14 1 5h1v-5zm10 5-2 3 3 8 1 10 2 2v-3h2l1-2-1-10-2-7zm-219 27m177 121-4 11-6 24-3 9-4 17-5 18-1 7 7 8 8 10 6 13 7 30 4 26 2 5h1l-1-26-3-37-2-37-1-7-2-43-2-28z" fill="#04B49A"/>
<path transform="translate(741,884)" d="m0 0h13l10 3 8 5v2l3 1 6 9 5 13 3 13 2 16 1 20 1 101 3 23 6 18 7 14 8 10 8 6 3 2h4v241l-2-1-26 2h-24l-29-2-25-6-13-5-12-6-6-4-9-7-5-4v-2l-4-2-8-11-5-10-1-13 2-9 7-10 10-8 4-2 2-4 2-5v-9l-5-10-5-6-2-1v-2l-3-1v-2l-4-2-15-15v-2l-4-2-9-11-6-7-12-17-5-7-5-10-7-15-5-14-5-21-3-16-1-9v-27l2-12 5-14 9-12 10-6 5-2h15l8 7 7 12 15 36 8 7 10 3h11l-1-7-4-13-5-22-3-22v-50l4-23 5-17 9-19 9-12 9-8 11-6zm-4 27-3 8-3 26-1 14v68l4 37 4 17 3 1-1-10-3-18-2-21-1-27v-21l1-29 3-31 1-3v-11zm-101 186-1 3 4 12 4 9 15 31 6 11 6 10 7 10 5 9 7 8 7 9 9 10v-3l-6-9-6-8-7-10-21-35-12-24-8-18-6-15zm93 54-1 1v9l1 6 2 25 1 4 1 13 2 9 2 1-1-16-1-6-2-33-2-13zm38 151-2 2 6-1zm-32 2v2l9 1 16-1 1-2z" fill="#03E0C1"/>
<path transform="translate(1230,493)" d="m0 0h5l3 3 1 3v41l-13 8-28 16-52 30-24 14-28 16-24 14-78 45-24 14-6 7-3 8-1 558-9 6-18 10-24 14-5 1-4-2-1-2v-604l4-8 5-5 17-10 130-75 24-14 28-16 24-14 78-45 21-12z" fill="#FCFCFC"/>
<path transform="translate(838,558)" d="m0 0 14 7 34 20-4 11v816l3 5 4 3h-20l-17-9-8-6-6-7v-3l-3-1-3-9-1-482v-328l3-14z" fill="#1B2F36"/>
<path transform="translate(1307,515)" d="m0 0h1l1 411 3 6 10 14 11 16 7 10 4-1 8-7 9-9 8-7 10-9 8-7 13-12 11-9 12-11 8-5 5-1h8l6 2 7 1 1-22-6 1-9-1-4-5-3-8-2-14-4-2 1-9 3-6v-7l-2-10v-8l2-9 7-10 7-7 16-8 8-2h27l12 5 8 6 5 5 5 6 6 12 4 16 2 10 2 25 4 18 7 25 4 14 2 23 9 27 9 28v11l-5 9-10 14-11 15-2 3-10-21-8-12-2-5-5 3-10 7-20 8-9 2h-16l-17-3-17-6-2 4-2-17-3-19-3-17-1-8-4-2-6 4-14 12-11 9-14 12-16 12-15 11-7 4-9 3h-5v-2l-4-1-2-5 1-8-3-6-2-2-2 11 3-1 1 5-2 7v7l-1 2h-2l-2 10 1 11v4l-3 3-1-77-13-23-15-27-7-11-8-7-8-6-5-4-8-11v-6l3-4 2-9 4-3h2l-10-16-4-8 1-5 1-1h5l8 8 14 19 8 10h2l5-12 5-4h4l-1 13-2 14v9l6 12 11 16zm217 449-2 5 1 4 3-5-1-4zm-4 14 1 5h1v-5zm10 5-2 3 3 8 1 10 2 2v-3h2l1-2-1-10-2-7z" fill="#FEAAA9"/>
<path transform="translate(1293,507)" d="m0 0h9l4 4 1 2v413l-4-4-4-6-1-399-5 2-25 14-24 14-28 16-24 14-208 120-11 7h-2l-4 10v600l5-1 17-10 156-90 24-14 28-16 24-14 71-41 4-5 2-4 1-150 3 3 5 9 1 76 5-10 7-8 12-8 12-3 6 1 6 4 2 9-3 14-8 17-5 10-4 11-1 4v10l1 3h16l5 3 1 2v9l-5 12-7 11-8 10-8 9-11 8-11 6-16 9-7 4-16 10-5 1-11-22-1-5-1-17-24 14-130 75-28 16-26 15-17 10-52 30-4 2h-8l-5-4-1-3v-604l4-9 6-7 104-60 24-14 28-16 24-14 78-45 27-16h2v-2l15-8 21-13zm7 465 1 3zm19 108 1 2zm-1 3m-2 3 1 2z" fill="#03DFC1"/>
<path transform="translate(741,884)" d="m0 0h13l10 3 8 5v2l3 1 6 9 5 13 3 13 2 16 1 20 1 101 3 23 6 18 7 14 8 10 8 6 3 2h4v46l-2-3-3-6-5-5-6-4-11-3-14-1-10-4-5-6-4-11-3-27-4-12-6-9-8-6-8-4-4-13-3-18-2-21-1-27v-21l1-29 3-31 1-3 1-11-2 1-2 7-3 26-1 14v68l4 37 2 10v8l-20 1-15 2-1-5h-2l-4-10-6-27-3-22v-50l4-23 5-17 9-19 9-12 9-8 11-6z" fill="#05B59B"/>
<path transform="translate(1201,344)" d="m0 0h10l9 2 8 4 13 8 7 7 3 5 1 7-8-2-10 4-17 10-26 15-24 14-28 16-26 15-24 14-28 16-24 14-21 12-26 15-24 14-71 41-7 8-1 2-4-1-25-14-17-10-3-1-3 2 2-5 4-6 7-6 21-12 20-12 11-6 26-15 14-8 13-8 11-6 35-20 17-10 26-15 17-10 23-13 17-10 26-15 16-9 13-8 11-6 13-8 16-8z" fill="#2E4951"/>
<path transform="translate(1472,770)" d="m0 0h27l12 5 8 6 5 5 5 6 6 12 4 16 2 10 2 25 4 18 7 25 4 14v21l-5 10-7 7-14 8-11 3-8 1h-10l-16-3-12-5-10-9-5-11-2-8-1-9v-18l1-24-6 1-9-1-4-5-3-8-2-14-4-2 1-9 3-6v-7l-2-10v-8l2-9 7-10 7-7 16-8z" fill="#2D4851"/>
<path transform="translate(471,1258)" d="m0 0h10l7 4 4 3 5 14v16l-4 27-1 12v10l3 6 3 3v2l4 2 4 5 2 7h2l2-9 3-13 3-15 1-9 1-23 3-10 7-8 9-3 9 3 5 3 4 7 2 5 1 8v10l-2 17-5 17-6 13-6 11-9 12-4 6-3 3h-2l-2 4-11 8-11 6-6 3-10 7-9 5-13 8-3 2-7 1-5 5-15 9-13 8-4 1-6-6-2-5-1-10 4-18v-7l-4-11-6-8-5-10-2-8v-11l4-10 4-5 9-5 15-1 8-4 5-10 2-11 3-21 4-15 7-14 6-7zm-1 27-3 4-6 21-5 22-4 30-3 34v21l1 14 2-2v-11l1-9 2-33 2-21 4-21 3-16 5-20 3-9v-4zm71 11-1 3v25l-5 23-5 14-10 19-4 5-4 7 4-2 8-11 10-17 6-19 2-9 1-9v-25zm-113 74-1 3 7 14 8 10 5 2-2-5-4-4-10-19zm60 8-4 5-7 11-11 12-5 6 6-2 8-7 5-5 11-15v-5z" fill="#08E0C2"/>
<path transform="translate(1154,649)" d="m0 0h15l10 4 8 6 6 9 4 13 1 6v17l-3 17-7 21-8 16-5 9h-1l-3-18-6-8-4-2h-13l-16 8-11 7-9 8-10 15-6 14-2 9-1 15-5-1-8-6-7-9-4-11-2-15 1-17 5-21 8-19 8-15 10-14 12-13 11-10 13-8 11-5z" fill="#01E0C1"/>
<path transform="translate(1457,895)" d="m0 0 1 4v18l2 13 4 11 4 6 7 6 12 5 16 3h10l16-3 14-7 9-8 5-10 1-14h1l1 16 9 27 9 28v11l-5 9-10 14-11 15-2 3-10-21-8-12-2-5-5 3-10 7-20 8-9 2h-16l-17-3-17-6-2 4-2-17-3-19-3-17v-6l6-5 6-10 5-12 5-21 2-15h7zm67 69-2 5 1 4 3-5-1-4zm-4 14 1 5h1v-5zm10 5-2 3 3 8 1 10 2 2v-3h2l1-2-1-10-2-7z" fill="#A4F5EC"/>
<path transform="translate(1257,942)" d="m0 0 3 1v34l-5 5-23 13-24 14-182 105-22 13-4-1v-34l6-5 104-60 24-14 28-16 24-14 52-30z" fill="#01E0C1"/>
<path transform="translate(1256,811)" d="m0 0 4 1v34l-4 4h-2l-7-8-1-1h-5l-1 5 4 8v3l-28 16-182 105-24 14-7 4-3-1v-34l5-5 25-14 17-10 104-60 24-14 28-16 24-14 26-15z" fill="#01E0C1"/>
<path transform="translate(1205,1047)" d="m0 0 5 1 1 1v38l-4 7-26 15-24 14-52 30-5 1-2-1-1-3v-34l3-7 6-5 28-16 52-30z" fill="#01C8AC"/>
<path transform="translate(1148,738)" d="m0 0h13l6 4 5 7 2 11v8l-8 11-9 11-8 7-13 10-17 8-8 2h-14l-5-1 1-16 3-12 8-16 9-12 9-8 17-10z" fill="#A3F4EB"/>
<path transform="translate(539,1279)" d="m0 0 9 3 5 3 4 7 2 5 1 8v10l-2 17-5 17-6 13-6 11-9 12-4 6-3 3h-2l-2 4-11 8-11 6-2-1 10-9 11-13 4-6 3-7 8-14 6-19 2-9 1-9v-25l-1-1v25l-5 23-5 14-10 19-4 5-7 9-5 3 3-12 2-18 3-9 5-26 1-9 1-23 3-10 7-8z" fill="#10BAA1"/>
<path transform="translate(1558,919)" d="m0 0h1l1 16 9 27 9 28v11l-5 9-10 14-11 15-2 3-10-21-5-8 2-6 5-9-2-6-8-16-7-15v-2l11-4 11-7 7-8 3-7z" fill="#FEABAA"/>
<path transform="translate(1451,795)" d="m0 0h1l1 23 3 13 1 4h2l2-4 5-4 7 1 4 4 1 7-3 7-6 5-2 1h-7v14l-1 18h-1v-9l-6 1-9-1-4-5-3-8-2-14-4-2 1-9 3-6v-7l-2-10v-8l2-9 1 4v20l3-8 5-10 4-5z" fill="#FDAAA9"/>
<path transform="translate(1092,981)" d="m0 0 4 1 2 3-1 9-4 6-13 8-52 30-23 13-5-2v-10l4-7 15-9 52-30z" fill="#01C9AD"/>
<path transform="translate(1091,850)" d="m0 0h5l2 3v7l-4 8-13 8-52 30-22 13h-5l-2-2v-9l3-6 5-4 78-45z" fill="#01C9AD"/>
<path transform="translate(1129,503)" d="m0 0h7l1 1v9l-5 8-22 13-52 30-10 6h-6l-2-2v-8l6-9 52-30 24-14z" fill="#2B464F"/>
<path transform="translate(1137,688)" d="m0 0h9l4 2 3 5 1 9-2 11-6 12-9 10-10 5h-7l-6-4-2-5v-13l4-11 7-11 8-7z" fill="#A4F5EC"/>
<path transform="translate(1524,1395)" d="m0 0 5 1 1 5v11l-5 4h-5l1 4v10l-5 4-2 1h-10l-23-7-22-6-14-7-5-6 1-6 4-3h15l-1 4 4 3 21 7 15 2 12-2 6-2-3-13v-3z" fill="#3A535C"/>
<path transform="translate(1529,1365)" d="m0 0h1l-1 11-1 8v12h-14l3 12v4l-6 3-14 2-17-3-19-7-3-4 1-2-10-1 4-2 17 1 19 2-2-9-1-3h9l8-2 6-4v-12h16l3-1z" fill="#FAAAA9"/>
<path transform="translate(736,1205)" d="m0 0h1l5 30 5 19v3l4 2 15 12 17 12 18 11 19 10 12 5v4l-9-2-17-8-14-8-18 9-13 3-10 1h-11l4-2 16-1h-16l-9-1v2l4 1h-6v-4l24-1 15-3 10-4 4-4-12-8-19-14-14-12-10-9-8-7-11-11-9-11-3-3 1-2 4 3v-3l11 12 7 8 8 8 8 7h1l-5-23-2-11v-6l2 3 1 5zm31 97-2 2 6-1z" fill="#F0FBFA"/>
<path transform="translate(1089,1255)" d="m0 0h2l-1 7-8 16-8 9-10 6-3 1h-7l-6-3-4-7 1-4 23-13z" fill="#2B464F"/>
<path transform="translate(836,1395)" d="m0 0h2l3 6 8 7 18 10 7 2 13 1v1l-13 1-9-1 1 2 8 1 2 3-2 1h-8l1 3h-8l-11-6-15-8-11-6-2-5 5-5 8-1 5 1zm-1 8v3zm3 4v2h3l2 10 2 2 15-1v-1h-5l1-3-5-5-9-3z" fill="#FCFBFB"/>
<path transform="translate(1302,1129)" d="m0 0 1 4-4 17 9-2 15-8 9-8 2-3 4 1-2 5-7 7-13 8-15 6h-4l-1 11-2 23-5 2 1-18 1-7-4-2-7-9-4-9 4-2 8 14 3 3 6-27z" fill="#EEFBFA"/>
<path transform="translate(1014,565)" d="m0 0 5 1 3 3v11l-5 10-7 6-2 1h-6l-3-3-1-2v-9l5-10 8-7z" fill="#2B464F"/>
<path transform="translate(1524,961)" d="m0 0h2l9 19 8 16-2 6-6 10-4-4-15-25 1-6zm0 3-2 5 1 4 3-5-1-4zm-4 14 1 5h1v-5zm10 5-2 3 3 8 1 10 2 2v-3h2l1-2-1-10-2-7z" fill="#FBFCFC"/>
<path transform="translate(852,704)" d="m0 0 7 1 6 5 4 9v7l-4 4-2 1h-6l-7-6-4-8v-8l4-4z" fill="#375963"/>
<path transform="translate(853,779)" d="m0 0 6 1 6 5 4 9v7l-4 4-2 1h-6l-8-7-3-7v-8l2-3z" fill="#375A64"/>
<path transform="translate(1307,515)" d="m0 0h1l1 411 1 5-4-5z" fill="#A6F5EC"/>
<path transform="translate(1307,983)" d="m0 0 4 5 6 11-1 2-2-2-2 11 3-1 1 5-2 7v7l-1 2h-2l-2 10 1 11v4l-3 3z" fill="#FDFDFD"/>
<path transform="translate(1334,1050)" d="m0 0 4 1-2 5-10 18-11 23-7 19h-1v-12l8-20 13-25zm-15 30 1 2zm-1 3m-2 3 1 2z" fill="#ECFBF9"/>
<path transform="translate(1518,973)" d="m0 0 1 2-4 8-11 5-15 3-4-1 16-8z" fill="#01E0C1"/>
<path transform="translate(1069,504)" d="m0 0 4 1 1 1-1 8-4 5-6 1-1-1v-8l5-6z" fill="#2B464F"/>
<path transform="translate(449,1404)" d="m0 0 1 3v10l1 12v-11l1-9 2 4 9-6 2 1-2 3 2 1-9 6-2 1v18l-4 1-1-4-1-14v-14z" fill="#E4FAF8"/>
<path transform="translate(1317,1080)" d="m0 0 4 1-1 5-8 19-4 11h-1v-12l8-20zm1 3m-2 3 1 2z" fill="#E9FBF9"/>
<path transform="translate(1318 1e3)" d="m0 0 4 5 6 8 4 3 6 1-4 2-5 2h-5v-2l-4-1-2-5 1-8z" fill="#FDFDFD"/>
<path transform="translate(522,1381)" d="m0 0v3l-8 11-12 13-6 5-2-1 9-12 5-6 4-2 5-5z" fill="#EAFBF9"/>
<path transform="translate(769,1300)" d="m0 0 2 1-4 3v2l-16 2h-11l4-2 16-1h-16l-9-1v2l4 1h-6v-4l24-1z" fill="#DFFAF7"/>
<path transform="translate(853,779)" d="m0 0 6 1 6 5 4 9v7l-2 3h-2v-9l-4-8-6-5-4-2z" fill="#2B464F"/>
<path transform="translate(540,1293)" d="m0 0h3l2 13v10l-2 18h-1v-34l-1-1v25h-1l-1-30z" fill="#E0FAF7"/>
<path transform="translate(1307,983)" d="m0 0h1l1 61 1 7v4l-3 3z" fill="#B4F6EF"/>
<path transform="translate(852,704)" d="m0 0 7 1 6 5 4 9v7l-2 3h-2v-9l-5-10-4-3-6-1z" fill="#2B464F"/>
<path transform="translate(1344,1028)" d="m0 0 6 1 2 2h-9l-10 3-10 6-12 12 2-5 7-8 12-8z" fill="#E7FBF8"/>
<path transform="translate(463,1407)" d="m0 0 2 1-2 3 2 1-9 6-3 1-1-1v-9l2 4z" fill="#E8FBF9"/>
<path transform="translate(540,1293)" d="m0 0h3l1 6-3-2v27h-1l-1-30z" fill="#DBF9F6"/>
<path transform="translate(1499,1294)" d="m0 0h1l1 5v21l-2-4-1-10h1z" fill="#66E5D4"/>
<path transform="translate(722,892)" d="m0 0 2 1-14 14-2-1 11-12z" fill="#59D8C6"/>
</svg>
