<!DOCTYPE svg PUBLIC "-//W3C//DTD SVG 1.1//EN" "http://www.w3.org/Graphics/SVG/1.1/DTD/svg11.dtd">
<!-- Uploaded to: SVG Repo, www.svgrepo.com, Transformed by: SVG Repo Mixer Tools -->
<svg width="800px" height="800px" viewBox="0 0 20 20" xmlns="http://www.w3.org/2000/svg" fill="#654fdf">
<g id="SVGRepo_bgCarrier" stroke-width="0"/>
<g id="SVGRepo_tracerCarrier" stroke-linecap="round" stroke-linejoin="round"/>
<g id="SVGRepo_iconCarrier"> <rect x="0" fill="none" width="20" height="20"/> <g> <path d="M19 16V3c0-.55-.45-1-1-1H3c-.55 0-1 .45-1 1v13c0 .55.45 1 1 1h15c.55 0 1-.45 1-1zM4 4h13v4H4V4zm1 1v2h3V5H5zm4 0v2h3V5H9zm4 0v2h3V5h-3zm-8.5 5c.28 0 .5.22.5.5s-.22.5-.5.5-.5-.22-.5-.5.22-.5.5-.5zM6 10h4v1H6v-1zm6 0h5v5h-5v-5zm-7.5 2c.28 0 .5.22.5.5s-.22.5-.5.5-.5-.22-.5-.5.22-.5.5-.5zM6 12h4v1H6v-1zm7 0v2h3v-2h-3zm-8.5 2c.28 0 .5.22.5.5s-.22.5-.5.5-.5-.22-.5-.5.22-.5.5-.5zM6 14h4v1H6v-1z"/> </g> </g>
</svg>