<?xml version="1.0" encoding="UTF-8"?>
<svg version="1.1" viewBox="0 0 2048 1575" width="1280" height="1280" xmlns="http://www.w3.org/2000/svg">
<path transform="translate(1501,259)" d="m0 0h8l10 4 6 5 4 6 2 9 12-5 10-2h11l13 3 10 6 9 8 7 9 6 15 3 11 16 16 4 5v3l-2 1 4 8 2 8v17l-3 9-4 6-9 8-10 3 1 10 1 5v19l-4 16-4 8-1 5 11 27 3 5 4-1h12l12 3 47 3 21 3 23 5 16 5 15 7 10 6 10 9 10 13 8 12 12 20 12 22 12 23 11 23 5 12 2 1 4-19 8-32 3-10 2-2-11-14-8-16-8-21-5-13-7-12-7-10-1-3v-8l4-5h7l5 3 10 9 9 9 10 13 5 8v2h2l2-75 2-44 2-5 6-2 4 4 5 16 5 32 2 22 4-44 3-27 3-11 4-5 7-1 4 5 2 15 1 14v56l3-16 5-26 6-31 3-2 7 1 5 5 2 7v14l-4 27-5 25-2 8h2l1-5 9-25 5-13 3-3h6l4 5v9l-5 29-6 24-7 24-12 44-3 10h5v53l-1 59-2 50-4 37-4 24-5 21-7 19-6 12-8 10-7 7-12 6-9 2h-11l-12-2-13-5-15-8-14-11-12-11-1-2h-2l-7 41-7 27-8 26-10 25-9 20-11 22-5 8-1 5v26l3 22 4 39 5 47 3 27 5 47 8 73 9 85 7 64 8 74 2 23h-171l-3-13-10-49-16-75-10-48-3-16-3-13-11-52-5-26-1-3-7 51-9 62-5 34-6 43-9 59-3 21-3 25h-180l4-36 7-67 3-22 6-57 1-10-5-10-5-17-1-10-5-6-7-11-20-30v20l-11 10-7 5 1 23v82l-4 84-2 28-2 22-1 2h-165l-1-1-4-36-4-34-6-47-5-41-6-50-4-35-1-1-6 27-8 37-14 61-8 37-5 23-3 12-6 27-3 12-2 9h-387l-1-1-4-26-9-51-12-70-18-104-1-14h-2l-1 11-4 27-5 34-4 25-11 72-10 65-5 32h-202l1-18 4-31 5-43 6-52 4-32 2-20 3-23 3-26 5-45 3-24 1-12-5-4v-11l3-39 1-30-14-3-20-8-16-8-18-11-16-13-13-12-12-13-12-16-12-19-14-27-7-16-6-17-1-6-8-10-11-18-10-19-13-31-14-40-12-39-7-26-14-56-5-23-15-8-13-10-18-18-10-13-8-12-34-6-18-5-10-5-3-3 1-5 6-3h45l11 1 3 1v-3l-4-2-11-9-10-9-8-7-15-15-8-11-1-6 2-2 8 1 16 8 13 9 11 8-4-5-10-10-3-2v-2l-4-2-15-16-9-14v-6l1-2 8 1 16 8 14 9 17 12 18 13 9 7-6-8-9-10-13-18-10-16-5-11-1-8 3-5 4-1 11 5 14 11 20 18 17 17 7 8 10 10 9 11 2 2 1-30 2-14 3-10 5-7 2-1h8l4 4 1 3 3 46 4 23 8 29 4 29 2 26 10 20 10 19 15 28 10 19 3 1 2-5 13-22 17-28 11-18 13-21 12-20 13-21 21-35 5-6 14-10 25-12 21-7 17-5 10-3 7-8 8-6 9-4 7-2 1-3 2-22v-9l-8-13-4-10-2-9v-18h-8l-10-3-9-7-5-8-3-9v-15l3-9 1-5-3-7 1-9 4-5h2l-4-8-1-8 2-7 4-5 6-3-1-5-1-3v-8l3-7 7-6 3-1 11-1 1-9 3-6 7-6 6-2 8 1 6 3h3l3-7 8-7 6-2h7l9 4 5 4 4-2 5-4 4-2h11l8 5 5 7 4-1h9l6 3 7 8 3 9v6h11l6 4 4 7v15l-4 10 1 3 4 4 2 4v10l-6 11-3 5 5 9 1 4v16l-3 10-6 8-5 4-9 4h-6v27l-4 15-5 9 1 13 5 20 12 5 11 7 4 3 34 1 5-25 7-31 8-31 1-2 9 1 7 2-2-10-7-19-8-30-10-30-9-21-8-23-2-7v-8l1-1h6l8 11 9 15 5 10h1l-7-30-5-30v-14l3-4 5 1 5 8 10 27 6 19 4 15 1 2-2-14-5-30-2-20v-17l3-3 5 1 6 9 4 11 4 13 6 27 1 1-1-22v-33l4-7 5 1 3 5 4 11 3 9 5 27 4 29 6 28 2 8 2-2 6-15 9-17 7-9 4-3h6l3 3 1 8-3 17-6 27-4 36-5 25-6 16-7 12v3l5 2 1 87 1 5 9 6 51 36 18 13 9 7 6 4 25 7 2 1 1-10 11-71 7-44v-10l-6-21-4-20-3-31-2-21-6-25-8-28v-7l6-5 8 1 8 8 8 14 5 11 6 19h2l10-24 6-13 5-11 8-16 8-15 9-14 8-10 5-3 5 1 3 4v19l-5 21-11 33-3 6 1 1 10-16 7-10 12-17 11-14 11-12 5-3h5l2 2v8l-6 18-12 26-9 16 4-5 8-11 11-14 5-6 8-5 5 1 1 1-1 10-7 17-10 19-14 24-3 5 32-14 16-5 5-1h9l2 2-1 7-8 8-18 12-22 12-5 3-8 26-8 18-9 16-8 10-7 7v12l4 37 5 75 1 28 7 2h8l21-7 26-4h17l14 1 4-22v-5l-6-7-6-12-3-9-2-17-7-8-4-6v-2l-4-2-5-5-5-8-2-7v-13l3-11 1-16 4-20 5-13 6-10 9-11 7-7 9-6h2l-3-8-1-6v-9l4-13 5-10 7-9 6-7 11-8 10-5 9-3 6-1h13l10 2 12 5 11 7 7 6 10 13 7 14 3 11 1 6v11l-4 16-3 6 2 5 8 14 5 14 3 19 1 22 3 10v10l-3 11-6 9-8 6-6 4-9 10-2 7-3 11-8 16-9 10-5 4h-2l1 17 14 1 13 4 12 6 11 8 9 9 23 8 14 6 12 7 14 9v-12l2-22 5-29 6-20 6-11 8-10 13-10 16-11 22-14 21-13 13-8 22-13 18-11 3-2 3-6 6-7 8-4 6-1v-25l-1-19-11-11-8-13-5-15-2-11v-4h-14l-10-4-7-6-6-9-3-10v-18l5-8 3-3h2l-3-12v-26l-8-14-2-5v-16l5-10 8-7 25-12 17-12 12-5zm113 78-1 1v6l-1 3h6v-3l-3-7zm-812 501-1 13-2 77v25l3 35 3 30 8 85 7 75 3 40 2 9 2-1 4-28 4-37 4-33 7-60 5-41 3-22 2-18 3-21 4-33 5-43-5-5-10-8-14-11-13-10-15-13-7-5zm623 13-1 26 2 37-3 35v36h1l8-40 4-22-1-18-8-50zm-157 92-1 4v7l2 1 1-2v-7zm-3 20m-439 302 6 37 14 84 10 61 8 49 6 38 3 17h2l2-64 4-75 5-62 3-26 1-13-21-12-16-11-13-11-12-12z" fill="#2DB2AB"/>
<path transform="translate(544,300)" d="m0 0h7l9 4 5 4 4-2 5-4 4-2h11l8 5 5 7 4-1h9l6 3 7 8 3 9v6h11l6 4 4 7v15l-4 10 1 3 4 4 2 4v10l-6 11-3 5 5 9 1 4v16l-3 10-6 8-5 4-9 4h-6v27l-4 15-5 9 1 13 5 20 12 5 11 7 4 3 24 1 10 1-1 11-5 30-4 37v36l3 17 5 12 8 13 10 13 11 13 15 16 20 20 8 7 15 14 11 9 12 11 11 9 4 4h-2l-1 46-1 44v25l3 35 3 30 8 85 7 75 3 40 2 8 1 3-3 26 1 6 2 6 6 35 14 84 10 61 8 49 6 38 2 11v6h2v18l-1 6h-205l-1-1-4-26-9-51-12-70-18-104-1-14h-2l-1 11-4 27-5 34-4 25-11 72-10 65-5 32h-202l1-18 4-31 5-43 6-52 4-32 2-20 3-23 3-26 5-45 3-24 1-12-5-4v-11l3-39 1-30-14-3-20-8-16-8-18-11-16-13-13-12-12-13-12-16-12-19-14-27-7-16-6-17-1-6-8-10-11-18-10-19-13-31-14-40-12-39-7-26-14-56-5-23-15-8-13-10-18-18-10-13-8-12-34-6-18-5-10-5-3-3 1-5 6-3h45l11 1 3 1v-3l-4-2-11-9-10-9-8-7-15-15-8-11-1-6 2-2 8 1 16 8 13 9 11 8-4-5-10-10-3-2v-2l-4-2-15-16-9-14v-6l1-2 8 1 16 8 14 9 17 12 18 13 9 7-6-8-9-10-13-18-10-16-5-11-1-8 3-5 4-1 11 5 14 11 20 18 17 17 7 8 10 10 9 11 2 2 1-30 2-14 3-10 5-7 2-1h8l4 4 1 3 3 46 4 23 8 29 4 29 2 26 10 20 10 19 15 28 10 19 3 1 2-5 13-22 17-28 11-18 13-21 12-20 13-21 21-35 5-6 14-10 25-12 21-7 17-5 10-3 7-8 8-6 9-4 7-2 1-3 2-22v-9l-8-13-4-10-2-9v-18h-8l-10-3-9-7-5-8-3-9v-15l3-9 1-5-3-7 1-9 4-5h2l-4-8-1-8 2-7 4-5 6-3-1-5-1-3v-8l3-7 7-6 3-1 11-1 1-9 3-6 7-6 6-2 8 1 6 3h3l3-7 8-7z" fill="#FDB344"/>
<path transform="translate(1501,259)" d="m0 0h8l10 4 6 5 4 6 2 9 12-5 10-2h11l13 3 10 6 9 8 7 9 6 15 3 11 16 16 4 5v3l-2 1 4 8 2 8v17l-3 9-4 6-9 8-10 3 1 10 1 5v19l-4 16-4 8-1 5 11 27 3 5 4-1h12l12 3 47 3 21 3 23 5 16 5 15 7 10 6 10 9 10 13 8 12 12 20 12 22 12 23 11 23 5 12 2 1 4-19 8-32 3-10 2-2-11-14-8-16-8-21-5-13-7-12-7-10-1-3v-8l4-5h7l5 3 10 9 9 9 10 13 5 8v2h2l2-75 2-44 2-5 6-2 4 4 5 16 5 32 2 22 4-44 3-27 3-11 4-5 7-1 4 5 2 15 1 14v56l3-16 5-26 6-31 3-2 7 1 5 5 2 7v14l-4 27-5 25-2 8h2l1-5 9-25 5-13 3-3h6l4 5v9l-5 29-6 24-7 24-12 44-3 10h5v53l-1 59-2 50-4 37-4 24-5 21-7 19-6 12-8 10-7 7-12 6-9 2h-11l-12-2-13-5-15-8-14-11-12-11-1-2h-2l-7 41-7 27-8 26-10 25-9 20-11 22-5 8-1 5v24l-3 3-16 3-25 3-48 3-30 1-9 11-16 16-17 13-13 8-15 8-18 7-25 6-15 2-22 1-28-2-29-6-21-7-1-1-11-70-11-69-9-55-8-50-15-86-6-30-5-16-7-12-9-10-2-1v-15l2-22 5-29 6-20 6-11 8-10 13-10 16-11 22-14 21-13 13-8 22-13 18-11 3-2 3-6 6-7 8-4 6-1v-25l-1-19-11-11-8-13-5-15-2-11v-4h-14l-10-4-7-6-6-9-3-10v-18l5-8 3-3h2l-3-12v-26l-8-14-2-5v-16l5-10 8-7 25-12 17-12 12-5zm113 78-1 1v6l-1 3h6v-3l-3-7zm-189 514-1 26 2 37-3 35v36h1l8-40 4-22-1-18-8-50z" fill="#CA3435"/>
<path transform="translate(718,276)" d="m0 0 5 1 6 9 4 11 4 13 6 27 1 1-1-22v-33l4-7 5 1 3 5 4 11 3 9 5 27 4 29 6 28 2 8 2-2 6-15 9-17 7-9 4-3h6l3 3 1 8-3 17-6 27-4 36-5 25-6 16-7 12v3l5 2 1 87 1 5 9 6 51 36 18 13 9 7 6 4 25 7 2 1 1-10 11-71 7-44v-10l-6-21-4-20-3-31-2-21-6-25-8-28v-7l6-5 8 1 8 8 8 14 5 11 6 19h2l10-24 6-13 5-11 8-16 8-15 9-14 8-10 5-3 5 1 3 4v19l-5 21-11 33-3 6 1 1 10-16 7-10 12-17 11-14 11-12 5-3h5l2 2v8l-6 18-12 26-9 16 4-5 8-11 11-14 5-6 8-5 5 1 1 1-1 10-7 17-10 19-14 24-3 5 32-14 16-5 5-1h9l2 2-1 7-8 8-18 12-22 12-5 3-8 26-8 18-9 16-8 10-7 7v12l4 37 5 75 1 28 7 2h8l21-7 26-4h17l14 1 4-22v-5l-6-7-6-12-3-9-2-17-7-8-4-6v-2l-4-2-5-5-5-8-2-7v-13l3-11 1-16 4-20 5-13 6-10 9-11 7-7 9-6h2l-3-8-1-6v-9l4-13 5-10 7-9 6-7 11-8 10-5 9-3 6-1h13l10 2 12 5 11 7 7 6 10 13 7 14 3 11 1 6v11l-4 16-3 6 2 5 8 14 5 14 3 19 1 22 3 10v10l-3 11-6 9-8 6-6 4-9 10-2 7-3 11-8 16-9 10-5 4h-2l1 17h6v1h-6l4 65 12 212 11 192v15l-6 2-27 5-33 4-14 1h-52l-29-3-22-4-21-5-11-4-6 42-16 105-4 26h-11l-26-4-24-6-25-9-21-10-16-10-11-8-11-9-13-13-2-1-3-6 2-22 4-32 6-50 7-63 7-56 6-49 3-21 4-33 5-43-5-5-13-10-15-12-9-7-14-12-7-5v-2l-4-2-15-13-14-12-13-12-8-7-16-15-21-21-7-8-12-14-12-17-8-16-3-13-1-7v-36l4-37 6-36 5-27 8-35 8-31 1-2 9 1 7 2-2-10-7-19-8-30-10-30-9-21-8-23-2-7v-8l1-1h6l8 11 9 15 5 10h1l-7-30-5-30v-14l3-4 5 1 5 8 10 27 6 19 4 15 1 2-2-14-5-30-2-20v-17z" fill="#2DB2AB"/>
<path transform="translate(1012,1162)" d="m0 0 11 3 25 6 25 4 22 2h52l33-3 36-6 11-2 1 2 10 175v12h15l16-2 16-5 16-7 11-7h2l1 4 1 19v82l-4 84-2 28-2 22-1 2h-165l-1-1-4-36-4-34-6-47-5-41-6-50-4-35-1-1-6 27-8 37-14 61-8 37-5 23-3 12-6 27-3 12-2 9h-182l1-56 1-32 4-75 5-62 3-26 2-13 6 2 20 8 24 7 20 4 26 3 1-12 24-159z" fill="#36324D"/>
<path transform="translate(625,1244)" d="m0 0h3v2h3v2l4 1 4 2v2l5 1v2l4 1 4 2v2l6 2 6 3v2l5 1v2l7 2 4 3 9 4v2l6 2 12 6 7 3 14 5 8 3h16l12-5 12-7 16-13 16-15 9-10 5-6 2 4v10l2 3 5 27 14 86 8 47 9 56 6 36 5 31v6h2v18l-1 6h-205l-1-1-4-26-9-51-12-70-18-104-1-14h-2l-1 11-4 27-5 34-4 25-11 72-10 65-5 32h-202l1-18 4-31 5-43 6-52 4-32 2-20 3-23 3-26 5-45 4-32h2v-2l5 2 12 10 6 4v2l4 1 3 2v2h3v2h3v2h3v2l5 1v2l5 1 4 3 15 7 15 4h13l16-4 25-10 27-14 25-15z" fill="#CA3535"/>
<path transform="translate(1171,385)" d="m0 0h13l10 2 12 5 11 7 7 6 10 13 7 14 3 11 1 6v11l-4 16-3 6 2 5 8 14 5 14 3 19 1 22 3 10v10l-3 11-6 9-8 6-6 4-9 10-2 7-3 11-8 16-9 10-5 4h-2l1 17h6v1h-6l4 65 12 212 11 192v15l-6 2-27 5-33 4-14 1h-52l-29-3-22-4-21-5-11-4 1-11 16-105 15-100 25-165 10-67 2-10 6-2 22-4 1-10 5-29v-5l-6-7-6-12-3-9-2-17-7-8-4-6v-2l-4-2-5-5-5-8-2-7v-13l3-11 1-16 4-20 5-13 6-10 9-11 7-7 9-6h2l-3-8-1-6v-9l4-13 5-10 7-9 6-7 11-8 10-5 9-3z" fill="#F7E9DB"/>
<path transform="translate(1171,385)" d="m0 0h13l10 2 12 5 11 7 7 6 10 13 7 14 3 11 1 6v11l-4 16-3 6 2 5 8 14 5 14 3 19 1 22 3 10v10l-3 11-6 9-8 6-6 4-9 10-2 7-3 11-8 16-9 10-5 4h-2l1 17h6v1h-6l4 65 2 36v14l-15 5-21 4h-32l-22-4-20-7-19-10-7-5 1-14 9-58 2-5 27-5 1-10 5-29v-5l-6-7-6-12-3-9-2-17-7-8-4-6v-2l-4-2-5-5-5-8-2-7v-13l3-11 1-16 4-20 5-13 6-10 9-11 7-7 9-6h2l-3-8-1-6v-9l4-13 5-10 7-9 6-7 11-8 10-5 9-3z" fill="#FD9853"/>
<path transform="translate(1501,259)" d="m0 0h8l10 4 6 5 4 6 2 9 12-5 10-2h11l13 3 10 6 9 8 7 9 6 15 3 11 16 16 4 5v3l-2 1 4 8 2 8v17l-3 9-4 6-9 8-10 3 1 10 1 5v19l-4 16-4 8-1 5 11 27 3 5 4-1h12l15 4-2 1-1 14-6 29-6 21-7 16-7 9-10-4h-3l-22 44-4-1-22-15-19-13-4 2-8 7-6-3-10-8-9-9-11-15-9-17-4-11v-2l-3-1 2-1 3-6 6-7 8-4 6-1v-25l-1-19-11-11-8-13-5-15-2-11v-4h-14l-10-4-7-6-6-9-3-10v-18l5-8 3-3h2l-3-12v-26l-8-14-2-5v-16l5-10 8-7 25-12 17-12 12-5zm113 78-1 1v6l-1 3h6v-3l-3-7z" fill="#FD8740"/>
<path transform="translate(90,524)" d="m0 0 9 3 7 4 17 14 16 15 15 15 7 8 10 10 9 11 2 2 1-30 2-14 3-10 5-7 2-1h8l4 4 1 3 3 46 4 23 8 29 4 29 2 26 10 20 10 19 15 28 14 27 19 37 10 19 21 41 18 36 4 11 2 11-1 13-4 11-8 10-12 9-15 7-15 5-13 3-9-1-10-5-10-9-8-10-11-18-10-19-13-31-14-40-12-39-7-26-14-56-5-23-15-8-13-10-18-18-10-13-8-12-34-6-18-5-10-5-3-3 1-5 6-3h45l11 1 3 1v-3l-4-2-11-9-10-9-8-7-15-15-8-11-1-6 2-2 8 1 16 8 13 9 11 8-4-5-10-10-3-2v-2l-4-2-15-16-9-14v-6l1-2 8 1 16 8 14 9 17 12 18 13 9 7-6-8-9-10-13-18-10-16-5-11-1-8 3-5z" fill="#EE6F20"/>
<path transform="translate(544,300)" d="m0 0h7l9 4 5 4 4-2 5-4 4-2h11l8 5 5 7 4-1h9l6 3 7 8 3 9v6h11l6 4 4 7v15l-4 10 1 3 4 4 2 4v10l-6 11-3 5 5 9 1 4v16l-3 10-6 8-5 4-9 4h-6v27l-4 15-5 9 1 13 3 12 2 12 6 28v6l-55 110-3-1-10-16-18-27-29-44-10-15 1-20 1-10 1-23 1-8v-9l-8-13-4-10-2-9v-18h-8l-10-3-9-7-5-8-3-9v-15l3-9 1-5-3-7 1-9 4-5h2l-4-8-1-8 2-7 4-5 6-3-1-5-1-3v-8l3-7 7-6 3-1 11-1 1-9 3-6 7-6 6-2 8 1 6 3h3l3-7 8-7z" fill="#ED6E1F"/>
<path transform="translate(1e3 317)" d="m0 0 5 1 3 4v19l-5 21-11 33-3 6 1 1 10-16 7-10 12-17 11-14 11-12 5-3h5l2 2v8l-6 18-12 26-9 16 4-5 8-11 11-14 5-6 8-5 5 1 1 1-1 10-7 17-10 19-14 24-3 5 32-14 16-5 5-1h9l2 2-1 7-8 8-18 12-22 12-5 3-8 26-8 18-9 16-8 10-7 7v12l4 37 5 75 1 29-11-2-79-20-14-4-1-5 8-51 9-58 2-12v-10l-6-21-4-20-3-31-2-21-6-25-8-28v-7l6-5 8 1 8 8 8 14 5 11 6 19h2l10-24 6-13 5-11 8-16 8-15 9-14 8-10z" fill="#EE7020"/>
<path transform="translate(409,889)" d="m0 0h2l17 104v12l-10 158-2 2-14-3-20-8-16-8-18-11-16-13-13-12-12-13-12-16-12-19-14-27-7-16-6-17v-5l8 6 8 5 7 2 11-1 19-6 12-5 12-7 8-7 8-12 16-8 8-7 7-10 3-9 2-19 13-16z" fill="#F3DAC4"/>
<path transform="translate(1171,385)" d="m0 0h13l10 2 12 5 11 7 7 6 10 13 7 14 3 11 1 6v11l-4 16-3 6 2 5 8 14 5 14 2 10v28l-10-5-7 1-5 3-3 2-4-19-5-12-7-12-11-12-4-4h-2l-7 11-11 12-11 9-14 8-19 7-3 2h6l4 3-1 7-13 4h-6l-3-4 1-5 2-2 6-2-10 1-15 1-8-7-8-1-8 4-3 2v-20l4-16 5-12 5-9 9-11 7-7 9-6h2l-3-8-1-6v-9l4-13 5-10 7-9 6-7 11-8 10-5 9-3z" fill="#CA3636"/>
<path transform="translate(1153,848)" d="m0 0h11l9 6 6 9 4 10 3 14 1 10v20l-1 9-6-1-13-7-6-5-3-1 5 5 9 6 13 6 1 8 8 9 6 13 3 13 1 9v28l-3 9-8 9-11 5-5 1h-11l-4-1-2 5-7 8-7 4h-10l-10-5-10-9-16-17-14-15-9-10-9-14-4-11v-19l5-15 6-11 5-7 8-4-4-2 11-14 14-15 10-10 11-9 12-9z" fill="#FEB243"/>
<path transform="translate(718,276)" d="m0 0 5 1 6 9 4 11 4 13 6 27 1 1-1-22v-33l4-7 5 1 3 5 4 11 3 9 5 27 4 29 6 28 2 8 2-2 6-15 9-17 7-9 4-3h6l3 3 1 8-3 17-6 27-4 36-5 25-6 16-7 12v4l-12-2-57-14v-9l-7-18-11-40-8-23-9-21-8-23-2-7v-8l1-1h6l8 11 9 15 5 10h1l-7-30-5-30v-14l3-4 5 1 5 8 10 27 6 19 4 15 1 2-2-14-5-30-2-20v-17z" fill="#FD9A56"/>
<path transform="translate(1925,412)" d="m0 0h5l4 5 2 15 1 14v56l3-16 5-26 6-31 3-2 7 1 5 5 2 7v14l-4 27-5 25-2 8h2l1-5 9-25 5-13 3-3h6l4 5v9l-5 29-6 24-7 24-12 44-3 10h5v41h-1v-40l-83-2 1-2-11-14-8-16-8-21-5-13-7-12-7-10-1-3v-8l4-5h7l5 3 10 9 9 9 10 13 5 8v2h2l2-75 2-44 2-5 6-2 4 4 5 16 5 32 2 22 4-44 3-27 3-11 4-5z" fill="#FD8A43"/>
<path transform="translate(544,300)" d="m0 0h7l9 4 5 4 4-2 5-4 4-2h11l8 5 5 7 4-1h9l6 3 7 8 3 9v6h11l6 4 4 7v15l-4 10 1 3 4 4 2 4v10l-6 11-3 4-5-1-4-2h-7l-7 4-4 4-3-3-2-6v-14h-11l-8-4-7-7-3-4-10 3-11-1-10-5-12 6-3 1h-17l-5 8-7 6-10 4-4 2-2 12-6 9h-3l-5-4-3-1h-7l-6 3-5-2-2-6 1-9 4-5h2l-4-8-1-8 2-7 4-5 6-3-1-5-1-3v-8l3-7 7-6 3-1 11-1 1-9 3-6 7-6 6-2 8 1 6 3h3l3-7 8-7z" fill="#38344E"/>
<path transform="translate(1198,665)" d="m0 0h1l1 16h6v1h-6l4 65 2 36v14l-15 5-21 4h-32l-22-4-20-7-19-10-7-5 1-14 9-58 2-5 27-5 1-6 15 1h23l20-4 16-8 7-6 5-5z" fill="#FD9954"/>
<path transform="translate(1070,780)" d="m0 0 9 5 17 9 20 7 22 4h32l25-5 11-3 1 5 7 122v10l-17-1-11-3v6h-1l-1-7-12-5-11-7-3-3v-2l4 1 10 7 10 5 4 1v-29l-2-16-5-16-6-10-9-6h-11l-14 7-14 11-15 14-9 9-9 11-7 9 4 1-3 3-6 3-2 2-13 2h-16v-8l20-132z" fill="#F7E9DB"/>
<path transform="translate(1501,259)" d="m0 0h8l10 4 6 5 4 6 2 9 12-5 10-2h11l13 3 10 6 9 8 7 9 6 15 2 12v17l-1 3-5 3h-2l-3 6h-2l-7-14-10-13-7-8-5-4-5 1-14 8-16 7-13 4-16 3-23 1-16-1-3 8-2 10v13l1 9-8-4h-11l-2-5-1-6v-26l-8-14-2-5v-16l5-10 8-7 25-12 17-12 12-5z" fill="#39344E"/>
<path transform="translate(1424,1304)" d="m0 0 3 3 5 12 7 33 6 38 3 30v46l-3 4h-6l-3-3-4-11-3-10-4 22-5 15-5 5-5-1-3-4-1-24-5 15-4 6-5 3-5-2-3-7v-17l-7 10-6 1-3-4 2-23 5-48 1-10-5-10-5-17-1-10-1-2 17-3 12-5 12-7 10-10 8-13z" fill="#FD9955"/>
<path transform="translate(1615,506)" d="m0 0 3 1 3-1h12l15 4-2 1-1 14-6 29-6 21-7 16-7 9-10-4h-3l-22 44-4-1-22-15-19-13-4 2-8 7-6-3-10-8-9-9-11-15-9-17-4-11v-2l-3-1 2-1 3-6 6-7 8-4 6-1 1-10h1l1 25 49 20 12 5 5-1 24-24 7-8 19-19-2-9-2-5z" fill="#F6E8DA"/>
<path transform="translate(1755,787)" d="m0 0 3 3 12 22 15 23 10 14 9 11 9 10 2 3-1 1-7 41-7 27-8 26-10 25-9 20-11 22-5 8-2 7h-1l-3-88-2-57z" fill="#F3DAC4"/>
<path transform="translate(1159,929)" d="m0 0h8l10 3 10 6 7 8 6 13 3 13 1 9v28l-3 9-8 9-11 5-5 1h-11l-9-3-6-5-8-16-5-18-1-8v-24l3-13 6-10 5-4z" fill="#EE6E1E"/>
<path transform="translate(1602,471)" d="m0 0 1 4 11 27 6 18-1 4-24 24-7 8-20 20-6-1-37-15-22-9-1-1v-16h32l17-4 16-8 10-8 7-7 9-14 7-16z" fill="#FD8940"/>
<path transform="translate(1925,412)" d="m0 0h5l4 5 2 15 1 14v56l3-16 5-26 6-31 3-2 7 1 5 5 2 7v14l-4 27-5 25-2 8 2 1-7-1-17-4-27-3 2-20 5-51 3-16 4-6z" fill="#FD8B44"/>
<path transform="translate(1051,330)" d="m0 0h5l2 2v8l-6 18-12 26-9 16h2l-2 4-5 7h-3l-3 9-5 9-16-6-10-3 1-6 3-8-2-1 5-5 14-21 7-10 10-14 9-11 9-10z" fill="#EE7122"/>
<path transform="translate(1600,474)" d="m0 0 1 3-7 16-7 11-9 10-8 7-12 7-14 5-10 2h-30l-2-1-1-9v-34l14 8 11 4 11 2h12l14-3 13-5 11-8 10-10z" fill="#EE6E1E"/>
<path transform="translate(791,584)" d="m0 0h1l1 5 9 6 51 36 18 13 9 7 6 4-4 1-87-22-4-2z" fill="#FDB448"/>
<path transform="translate(1954,427)" d="m0 0 7 1 5 5 2 7v14l-4 27-5 25-2 8 2 1-7-1-17-4v-10l2 2 3-16 5-26 6-31z" fill="#FD8D45"/>
<path transform="translate(718,276)" d="m0 0 5 1 6 9 4 11 4 13 6 27 3 2v9h-2l2 10-17 11-2 1-2-1-1-8-1-10-4-22-3-20-1-13v-17z" fill="#FD9D58"/>
<path transform="translate(1732,1081)" d="m0 0 3 1 3 23 6 53 5 42 6 54 6 53 7 60 7 59 5 47 6 49 3 27v5l-3 1-2-9-3-27-12-104-7-61-5-42-5-47-3-24-6-52-7-61-4-35-1-11z" fill="#029789"/>
<path transform="translate(582,710)" d="m0 0h2l2 20 10 135 6 82 11 150 8 108 2 35-3 1-2-19-7-97-10-137-2-24-3-44-8-107-5-72-2-24v-6z" fill="#FE9752"/>
<path transform="translate(1117,657)" d="m0 0 8 6 12 7 13 4 6 1h14l16-4 11-5-2 5-6 7-10 7-11 5-20 4h-23l-15-2 1-9 4-24h2z" fill="#EE6E1F"/>
<path transform="translate(1226,910)" d="m0 0h2l1 79 2 81 3 68 5 76 6 69 6 58-1 4h-2l-2-12-7-70-5-62-4-64-3-66-2-78v-82z" fill="#F8EFE5"/>
<path transform="translate(1032,913)" d="m0 0h3l-1 15-12 103-12 95-16 116-12 81-2 4-2-1 2-17 12-81 13-95 14-111 10-86 2-19z" fill="#F8EEE4"/>
<path transform="translate(1302,918)" d="m0 0 2 1 4 36 6 69 5 65 4 60 3 47 2 43 1 17v27h-3l-3-54-2-40-4-64-4-56-4-50-4-46-3-34-1-9v-11z" fill="#029789"/>
<path transform="translate(507,526)" d="m0 0 7 6 10 7 11 5 11 3h23l13-4 12-6 10-9v3l-6 7-10 8-15 8-14 4-6 1h-28l-17-3-3-1v-22z" fill="#CA3535"/>
<path transform="translate(1016,803)" d="m0 0 6 1 1 4-12 22-10 21-11 29-8 28-4 18-3 3-5-1-1-1 1-10 6-24 11-33 10-23 8-16 9-16z" fill="#F7EBDE"/>
<path transform="translate(1253,836)" d="m0 0h5l3 7 6 26 4 30 1 15v27l-2 22-3 3-5-2-1-1 1-17v-38l-3-28-6-29-2-8v-5zm15 107-1 4v7l2 1 1-2v-7z" fill="#F7EBDF"/>
<path transform="translate(584,477)" d="m0 0h6l6 5 1 3v9l-3 7-6 7-9 4h-10l-10-5-4-6v-6l5-6 5-2h11l2-5 4-4z" fill="#F6E8D9"/>
<path transform="translate(1027,699)" d="m0 0 3 1-1 60 1 42 3 36 3 26 4 27 4 22v3l-4-1-4-21-5-33-4-38-1-13-1-26v-56l1-27z" fill="#029789"/>
<path transform="translate(1262,715)" d="m0 0 3 1-3 29-6 37-6 28-6 25-9 31-11 33-4 10h-3l1-7 8-23 7-21 8-29 7-30 4-20 6-38 3-25z" fill="#029789"/>
<path transform="translate(979,1144)" d="m0 0 4 1-8 17-11 18-9 12-8 10-12 13-11 11-11 9-13 10-14 9-4-1 5-5 11-7 12-9 13-11 19-19 8-10 10-14 11-18z" fill="#029789"/>
<path transform="translate(469,588)" d="m0 0h2l-1 7-3 12-1 20 9-3h13l14 4 13 7 13 10 11 11 13 17 9 13v3l-4-2-12-17-9-11-9-10-13-10-16-8-5-2-6-1h-12l-8 3-4-1v-24l4-15z" fill="#FE9853"/>
<path transform="translate(1249,1164)" d="m0 0 3 1 6 26 8 23 9 20 11 20 11 16 11 14v3l-4-1-8-10-12-17-14-25-11-26-7-22-4-19z" fill="#029789"/>
<path transform="translate(656,577)" d="m0 0 3 1 7 20 3 13v8l-19 5-14 7-13 10-10 10-10 13-17 25h-2l1-5 14-21 11-14 14-14 15-10 11-5 10-3h6l-5-21-6-16z" fill="#FE9853"/>
<path transform="translate(1495,421)" d="m0 0 7 1 5 4 2 4v7l-4 6-6 3-7-1-6-5-1-2v-9l5-6z" fill="#EE6E1E"/>
<path transform="translate(1586,395)" d="m0 0h7l6 4 3 6-2 9-6 5h-9l-6-5-2-8 3-7z" fill="#EE6E1E"/>
<path transform="translate(1454,1189)" d="m0 0 5 2 48 28 46 27 13 8 1 4-6-2-25-15-21-12-15-9-26-15-20-12z" fill="#029789"/>
<path transform="translate(856,763)" d="m0 0h3l6 50 7 49 2 12v7h-3l-6-36-5-35-4-35z" fill="#029789"/>
<path transform="translate(393,746)" d="m0 0h2l2 9 9 61 7 49 1 14-3-1-5-32-8-57-6-42z" fill="#FE9852"/>
<path transform="translate(512,462)" d="m0 0 7 1 6 7v7l-3 5-5 3h-7l-7-6v-10l4-5z" fill="#CA3435"/>
<path transform="translate(600,448)" d="m0 0h10l6 7v7l-4 6-4 2h-7l-7-6-1-7 3-6z" fill="#CA3435"/>
<path transform="translate(311,825)" d="m0 0 4 1 12 11 7 6 7 8 11 13 14 21 10 18 5 11v2l-4-1-10-21-10-16-9-12-8-10-11-12-9-9-8-7z" fill="#FE9853"/>
<path transform="translate(1202,592)" d="m0 0h9l5 5 1 6-3 6-4 3h-7l-6-5-1-2 1-9z" fill="#EE6E1E"/>
<path transform="translate(1118,587)" d="m0 0h8l6 5v9l-4 5-9 1-4-2-3-5v-7l4-5z" fill="#EE6E1E"/>
<path transform="translate(1525,379)" d="m0 0 2 1 1 11 1 27v18l22-7h4v3l-25 8h-4l-1-10-1-34v-16z" fill="#EE6E1E"/>
<path transform="translate(1558,374)" d="m0 0 7 1 4 5 1 8-3 5-6 2-5-3-3-4v-9z" fill="#35324D"/>
<path transform="translate(1548,356)" d="m0 0h18l3 3v6l-4 3h-18l-3-3v-6z" fill="#35324D"/>
<path transform="translate(1492,372)" d="m0 0h6l3 3-1 7-13 8h-7l-3-3 1-6 9-6z" fill="#35324D"/>
<path transform="translate(1494,390)" d="m0 0h6l5 4 1 2v10l-4 4h-6l-5-4-1-2v-10z" fill="#35324D"/>
<path transform="translate(835,789)" d="m0 0h3l19 55 5 14-1 4-3-2-19-55-4-12z" fill="#029789"/>
<path transform="translate(515,432)" d="m0 0 7 1 4 5 1 6-3 6-3 2-6-1-4-4-1-8 3-6z" fill="#35324D"/>
<path transform="translate(577,424)" d="m0 0 7 1 4 5v9l-5 5-7-1-3-4-1-8 3-6z" fill="#35324D"/>
<path transform="translate(1377,1385)" d="m0 0 2 1 1 4v18l-8 38-2 9h-1l2-26 5-42z" fill="#3DB7B1"/>
<path transform="translate(569,406)" d="m0 0h9l9 1 4 4-1 5-5 3-16-2-3-3 1-7z" fill="#35324D"/>
<path transform="translate(515,415)" d="m0 0h6l3 3-1 6-14 7h-6l-3-3 1-6z" fill="#35324D"/>
<path transform="translate(1382,1388)" d="m0 0 3 3 3 9 3 26 2 8 6-1 3-8 2-9 2-23 1-5h2v10l-2 20-4 15-5 4h-5l-3-3-3-11-2-21-4-13z" fill="#EE6E1E"/>
<path transform="translate(1610,325)" d="m0 0 4 5 14 14 4 5v3l-2 1 4 8-1 3-6-10-6-4-3-1h-8zm4 12-1 1v6l-1 3h6v-3l-3-7z" fill="#F6E5D6"/>
<path transform="translate(1498,1245)" d="m0 0 11 2 38 10 15 4 1 3-9-1-56-14-1-3z" fill="#029789"/>
<path transform="translate(1185,547)" d="m0 0 9 2 8 3 2 6-4 4-9-1-8-3-2-3v-5z" fill="#42324A"/>
<path transform="translate(1188,565)" d="m0 0 6 1 3 4v9l-3 4-6 1-4-2-2-3v-8l4-5z" fill="#40324B"/>
<path transform="translate(1130,560)" d="m0 0 7 1 3 3v10l-4 4-5 1-5-5-1-5 2-7z" fill="#3E324B"/>
<path transform="translate(1136,544)" d="m0 0 5 2 1 1-1 7-13 4h-6l-3-4 1-5 2-2z" fill="#3F324B"/>
<path transform="translate(132,604)" d="m0 0 6 5 4 4 12-8h3v2l-18 12-14 11-14 13h-2l2-4 3-3-2-5-9-9v-3l4 2 7 8 4 3 13-11 7-5-2-4-5-7z" fill="#CA3435"/>
<path transform="translate(545,426)" d="m0 0h3l-1 21-3 33 20-4h5v2l-13 3-10 2h-5v-9l3-34z" fill="#CA3435"/>
<path transform="translate(991,407)" d="m0 0h2l-3 10-1 3 10 2 16 6 8-17h2l-1 5-5 11-1 4 6 2 2 1v2l-5-1-18-8-21-7-13-3v-2l9 1 9 2 3-10z" fill="#CA3435"/>
<path transform="translate(1158,912)" d="m0 0 4 1 10 7 10 5 4 1v-9h1v10l17 2h8l2 1-1 4-16-1-11-3v6h-1l-1-7-12-5-11-7-3-3z" fill="#F3DAC4"/>
<path transform="translate(384,809)" d="m0 0h3l12 45 4 16v4l-3-1-12-45-4-14z" fill="#FE9853"/>
<path transform="translate(1160,561)" d="m0 0h2l-2 9-12 39h21l2 2-1 1-25-1 1-7 13-41z" fill="#EE6E1E"/>
<path transform="translate(1903,507)" d="m0 0h16l21 3 15 4 4 2v2l-8-1-18-4-13-2-16-1z" fill="#EE6E1E"/>
<path transform="translate(1564,581)" d="m0 0h4l-1 4-8 7-19 19-3-2 12-14z" fill="#F3DAC4"/>
<path transform="translate(1083,910)" d="m0 0h5v3l-8 4-2 2-13 2h-16v-4l17-1 12-3 5-1z" fill="#F3DAC4"/>
<path transform="translate(1574,577)" d="m0 0 16 6 16 8 2 4-3 1-17-9-14-5-2-3z" fill="#F3DAC4"/>
<path transform="translate(745,349)" d="m0 0h2l2 7 7-3h3v2l-16 8-10 6-13 10-5 3 1-4 10-8 14-9 5-4z" fill="#EE6E1E"/>
<path transform="translate(1424,877)" d="m0 0h1l2 37-3 35h-1v-45z" fill="#F4E1CE"/>
<path transform="translate(1938,535)" d="m0 0h3l-1 4-12 7-11 9-8 7h-2l1-4 7-7 15-11z" fill="#EE6E1E"/>
<path transform="translate(728,398)" d="m0 0 5 2 14 10 12 12 5 7v2l-4-2-9-11-10-9-13-9z" fill="#EE6E1E"/>
<path transform="translate(1573,429)" d="m0 0 3 1v8l-3 11-6 9-7 6h-2l2-4 8-9 4-10z" fill="#35324D"/>
<path transform="translate(1089,595)" d="m0 0 11 1v13l-4-2-7-9z" fill="#D34839"/>
<path transform="translate(1189,616)" d="m0 0h2l-1 5-7 6-14 5-5-1v-2l12-3 9-6z" fill="#5B3246"/>
<path transform="translate(965,453)" d="m0 0 4 2 11 18 5 11 1 6h-2l-8-18-10-16z" fill="#CA3435"/>
<path transform="translate(1012,1091)" d="m0 0h1v12l-3 19-3 1 1-13 2-16z" fill="#F8EDE3"/>
<path transform="translate(171,640)" d="m0 0h2l-2 10-3 17-1 11-2 3-1-5 2-18 4-16z" fill="#CA3435"/>
<path transform="translate(1424,1403)" d="m0 0 3 1 3 21v17h-2l-2-25z" fill="#EE6E1E"/>
<path transform="translate(1234,603)" d="m0 0h3l-1 4-7 8-3 1v-12z" fill="#D44E40"/>
<path transform="translate(1247,1313)" d="m0 0h1l3 31-3 1-2-12-1-14h2z" fill="#F9F0E7"/>
<path transform="translate(212,716)" d="m0 0h3l-1 3-22 8-6 3-4-1 14-7z" fill="#CA3435"/>
<path transform="translate(950,539)" d="m0 0h27l8 1v2h-12l-23-1z" fill="#CA3435"/>
<path transform="translate(1008,1122)" d="m0 0h2l-3 27-3-4 1-12 2-10z" fill="#F9EFE6"/>
<path transform="translate(39,646)" d="m0 0h45v1l-43 1-5 2-4 4 1-5z" fill="#FB9D5B"/>
<path transform="translate(1408,1425)" d="m0 0h2l-1 25h-3l1-20z" fill="#EE6E1E"/>
<path transform="translate(89,606)" d="m0 0 4 2 6 7 3 2-1 2-14-9-1-2 6 2z" fill="#FD9D50"/>
<path transform="translate(1049,331)" d="m0 0 2 1-15 15-2-1 12-13z" fill="#F59B5E"/>
<path transform="translate(1388,1437)" d="m0 0h2l-1 11-1 6-3-1 2-14z" fill="#EE6E1E"/>
<path transform="translate(1e3 317)" d="m0 0 5 1 2 4-3-2h-5l-8 8-2-1 6-7z" fill="#F7A46A"/>
<path transform="translate(1140,398)" d="m0 0 2 1-15 15v-3l8-9z" fill="#E68163"/>
<path transform="translate(1356,629)" d="m0 0 2 1-14 14v-3l6-7z" fill="#E47B5D"/>
<path transform="translate(1063,361)" d="m0 0 2 1-12 12v-3l6-7z" fill="#F59756"/>
<path transform="translate(1910,487)" d="m0 0h1v17l-1 2h-2z" fill="#FAB472"/>
</svg>
